<svg  viewBox="0 0 72 72" fill="none" xmlns="http://www.w3.org/2000/svg">
<g clip-path="url(#clip0)">
<g filter="url(#filter0_iii)">
<path d="M61.8735 13.175C61.0943 9.78372 48.2725 13.8039 46.322 13.8039C44.3715 13.8039 43.4425 13.8741 41.1249 11.6969C38.8072 9.51973 30.9413 9.73043 28.7642 8.74719C26.587 7.76394 19.7874 8.17187 15.2926 10.7002C10.7977 13.2286 13.0624 42.0459 13.0624 42.0459C13.0624 42.0459 25.8854 42.8096 27.7816 44.144C29.6779 45.4784 27.2198 53.2741 27.7816 56.9261C28.3435 60.5782 33.1192 67.0395 37.1927 64.5111C41.2661 61.9828 39.3698 59.2438 38.9484 50.2541C38.7552 46.1311 42.6005 45.057 47.9381 38.8063C49.1336 38.589 61.0153 36.3986 63.5485 35.4035C66.0818 34.4084 65.0076 31.4222 63.9517 24.6326" fill="url(#paint0_radial)"/>
<path d="M61.8735 13.175C61.0943 9.78372 48.2725 13.8039 46.322 13.8039C44.3715 13.8039 43.4425 13.8741 41.1249 11.6969C38.8072 9.51973 30.9413 9.73043 28.7642 8.74719C26.587 7.76394 19.7874 8.17187 15.2926 10.7002C10.7977 13.2286 13.0624 42.0459 13.0624 42.0459C13.0624 42.0459 25.8854 42.8096 27.7816 44.144C29.6779 45.4784 27.2198 53.2741 27.7816 56.9261C28.3435 60.5782 33.1192 67.0395 37.1927 64.5111C41.2661 61.9828 39.3698 59.2438 38.9484 50.2541C38.7552 46.1311 42.6005 45.057 47.9381 38.8063C49.1336 38.589 61.0153 36.3986 63.5485 35.4035C66.0818 34.4084 65.0076 31.4222 63.9517 24.6326" fill="url(#paint1_radial)" fill-opacity="0.31"/>
</g>
<path d="M13.0624 42.0459L12.564 42.0851L12.5981 42.5192L13.0327 42.5451L13.0624 42.0459ZM38.9484 50.2541L38.449 50.2775L38.9484 50.2541ZM47.9381 38.8063L47.8487 38.3144L47.6735 38.3463L47.5579 38.4816L47.9381 38.8063ZM27.4939 44.5529C27.6132 44.6368 27.733 44.796 27.8284 45.0838C27.9237 45.3714 27.9817 45.7492 28.0031 46.2136C28.046 47.1435 27.9392 48.3202 27.7856 49.6066C27.6341 50.8747 27.436 52.2564 27.3136 53.5279C27.1912 54.7985 27.1369 56.0234 27.2874 57.0021L28.2758 56.8501C28.1455 56.0028 28.1877 54.8837 28.309 53.6238C28.4302 52.3647 28.6227 51.0294 28.7785 49.7252C28.9321 48.4394 29.0492 47.1888 29.0021 46.1675C28.9785 45.6563 28.913 45.1776 28.7776 44.7692C28.6423 44.361 28.4241 43.9847 28.0694 43.7351L27.4939 44.5529ZM27.2874 57.0021C27.5876 58.9532 28.984 61.5752 30.8185 63.3916C31.7404 64.3043 32.8055 65.0467 33.9397 65.3853C35.0906 65.7288 36.3033 65.6516 37.4563 64.936L36.929 64.0863C36.0453 64.6348 35.1335 64.698 34.2257 64.4271C33.3013 64.1511 32.3736 63.524 31.5221 62.681C29.8099 60.9857 28.5375 58.551 28.2758 56.8501L27.2874 57.0021ZM13.0624 42.0459C13.0327 42.5451 13.0327 42.5451 13.0328 42.5451C13.0329 42.5451 13.033 42.5451 13.0332 42.5451C13.0336 42.5451 13.0341 42.5451 13.0349 42.5452C13.0364 42.5453 13.0386 42.5454 13.0416 42.5456C13.0477 42.546 13.0568 42.5465 13.0688 42.5473C13.0929 42.5487 13.1287 42.5509 13.1756 42.5539C13.2694 42.5598 13.4075 42.5686 13.5841 42.5803C13.9372 42.6037 14.444 42.6386 15.0582 42.6847C16.2871 42.7769 17.9442 42.9137 19.6593 43.0919C21.3761 43.2703 23.1432 43.4894 24.5949 43.7456C25.3212 43.8738 25.9601 44.0098 26.4703 44.1523C26.9967 44.2993 27.3321 44.439 27.4939 44.5529L28.0694 43.7351C27.7571 43.5153 27.277 43.3393 26.7392 43.1891C26.1852 43.0344 25.5111 42.8918 24.7687 42.7608C23.2827 42.4985 21.4886 42.2766 19.7626 42.0972C18.035 41.9177 16.3678 41.7802 15.1331 41.6875C14.5155 41.6412 14.0058 41.606 13.6502 41.5825C13.4724 41.5707 13.3331 41.5618 13.2382 41.5558C13.1907 41.5529 13.1543 41.5506 13.1298 41.5491C13.1175 41.5484 13.1081 41.5478 13.1018 41.5474C13.0987 41.5472 13.0963 41.5471 13.0947 41.547C13.0939 41.5469 13.0933 41.5469 13.0928 41.5469C13.0926 41.5469 13.0925 41.5469 13.0924 41.5468C13.0922 41.5468 13.0922 41.5468 13.0624 42.0459ZM37.4563 64.936C38.5238 64.2734 39.2464 63.5681 39.6891 62.7103C40.1299 61.8559 40.2652 60.9037 40.2561 59.8015C40.247 58.7071 40.0936 57.4114 39.9216 55.8635C39.7485 54.3054 39.5524 52.4616 39.4479 50.2307L38.449 50.2775C38.5551 52.5414 38.7541 54.4111 38.9277 55.9739C39.1025 57.547 39.2476 58.7796 39.2561 59.8097C39.2646 60.8321 39.1365 61.6005 38.8004 62.2517C38.4661 62.8995 37.8982 63.4847 36.929 64.0863L37.4563 64.936ZM39.4479 50.2307C39.3614 48.3856 40.1477 47.2182 41.7183 45.686C43.2829 44.1596 45.6313 42.2777 48.3183 39.131L47.5579 38.4816C44.9073 41.5856 42.6643 43.366 41.02 44.9702C39.3819 46.5683 38.3422 47.9996 38.449 50.2775L39.4479 50.2307ZM15.0474 10.2644C14.3188 10.6743 13.8113 11.5534 13.4354 12.6047C13.0505 13.6812 12.7645 15.0527 12.5525 16.5966C12.1281 19.6878 11.9898 23.5538 11.9919 27.3215C11.9941 31.0931 12.1371 34.7834 12.2795 37.5296C12.3507 38.9031 12.4217 40.0412 12.475 40.8362C12.5017 41.2337 12.5239 41.5456 12.5394 41.7582C12.5472 41.8645 12.5533 41.946 12.5575 42.0011C12.5596 42.0286 12.5612 42.0495 12.5623 42.0636C12.5628 42.0706 12.5633 42.076 12.5635 42.0796C12.5637 42.0814 12.5638 42.0827 12.5639 42.0836C12.5639 42.0841 12.5639 42.0845 12.5639 42.0847C12.564 42.085 12.564 42.0851 13.0624 42.0459C13.5609 42.0068 13.5609 42.0067 13.5609 42.0065C13.5609 42.0063 13.5608 42.006 13.5608 42.0056C13.5607 42.0048 13.5606 42.0035 13.5605 42.0018C13.5603 41.9985 13.5599 41.9933 13.5593 41.9865C13.5583 41.9729 13.5567 41.9524 13.5546 41.9253C13.5505 41.8712 13.5445 41.7906 13.5368 41.6852C13.5213 41.4745 13.4993 41.1647 13.4728 40.7693C13.4198 39.9785 13.349 38.8455 13.2781 37.4778C13.1363 34.7417 12.9941 31.0697 12.9919 27.3209C12.9898 23.5682 13.1281 19.7558 13.5432 16.7326C13.751 15.2194 14.0254 13.9247 14.377 12.9413C14.7377 11.9328 15.1426 11.3582 15.5377 11.136L15.0474 10.2644ZM62.3608 13.063C62.2218 12.4582 61.8114 12.0444 61.2853 11.7812C60.7729 11.5248 60.1266 11.3961 59.4263 11.3439C58.0222 11.2393 56.2369 11.4325 54.4561 11.7243C52.6677 12.0173 50.8449 12.4168 49.3589 12.7401C48.613 12.9024 47.9556 13.0448 47.4241 13.1467C46.8783 13.2513 46.5107 13.3039 46.322 13.3039L46.322 14.3039C46.621 14.3039 47.0807 14.2307 47.6125 14.1288C48.1585 14.0241 48.8289 13.8789 49.5715 13.7173C51.0626 13.3928 52.8596 12.9992 54.6178 12.7111C56.3838 12.4218 58.0719 12.2458 59.352 12.3412C59.9938 12.389 60.4923 12.5026 60.8378 12.6755C61.1697 12.8415 61.3304 13.044 61.3862 13.2869L62.3608 13.063ZM46.322 13.3039C45.3211 13.3039 44.6917 13.3161 44.0189 13.0924C43.3538 12.8712 42.6049 12.4013 41.4672 11.3325L40.7825 12.0613C41.9624 13.1698 42.8369 13.7532 43.7034 14.0413C44.5621 14.3268 45.3724 14.3039 46.322 14.3039L46.322 13.3039ZM41.4672 11.3325C40.7959 10.7019 39.7713 10.2808 38.6545 9.97368C37.5239 9.66277 36.2284 9.45076 34.9589 9.27884C33.6537 9.10209 32.4572 8.9769 31.358 8.82163C30.2679 8.66764 29.4389 8.50328 28.9699 8.2915L28.5584 9.20287C29.178 9.48271 30.1487 9.66073 31.2182 9.8118C32.2786 9.96161 33.6016 10.1042 34.8247 10.2698C36.0835 10.4403 37.3252 10.6453 38.3893 10.9379C39.4672 11.2343 40.295 11.6033 40.7825 12.0613L41.4672 11.3325ZM28.9699 8.2915C28.3431 8.00841 27.4382 7.8447 26.4026 7.78288C25.3552 7.72036 24.1311 7.7598 22.8396 7.91021C20.2629 8.21032 17.3699 8.95804 15.0474 10.2644L15.5377 11.136C17.7101 9.91404 20.4642 9.19363 22.9553 8.9035C24.1978 8.75879 25.3627 8.72258 26.343 8.7811C27.3351 8.84032 28.0966 8.99434 28.5584 9.20287L28.9699 8.2915ZM48.0275 39.2983C48.6271 39.1893 51.9001 38.5867 55.3414 37.8866C57.0617 37.5366 58.8272 37.1616 60.3228 36.8113C61.8062 36.4639 63.059 36.1331 63.7314 35.8689L63.3657 34.9382C62.7715 35.1716 61.5891 35.4877 60.0948 35.8376C58.6128 36.1847 56.8581 36.5575 55.142 36.9066C51.7102 37.6048 48.4446 38.206 47.8487 38.3144L48.0275 39.2983ZM63.7314 35.8689C64.4678 35.5796 64.9837 35.1231 65.2839 34.4624C65.5721 33.8282 65.6387 33.0542 65.5954 32.1667C65.5519 31.274 65.3929 30.2067 65.1835 28.9573C64.9724 27.6981 64.7092 26.2499 64.4458 24.5557L63.4576 24.7094C63.7221 26.4101 63.9892 27.8813 64.1973 29.1227C64.407 30.3739 64.5563 31.3884 64.5966 32.2154C64.6372 33.0475 64.5634 33.631 64.3735 34.0487C64.1957 34.44 63.8959 34.7299 63.3657 34.9382L63.7314 35.8689ZM64.4458 24.5557C63.3892 17.7616 63.144 16.4713 62.3608 13.063L61.3862 13.2869C62.1615 16.6611 62.4025 17.9242 63.4576 24.7094L64.4458 24.5557Z" fill="url(#paint2_radial)"/>
<g filter="url(#filter1_di)">
<path d="M31.1753 11.7889C30.7531 9.26622 28.1821 7.55218 25.4027 7.94028L15.9412 8.74405C13.3015 8.6487 11.0429 10.524 10.8965 12.9327C10.75 15.3415 12.7712 17.3715 15.4109 17.467C15.8341 17.4823 16.2584 17.4462 16.673 17.3598L26.1345 16.556C28.9397 16.4697 31.1847 14.3466 31.1753 11.7889Z" fill="url(#paint3_radial)"/>
<path d="M31.1753 11.7889C30.7531 9.26622 28.1821 7.55218 25.4027 7.94028L15.9412 8.74405C13.3015 8.6487 11.0429 10.524 10.8965 12.9327C10.75 15.3415 12.7712 17.3715 15.4109 17.467C15.8341 17.4823 16.2584 17.4462 16.673 17.3598L26.1345 16.556C28.9397 16.4697 31.1847 14.3466 31.1753 11.7889Z" fill="url(#paint4_radial)" fill-opacity="0.31"/>
</g>
<g filter="url(#filter2_di)">
<path d="M33.2075 19.3078C32.9059 16.7712 30.8972 14.952 28.6975 15.2233L12.6652 16.095C10.5819 15.8894 8.7747 17.6675 8.62869 20.0667C8.48269 22.4659 10.0533 24.5776 12.1366 24.7833C12.4706 24.8162 12.8061 24.798 13.1345 24.7291L29.1668 23.8573C31.3831 23.8885 33.1827 21.8623 33.2075 19.3078Z" fill="url(#paint5_radial)"/>
<path d="M33.2075 19.3078C32.9059 16.7712 30.8972 14.952 28.6975 15.2233L12.6652 16.095C10.5819 15.8894 8.7747 17.6675 8.62869 20.0667C8.48269 22.4659 10.0533 24.5776 12.1366 24.7833C12.4706 24.8162 12.8061 24.798 13.1345 24.7291L29.1668 23.8573C31.3831 23.8885 33.1827 21.8623 33.2075 19.3078Z" fill="url(#paint6_radial)" fill-opacity="0.31"/>
</g>
<g filter="url(#filter3_di)">
<path d="M35.504 28.4097C35.2501 25.8679 33.3024 24.0122 31.1309 24.243L11.1076 24.9736C9.05893 24.7297 7.24844 26.4742 7.06372 28.8703C6.87899 31.2663 8.39012 33.4065 10.4388 33.6505C10.7673 33.6896 11.0981 33.6775 11.4228 33.6146L31.4461 32.884C33.6288 32.9559 35.436 30.9632 35.504 28.4097Z" fill="url(#paint7_radial)"/>
<path d="M35.504 28.4097C35.2501 25.8679 33.3024 24.0122 31.1309 24.243L11.1076 24.9736C9.05893 24.7297 7.24844 26.4742 7.06372 28.8703C6.87899 31.2663 8.39012 33.4065 10.4388 33.6505C10.7673 33.6896 11.0981 33.6775 11.4228 33.6146L31.4461 32.884C33.6288 32.9559 35.436 30.9632 35.504 28.4097Z" fill="url(#paint8_radial)" fill-opacity="0.31"/>
</g>
<g filter="url(#filter4_di)">
<path d="M32.6375 36.5931C32.2887 34.0617 30.1208 32.2803 27.7701 32.5932L12.9116 33.6117C10.6804 33.4454 8.76525 35.258 8.63376 37.6604C8.50227 40.0627 10.2044 42.145 12.4356 42.3114C12.7933 42.338 13.152 42.3134 13.5027 42.2382L28.3612 41.2198C30.7328 41.209 32.6373 39.1484 32.6375 36.5931Z" fill="url(#paint9_radial)"/>
<path d="M32.6375 36.5931C32.2887 34.0617 30.1208 32.2803 27.7701 32.5932L12.9116 33.6117C10.6804 33.4454 8.76525 35.258 8.63376 37.6604C8.50227 40.0627 10.2044 42.145 12.4356 42.3114C12.7933 42.338 13.152 42.3134 13.5027 42.2382L28.3612 41.2198C30.7328 41.209 32.6373 39.1484 32.6375 36.5931Z" fill="url(#paint10_radial)" fill-opacity="0.31"/>
</g>
<path opacity="0.19" d="M23.6101 10.2639C23.6101 5.67265 29.9499 9.05457 32.4224 9.05457C33.1268 9.05457 34.8017 9.83308 34.8017 12.7395C34.8017 15.646 36.1257 18.515 35.4859 20.3689C34.3474 23.6681 36.3885 25.4899 36.5562 27.2198C37.0357 32.1667 34.9554 32.3735 34.8017 34.0188C35.872 36.2505 35.3907 37.9296 35.0689 38.6899C33.1048 43.3302 27.8634 40.9726 25.9939 40.9726C23.5213 40.9726 23.6101 14.8551 23.6101 10.2639Z" fill="url(#paint11_radial)"/>
</g>
<defs>
<filter id="filter0_iii" x="11.9919" y="7.75439" width="57.6156" height="62.8284" filterUnits="userSpaceOnUse" color-interpolation-filters="sRGB">
<feFlood flood-opacity="0" result="BackgroundImageFix"/>
<feBlend mode="normal" in="SourceGraphic" in2="BackgroundImageFix" result="shape"/>
<feColorMatrix in="SourceAlpha" type="matrix" values="0 0 0 0 0 0 0 0 0 0 0 0 0 0 0 0 0 0 127 0" result="hardAlpha"/>
<feOffset dy="4"/>
<feGaussianBlur stdDeviation="2"/>
<feComposite in2="hardAlpha" operator="arithmetic" k2="-1" k3="1"/>
<feColorMatrix type="matrix" values="0 0 0 0 0 0 0 0 0 0 0 0 0 0 0 0 0 0 0.1 0"/>
<feBlend mode="normal" in2="shape" result="effect1_innerShadow"/>
<feColorMatrix in="SourceAlpha" type="matrix" values="0 0 0 0 0 0 0 0 0 0 0 0 0 0 0 0 0 0 127 0" result="hardAlpha"/>
<feOffset dx="3" dy="2"/>
<feGaussianBlur stdDeviation="5"/>
<feComposite in2="hardAlpha" operator="arithmetic" k2="-1" k3="1"/>
<feColorMatrix type="matrix" values="0 0 0 0 0.858333 0 0 0 0 0.675008 0 0 0 0 0.0250347 0 0 0 1 0"/>
<feBlend mode="normal" in2="effect1_innerShadow" result="effect2_innerShadow"/>
<feColorMatrix in="SourceAlpha" type="matrix" values="0 0 0 0 0 0 0 0 0 0 0 0 0 0 0 0 0 0 127 0" result="hardAlpha"/>
<feOffset dx="4" dy="6"/>
<feGaussianBlur stdDeviation="2.5"/>
<feComposite in2="hardAlpha" operator="arithmetic" k2="-1" k3="1"/>
<feColorMatrix type="matrix" values="0 0 0 0 0.920833 0 0 0 0 0.642963 0 0 0 0 0.0767361 0 0 0 0.72 0"/>
<feBlend mode="normal" in2="effect2_innerShadow" result="effect3_innerShadow"/>
</filter>
<filter id="filter1_di" x="9.88898" y="7.88547" width="22.2863" height="13.5849" filterUnits="userSpaceOnUse" color-interpolation-filters="sRGB">
<feFlood flood-opacity="0" result="BackgroundImageFix"/>
<feColorMatrix in="SourceAlpha" type="matrix" values="0 0 0 0 0 0 0 0 0 0 0 0 0 0 0 0 0 0 127 0"/>
<feOffset dy="1"/>
<feGaussianBlur stdDeviation="0.5"/>
<feColorMatrix type="matrix" values="0 0 0 0 0 0 0 0 0 0 0 0 0 0 0 0 0 0 0.1 0"/>
<feBlend mode="normal" in2="BackgroundImageFix" result="effect1_dropShadow"/>
<feBlend mode="normal" in="SourceGraphic" in2="effect1_dropShadow" result="shape"/>
<feColorMatrix in="SourceAlpha" type="matrix" values="0 0 0 0 0 0 0 0 0 0 0 0 0 0 0 0 0 0 127 0" result="hardAlpha"/>
<feOffset dy="4"/>
<feGaussianBlur stdDeviation="2"/>
<feComposite in2="hardAlpha" operator="arithmetic" k2="-1" k3="1"/>
<feColorMatrix type="matrix" values="0 0 0 0 0 0 0 0 0 0 0 0 0 0 0 0 0 0 0.1 0"/>
<feBlend mode="normal" in2="shape" result="effect2_innerShadow"/>
</filter>
<filter id="filter2_di" x="7.61928" y="15.1965" width="26.5882" height="13.6027" filterUnits="userSpaceOnUse" color-interpolation-filters="sRGB">
<feFlood flood-opacity="0" result="BackgroundImageFix"/>
<feColorMatrix in="SourceAlpha" type="matrix" values="0 0 0 0 0 0 0 0 0 0 0 0 0 0 0 0 0 0 127 0"/>
<feOffset dy="1"/>
<feGaussianBlur stdDeviation="0.5"/>
<feColorMatrix type="matrix" values="0 0 0 0 0 0 0 0 0 0 0 0 0 0 0 0 0 0 0.1 0"/>
<feBlend mode="normal" in2="BackgroundImageFix" result="effect1_dropShadow"/>
<feBlend mode="normal" in="SourceGraphic" in2="effect1_dropShadow" result="shape"/>
<feColorMatrix in="SourceAlpha" type="matrix" values="0 0 0 0 0 0 0 0 0 0 0 0 0 0 0 0 0 0 127 0" result="hardAlpha"/>
<feOffset dy="4"/>
<feGaussianBlur stdDeviation="2"/>
<feComposite in2="hardAlpha" operator="arithmetic" k2="-1" k3="1"/>
<feColorMatrix type="matrix" values="0 0 0 0 0 0 0 0 0 0 0 0 0 0 0 0 0 0 0.1 0"/>
<feBlend mode="normal" in2="shape" result="effect2_innerShadow"/>
</filter>
<filter id="filter3_di" x="6.04843" y="24.2236" width="30.4555" height="13.4493" filterUnits="userSpaceOnUse" color-interpolation-filters="sRGB">
<feFlood flood-opacity="0" result="BackgroundImageFix"/>
<feColorMatrix in="SourceAlpha" type="matrix" values="0 0 0 0 0 0 0 0 0 0 0 0 0 0 0 0 0 0 127 0"/>
<feOffset dy="1"/>
<feGaussianBlur stdDeviation="0.5"/>
<feColorMatrix type="matrix" values="0 0 0 0 0 0 0 0 0 0 0 0 0 0 0 0 0 0 0.1 0"/>
<feBlend mode="normal" in2="BackgroundImageFix" result="effect1_dropShadow"/>
<feBlend mode="normal" in="SourceGraphic" in2="effect1_dropShadow" result="shape"/>
<feColorMatrix in="SourceAlpha" type="matrix" values="0 0 0 0 0 0 0 0 0 0 0 0 0 0 0 0 0 0 127 0" result="hardAlpha"/>
<feOffset dy="4"/>
<feGaussianBlur stdDeviation="2"/>
<feComposite in2="hardAlpha" operator="arithmetic" k2="-1" k3="1"/>
<feColorMatrix type="matrix" values="0 0 0 0 0 0 0 0 0 0 0 0 0 0 0 0 0 0 0.1 0"/>
<feBlend mode="normal" in2="shape" result="effect2_innerShadow"/>
</filter>
<filter id="filter4_di" x="7.62662" y="32.5576" width="26.0109" height="13.7642" filterUnits="userSpaceOnUse" color-interpolation-filters="sRGB">
<feFlood flood-opacity="0" result="BackgroundImageFix"/>
<feColorMatrix in="SourceAlpha" type="matrix" values="0 0 0 0 0 0 0 0 0 0 0 0 0 0 0 0 0 0 127 0"/>
<feOffset dy="1"/>
<feGaussianBlur stdDeviation="0.5"/>
<feColorMatrix type="matrix" values="0 0 0 0 0 0 0 0 0 0 0 0 0 0 0 0 0 0 0.1 0"/>
<feBlend mode="normal" in2="BackgroundImageFix" result="effect1_dropShadow"/>
<feBlend mode="normal" in="SourceGraphic" in2="effect1_dropShadow" result="shape"/>
<feColorMatrix in="SourceAlpha" type="matrix" values="0 0 0 0 0 0 0 0 0 0 0 0 0 0 0 0 0 0 127 0" result="hardAlpha"/>
<feOffset dy="4"/>
<feGaussianBlur stdDeviation="2"/>
<feComposite in2="hardAlpha" operator="arithmetic" k2="-1" k3="1"/>
<feColorMatrix type="matrix" values="0 0 0 0 0 0 0 0 0 0 0 0 0 0 0 0 0 0 0.1 0"/>
<feBlend mode="normal" in2="shape" result="effect2_innerShadow"/>
</filter>
<radialGradient id="paint0_radial" cx="0" cy="0" r="1" gradientUnits="userSpaceOnUse" gradientTransform="translate(36.8814 133.384) rotate(-90.4875) scale(135.524 104.035)">
<stop offset="0.453125" stop-color="#FFCC48"/>
<stop offset="0.874464" stop-color="#F29F23"/>
</radialGradient>
<radialGradient id="paint1_radial" cx="0" cy="0" r="1" gradientUnits="userSpaceOnUse" gradientTransform="translate(36.9438 51.3503) rotate(-90.0779) scale(45.8916 35.1964)">
<stop offset="0.140625" stop-color="white"/>
<stop offset="0.473958" stop-color="white" stop-opacity="0"/>
</radialGradient>
<radialGradient id="paint2_radial" cx="0" cy="0" r="1" gradientUnits="userSpaceOnUse" gradientTransform="translate(38.7997 36.6686) rotate(-90) scale(28.4142 26.3078)">
<stop stop-color="#DDA000"/>
<stop offset="1" stop-color="#D9A009"/>
</radialGradient>
<radialGradient id="paint3_radial" cx="0" cy="0" r="1" gradientUnits="userSpaceOnUse" gradientTransform="translate(21.5208 14.6824) rotate(-101.168) scale(7.62217 17.6008)">
<stop offset="0.453125" stop-color="#FFCC48"/>
<stop offset="0.874464" stop-color="#F29F23"/>
</radialGradient>
<radialGradient id="paint4_radial" cx="0" cy="0" r="1" gradientUnits="userSpaceOnUse" gradientTransform="translate(21.2856 15.2132) rotate(-95.0927) scale(6.9372 16.1785)">
<stop offset="0.140625" stop-color="white"/>
<stop offset="0.473958" stop-color="white" stop-opacity="0"/>
</radialGradient>
<radialGradient id="paint5_radial" cx="0" cy="0" r="1" gradientUnits="userSpaceOnUse" gradientTransform="translate(21.4013 22.0187) rotate(-100.736) scale(7.64352 21.237)">
<stop offset="0.453125" stop-color="#FFCC48"/>
<stop offset="0.874464" stop-color="#F29F23"/>
</radialGradient>
<radialGradient id="paint6_radial" cx="0" cy="0" r="1" gradientUnits="userSpaceOnUse" gradientTransform="translate(21.0914 22.5454) rotate(-93.3991) scale(6.93723 19.5754)">
<stop offset="0.140625" stop-color="white"/>
<stop offset="0.473958" stop-color="white" stop-opacity="0"/>
</radialGradient>
<radialGradient id="paint7_radial" cx="0" cy="0" r="1" gradientUnits="userSpaceOnUse" gradientTransform="translate(21.7839 30.9776) rotate(-100.889) scale(7.66619 24.489)">
<stop offset="0.453125" stop-color="#FFCC48"/>
<stop offset="0.874464" stop-color="#F29F23"/>
</radialGradient>
<radialGradient id="paint8_radial" cx="0" cy="0" r="1" gradientUnits="userSpaceOnUse" gradientTransform="translate(21.4118 31.5005) rotate(-92.4213) scale(6.93726 22.6399)">
<stop offset="0.140625" stop-color="white"/>
<stop offset="0.473958" stop-color="white" stop-opacity="0"/>
</radialGradient>
<radialGradient id="paint9_radial" cx="0" cy="0" r="1" gradientUnits="userSpaceOnUse" gradientTransform="translate(21.1421 39.4518) rotate(-101.373) scale(7.64049 20.7614)">
<stop offset="0.453125" stop-color="#FFCC48"/>
<stop offset="0.874464" stop-color="#F29F23"/>
</radialGradient>
<radialGradient id="paint10_radial" cx="0" cy="0" r="1" gradientUnits="userSpaceOnUse" gradientTransform="translate(20.8473 39.9823) rotate(-94.2014) scale(6.93723 19.1295)">
<stop offset="0.140625" stop-color="white"/>
<stop offset="0.473958" stop-color="white" stop-opacity="0"/>
</radialGradient>
<radialGradient id="paint11_radial" cx="0" cy="0" r="1" gradientUnits="userSpaceOnUse" gradientTransform="translate(26.6844 95.2798) rotate(-85.1925) scale(87.5487 48.3041)">
<stop stop-color="#FFCC48"/>
<stop offset="0.874464" stop-color="#F29F23"/>
</radialGradient>
<clipPath id="clip0">
<rect width="72" height="72" fill="white"/>
</clipPath>
</defs>
</svg>
