<svg  viewBox="0 0 72 72" fill="none" xmlns="http://www.w3.org/2000/svg">
<g clip-path="url(#clip0)">
<g filter="url(#filter0_iii)">
<path d="M10.1265 59.3503C10.9057 62.7415 23.7275 58.7214 25.678 58.7214C27.6285 58.7214 28.5575 58.6512 30.8751 60.8284C33.1928 63.0055 41.0587 62.7948 43.2358 63.7781C45.413 64.7613 52.2126 64.3534 56.7074 61.8251C61.2023 59.2967 58.9376 30.4793 58.9376 30.4793C58.9376 30.4793 46.1146 29.7157 44.2184 28.3813C42.3221 27.0469 44.7802 19.2512 44.2184 15.5992C43.6565 11.9471 38.8808 5.4858 34.8073 8.01413C30.7339 10.5425 32.6302 13.2815 33.0516 22.2712C33.2448 26.3942 29.3995 27.4683 24.0619 33.7189C22.8664 33.9363 10.9847 36.1266 8.45145 37.1217C5.91825 38.1168 6.99244 41.103 8.0483 47.8927" fill="url(#paint0_radial)"/>
<path d="M10.1265 59.3503C10.9057 62.7415 23.7275 58.7214 25.678 58.7214C27.6285 58.7214 28.5575 58.6512 30.8751 60.8284C33.1928 63.0055 41.0587 62.7948 43.2358 63.7781C45.413 64.7613 52.2126 64.3534 56.7074 61.8251C61.2023 59.2967 58.9376 30.4793 58.9376 30.4793C58.9376 30.4793 46.1146 29.7157 44.2184 28.3813C42.3221 27.0469 44.7802 19.2512 44.2184 15.5992C43.6565 11.9471 38.8808 5.4858 34.8073 8.01413C30.7339 10.5425 32.6302 13.2815 33.0516 22.2712C33.2448 26.3942 29.3995 27.4683 24.0619 33.7189C22.8664 33.9363 10.9847 36.1266 8.45145 37.1217C5.91825 38.1168 6.99244 41.103 8.0483 47.8927" fill="url(#paint1_radial)" fill-opacity="0.31"/>
</g>
<path d="M58.9376 30.4793L59.436 30.4401L59.4019 30.0061L58.9673 29.9802L58.9376 30.4793ZM33.0516 22.2712L33.551 22.2478L33.0516 22.2712ZM24.0619 33.7189L24.1513 34.2109L24.3265 34.179L24.4421 34.0436L24.0619 33.7189ZM44.5061 27.9724C44.3868 27.8884 44.267 27.7292 44.1716 27.4414C44.0763 27.1539 44.0183 26.776 43.9969 26.3117C43.954 25.3818 44.0608 24.205 44.2144 22.9187C44.3659 21.6506 44.564 20.2688 44.6864 18.9973C44.8088 17.7268 44.8631 16.5019 44.7126 15.5231L43.7242 15.6752C43.8545 16.5225 43.8123 17.6415 43.691 18.9015C43.5698 20.1605 43.3773 21.4959 43.2215 22.8C43.0679 24.0859 42.9508 25.3365 42.9979 26.3578C43.0215 26.869 43.087 27.3476 43.2224 27.7561C43.3577 28.1643 43.5759 28.5406 43.9306 28.7902L44.5061 27.9724ZM44.7126 15.5231C44.4124 13.572 43.016 10.95 41.1815 9.13369C40.2596 8.22093 39.1945 7.47855 38.0603 7.13997C36.9094 6.79642 35.6967 6.87364 34.5437 7.58931L35.071 8.43895C35.9547 7.89046 36.8665 7.82722 37.7743 8.09819C38.6987 8.37414 39.6264 9.00128 40.4779 9.84431C42.1901 11.5395 43.4625 13.9742 43.7242 15.6752L44.7126 15.5231ZM58.9376 30.4793C58.9673 29.9802 58.9673 29.9802 58.9672 29.9802C58.9671 29.9802 58.967 29.9802 58.9668 29.9802C58.9664 29.9801 58.9659 29.9801 58.9651 29.9801C58.9636 29.98 58.9614 29.9798 58.9584 29.9797C58.9523 29.9793 58.9432 29.9787 58.9312 29.978C58.9071 29.9765 58.8713 29.9743 58.8244 29.9714C58.7306 29.9655 58.5925 29.9567 58.4159 29.945C58.0629 29.9216 57.556 29.8867 56.9418 29.8406C55.7129 29.7483 54.0558 29.6116 52.3407 29.4334C50.6239 29.255 48.8568 29.0359 47.4051 28.7797C46.6788 28.6515 46.04 28.5155 45.5297 28.373C45.0033 28.226 44.6679 28.0862 44.5061 27.9724L43.9306 28.7902C44.2429 29.01 44.723 29.186 45.2608 29.3362C45.8148 29.4909 46.4889 29.6334 47.2313 29.7645C48.7173 30.0267 50.5115 30.2487 52.2374 30.428C53.965 30.6075 55.6322 30.7451 56.8669 30.8377C57.4845 30.8841 57.9942 30.9192 58.3498 30.9428C58.5276 30.9546 58.6669 30.9635 58.7618 30.9694C58.8093 30.9724 58.8457 30.9747 58.8702 30.9762C58.8825 30.9769 58.8919 30.9775 58.8982 30.9778C58.9013 30.978 58.9037 30.9782 58.9053 30.9783C58.9061 30.9783 58.9067 30.9784 58.9072 30.9784C58.9074 30.9784 58.9075 30.9784 58.9076 30.9784C58.9078 30.9784 58.9078 30.9784 58.9376 30.4793ZM34.5437 7.58931C33.4762 8.25189 32.7536 8.95719 32.3109 9.81498C31.8701 10.6693 31.7348 11.6216 31.7439 12.7238C31.753 13.8182 31.9064 15.1139 32.0784 16.6618C32.2515 18.2198 32.4476 20.0637 32.5521 22.2946L33.551 22.2478C33.4449 19.9838 33.2459 18.1142 33.0723 16.5513C32.8975 14.9783 32.7524 13.7456 32.7439 12.7155C32.7354 11.6932 32.8635 10.9248 33.1996 10.2736C33.5339 9.62575 34.1018 9.04055 35.071 8.43895L34.5437 7.58931ZM32.5521 22.2946C32.6386 24.1397 31.8523 25.307 30.2817 26.8393C28.7171 28.3657 26.3687 30.2475 23.6817 33.3942L24.4421 34.0436C27.0927 30.9397 29.3357 29.1592 30.98 27.5551C32.6181 25.9569 33.6578 24.5257 33.551 22.2478L32.5521 22.2946ZM56.9526 62.2608C57.6812 61.851 58.1887 60.9719 58.5646 59.9206C58.9495 58.8441 59.2355 57.4726 59.4475 55.9287C59.8719 52.8375 60.0102 48.9714 60.0081 45.2038C60.0059 41.4321 59.8629 37.7418 59.7205 34.9957C59.6493 33.6222 59.5783 32.4841 59.525 31.6891C59.4983 31.2915 59.4761 30.9797 59.4606 30.7671C59.4528 30.6608 59.4467 30.5792 59.4425 30.5242C59.4404 30.4967 59.4388 30.4758 59.4377 30.4617C59.4372 30.4546 59.4367 30.4493 59.4365 30.4457C59.4363 30.4439 59.4362 30.4425 59.4361 30.4416C59.4361 30.4412 59.4361 30.4408 59.4361 30.4405C59.436 30.4403 59.436 30.4401 58.9376 30.4793C58.4391 30.5185 58.4391 30.5186 58.4391 30.5187C58.4391 30.5189 58.4392 30.5192 58.4392 30.5196C58.4393 30.5205 58.4394 30.5217 58.4395 30.5234C58.4398 30.5268 58.4401 30.5319 58.4407 30.5387C58.4417 30.5524 58.4433 30.5729 58.4454 30.5999C58.4495 30.6541 58.4555 30.7347 58.4632 30.8401C58.4787 31.0508 58.5007 31.3606 58.5272 31.7559C58.5802 32.5467 58.651 33.6797 58.7219 35.0474C58.8637 37.7835 59.0059 41.4556 59.0081 45.2043C59.0102 48.9571 58.8719 52.7694 58.4568 55.7926C58.249 57.3059 57.9746 58.6005 57.623 59.5839C57.2623 60.5925 56.8574 61.167 56.4623 61.3893L56.9526 62.2608ZM9.63919 59.4623C9.77817 60.0671 10.1886 60.4809 10.7147 60.7441C11.2271 61.0005 11.8734 61.1292 12.5737 61.1813C13.9778 61.286 15.7631 61.0928 17.5439 60.801C19.3323 60.508 21.1551 60.1085 22.6411 59.7851C23.387 59.6228 24.0444 59.4805 24.5759 59.3786C25.1217 59.2739 25.4893 59.2214 25.678 59.2214V58.2214C25.379 58.2214 24.9193 58.2945 24.3876 58.3965C23.8415 58.5012 23.1711 58.6464 22.4285 58.808C20.9374 59.1325 19.1404 59.5261 17.3822 59.8142C15.6162 60.1035 13.9281 60.2795 12.648 60.1841C12.0063 60.1363 11.5077 60.0227 11.1622 59.8498C10.8303 59.6838 10.6696 59.4813 10.6138 59.2383L9.63919 59.4623ZM25.678 59.2214C26.6789 59.2214 27.3083 59.2092 27.9811 59.4329C28.6462 59.654 29.3951 60.124 30.5328 61.1928L31.2175 60.4639C30.0376 59.3555 29.1631 58.772 28.2966 58.484C27.438 58.1985 26.6276 58.2214 25.678 58.2214V59.2214ZM30.5328 61.1928C31.2041 61.8234 32.2287 62.2444 33.3455 62.5516C34.4761 62.8625 35.7716 63.0745 37.0411 63.2464C38.3463 63.4232 39.5428 63.5484 40.642 63.7036C41.7321 63.8576 42.5611 64.022 43.0301 64.2338L43.4416 63.3224C42.822 63.0426 41.8513 62.8645 40.7818 62.7135C39.7214 62.5637 38.3984 62.4211 37.1753 62.2555C35.9165 62.085 34.6748 61.88 33.6107 61.5874C32.5328 61.291 31.705 60.9219 31.2175 60.4639L30.5328 61.1928ZM43.0301 64.2338C43.6569 64.5169 44.5618 64.6806 45.5974 64.7424C46.6448 64.8049 47.8689 64.7655 49.1604 64.6151C51.7371 64.3149 54.6301 63.5672 56.9526 62.2608L56.4623 61.3893C54.2899 62.6112 51.5358 63.3316 49.0447 63.6218C47.8022 63.7665 46.6373 63.8027 45.657 63.7442C44.6649 63.6849 43.9034 63.5309 43.4416 63.3224L43.0301 64.2338ZM23.9725 33.227C23.3729 33.336 20.0999 33.9386 16.6586 34.6387C14.9383 34.9887 13.1728 35.3637 11.6772 35.714C10.1938 36.0614 8.94102 36.3922 8.26864 36.6563L8.63427 37.5871C9.22849 37.3537 10.4109 37.0376 11.9052 36.6876C13.3872 36.3405 15.1419 35.9678 16.858 35.6186C20.2898 34.9205 23.5554 34.3192 24.1513 34.2109L23.9725 33.227ZM8.26864 36.6563C7.53223 36.9456 7.01631 37.4022 6.71608 38.0628C6.42786 38.6971 6.36128 39.4711 6.40457 40.3586C6.44811 41.2512 6.60706 42.3186 6.8165 43.5679C7.0276 44.8272 7.29078 46.2754 7.55424 47.9695L8.54236 47.8159C8.27789 46.1152 8.01085 44.644 7.80274 43.4026C7.59297 42.1513 7.44373 41.1369 7.40339 40.3099C7.3628 39.4778 7.43665 38.8943 7.62649 38.4766C7.80432 38.0852 8.10407 37.7954 8.63427 37.5871L8.26864 36.6563ZM7.55424 47.9695C8.61079 54.7637 8.85603 56.0539 9.63919 59.4623L10.6138 59.2383C9.83849 55.8642 9.59752 54.6011 8.54236 47.8159L7.55424 47.9695Z" fill="url(#paint2_radial)"/>
<g filter="url(#filter1_di)">
<path d="M40.8247 60.7364C41.2469 63.259 43.8179 64.9731 46.5973 64.585L56.0588 63.7812C58.6985 63.8765 60.9571 62.0013 61.1035 59.5925C61.25 57.1837 59.2288 55.1537 56.5891 55.0582C56.1659 55.043 55.7416 55.079 55.327 55.1654L45.8655 55.9692C43.0603 56.0555 40.8153 58.1787 40.8247 60.7364Z" fill="url(#paint3_radial)"/>
<path d="M40.8247 60.7364C41.2469 63.259 43.8179 64.9731 46.5973 64.585L56.0588 63.7812C58.6985 63.8765 60.9571 62.0013 61.1035 59.5925C61.25 57.1837 59.2288 55.1537 56.5891 55.0582C56.1659 55.043 55.7416 55.079 55.327 55.1654L45.8655 55.9692C43.0603 56.0555 40.8153 58.1787 40.8247 60.7364Z" fill="url(#paint4_radial)" fill-opacity="0.31"/>
</g>
<g filter="url(#filter2_di)">
<path d="M38.7925 53.2174C39.0941 55.7541 41.1028 57.5732 43.3025 57.302L59.3348 56.4302C61.4182 56.6359 63.2253 54.8578 63.3713 52.4586C63.5173 50.0593 61.9468 47.9477 59.8634 47.7419C59.5294 47.709 59.1939 47.7272 58.8655 47.7962L42.8332 48.6679C40.6169 48.6368 38.8173 50.663 38.7925 53.2174Z" fill="url(#paint5_radial)"/>
<path d="M38.7925 53.2174C39.0941 55.7541 41.1028 57.5732 43.3025 57.302L59.3348 56.4302C61.4182 56.6359 63.2253 54.8578 63.3713 52.4586C63.5173 50.0593 61.9468 47.9477 59.8634 47.7419C59.5294 47.709 59.1939 47.7272 58.8655 47.7962L42.8332 48.6679C40.6169 48.6368 38.8173 50.663 38.7925 53.2174Z" fill="url(#paint6_radial)" fill-opacity="0.31"/>
</g>
<g filter="url(#filter3_di)">
<path d="M36.4961 44.1156C36.7499 46.6573 38.6976 48.5131 40.8691 48.2823L60.8924 47.5517C62.9411 47.7956 64.7516 46.0511 64.9363 43.655C65.121 41.2589 63.6099 39.1188 61.5612 38.8748C61.2327 38.8357 60.9019 38.8478 60.5772 38.9107L40.5539 39.6413C38.3713 39.5694 36.564 41.5621 36.4961 44.1156Z" fill="url(#paint7_radial)"/>
<path d="M36.4961 44.1156C36.7499 46.6573 38.6976 48.5131 40.8691 48.2823L60.8924 47.5517C62.9411 47.7956 64.7516 46.0511 64.9363 43.655C65.121 41.2589 63.6099 39.1188 61.5612 38.8748C61.2327 38.8357 60.9019 38.8478 60.5772 38.9107L40.5539 39.6413C38.3713 39.5694 36.564 41.5621 36.4961 44.1156Z" fill="url(#paint8_radial)" fill-opacity="0.31"/>
</g>
<g filter="url(#filter4_di)">
<path d="M39.3625 35.9321C39.7113 38.4635 41.8792 40.245 44.23 39.932L59.0884 38.9136C61.3196 39.0798 63.2348 37.2673 63.3662 34.8649C63.4977 32.4626 61.7956 30.3803 59.5644 30.2139C59.2067 30.1873 58.848 30.2118 58.4973 30.287L43.6388 31.3055C41.2672 31.3162 39.3627 33.3768 39.3625 35.9321Z" fill="url(#paint9_radial)"/>
<path d="M39.3625 35.9321C39.7113 38.4635 41.8792 40.245 44.23 39.932L59.0884 38.9136C61.3196 39.0798 63.2348 37.2673 63.3662 34.8649C63.4977 32.4626 61.7956 30.3803 59.5644 30.2139C59.2067 30.1873 58.848 30.2118 58.4973 30.287L43.6388 31.3055C41.2672 31.3162 39.3627 33.3768 39.3625 35.9321Z" fill="url(#paint10_radial)" fill-opacity="0.31"/>
</g>
<path opacity="0.19" d="M48.3899 62.2613C48.3899 66.8526 42.0501 63.4706 39.5776 63.4706C38.8732 63.4706 37.1983 62.6921 37.1983 59.7857C37.1983 56.8792 35.8743 54.0102 36.5141 52.1563C37.6526 48.8571 35.6115 47.0354 35.4438 45.3054C34.9643 40.3585 37.0446 40.1517 37.1983 38.5064C36.128 36.2747 36.6093 34.5956 36.9311 33.8353C38.8952 29.195 44.1366 31.5526 46.0061 31.5526C48.4787 31.5526 48.3899 57.6701 48.3899 62.2613Z" fill="url(#paint11_radial)"/>
</g>
<defs>
<filter id="filter0_iii" x="6.39252" y="6.94244" width="57.6156" height="62.8284" filterUnits="userSpaceOnUse" color-interpolation-filters="sRGB">
<feFlood flood-opacity="0" result="BackgroundImageFix"/>
<feBlend mode="normal" in="SourceGraphic" in2="BackgroundImageFix" result="shape"/>
<feColorMatrix in="SourceAlpha" type="matrix" values="0 0 0 0 0 0 0 0 0 0 0 0 0 0 0 0 0 0 127 0" result="hardAlpha"/>
<feOffset dy="4"/>
<feGaussianBlur stdDeviation="2"/>
<feComposite in2="hardAlpha" operator="arithmetic" k2="-1" k3="1"/>
<feColorMatrix type="matrix" values="0 0 0 0 0 0 0 0 0 0 0 0 0 0 0 0 0 0 0.1 0"/>
<feBlend mode="normal" in2="shape" result="effect1_innerShadow"/>
<feColorMatrix in="SourceAlpha" type="matrix" values="0 0 0 0 0 0 0 0 0 0 0 0 0 0 0 0 0 0 127 0" result="hardAlpha"/>
<feOffset dx="3" dy="2"/>
<feGaussianBlur stdDeviation="5"/>
<feComposite in2="hardAlpha" operator="arithmetic" k2="-1" k3="1"/>
<feColorMatrix type="matrix" values="0 0 0 0 0.858333 0 0 0 0 0.675008 0 0 0 0 0.0250347 0 0 0 1 0"/>
<feBlend mode="normal" in2="effect1_innerShadow" result="effect2_innerShadow"/>
<feColorMatrix in="SourceAlpha" type="matrix" values="0 0 0 0 0 0 0 0 0 0 0 0 0 0 0 0 0 0 127 0" result="hardAlpha"/>
<feOffset dx="4" dy="6"/>
<feGaussianBlur stdDeviation="2.5"/>
<feComposite in2="hardAlpha" operator="arithmetic" k2="-1" k3="1"/>
<feColorMatrix type="matrix" values="0 0 0 0 0.920833 0 0 0 0 0.642963 0 0 0 0 0.0767361 0 0 0 0.72 0"/>
<feBlend mode="normal" in2="effect2_innerShadow" result="effect3_innerShadow"/>
</filter>
<filter id="filter1_di" x="39.8247" y="55.0548" width="22.2863" height="13.5849" filterUnits="userSpaceOnUse" color-interpolation-filters="sRGB">
<feFlood flood-opacity="0" result="BackgroundImageFix"/>
<feColorMatrix in="SourceAlpha" type="matrix" values="0 0 0 0 0 0 0 0 0 0 0 0 0 0 0 0 0 0 127 0"/>
<feOffset dy="1"/>
<feGaussianBlur stdDeviation="0.5"/>
<feColorMatrix type="matrix" values="0 0 0 0 0 0 0 0 0 0 0 0 0 0 0 0 0 0 0.1 0"/>
<feBlend mode="normal" in2="BackgroundImageFix" result="effect1_dropShadow"/>
<feBlend mode="normal" in="SourceGraphic" in2="effect1_dropShadow" result="shape"/>
<feColorMatrix in="SourceAlpha" type="matrix" values="0 0 0 0 0 0 0 0 0 0 0 0 0 0 0 0 0 0 127 0" result="hardAlpha"/>
<feOffset dy="4"/>
<feGaussianBlur stdDeviation="2"/>
<feComposite in2="hardAlpha" operator="arithmetic" k2="-1" k3="1"/>
<feColorMatrix type="matrix" values="0 0 0 0 0 0 0 0 0 0 0 0 0 0 0 0 0 0 0.1 0"/>
<feBlend mode="normal" in2="shape" result="effect2_innerShadow"/>
</filter>
<filter id="filter2_di" x="37.7925" y="47.726" width="26.5882" height="13.6027" filterUnits="userSpaceOnUse" color-interpolation-filters="sRGB">
<feFlood flood-opacity="0" result="BackgroundImageFix"/>
<feColorMatrix in="SourceAlpha" type="matrix" values="0 0 0 0 0 0 0 0 0 0 0 0 0 0 0 0 0 0 127 0"/>
<feOffset dy="1"/>
<feGaussianBlur stdDeviation="0.5"/>
<feColorMatrix type="matrix" values="0 0 0 0 0 0 0 0 0 0 0 0 0 0 0 0 0 0 0.1 0"/>
<feBlend mode="normal" in2="BackgroundImageFix" result="effect1_dropShadow"/>
<feBlend mode="normal" in="SourceGraphic" in2="effect1_dropShadow" result="shape"/>
<feColorMatrix in="SourceAlpha" type="matrix" values="0 0 0 0 0 0 0 0 0 0 0 0 0 0 0 0 0 0 127 0" result="hardAlpha"/>
<feOffset dy="4"/>
<feGaussianBlur stdDeviation="2"/>
<feComposite in2="hardAlpha" operator="arithmetic" k2="-1" k3="1"/>
<feColorMatrix type="matrix" values="0 0 0 0 0 0 0 0 0 0 0 0 0 0 0 0 0 0 0.1 0"/>
<feBlend mode="normal" in2="shape" result="effect2_innerShadow"/>
</filter>
<filter id="filter3_di" x="35.4961" y="38.8524" width="30.4555" height="13.4493" filterUnits="userSpaceOnUse" color-interpolation-filters="sRGB">
<feFlood flood-opacity="0" result="BackgroundImageFix"/>
<feColorMatrix in="SourceAlpha" type="matrix" values="0 0 0 0 0 0 0 0 0 0 0 0 0 0 0 0 0 0 127 0"/>
<feOffset dy="1"/>
<feGaussianBlur stdDeviation="0.5"/>
<feColorMatrix type="matrix" values="0 0 0 0 0 0 0 0 0 0 0 0 0 0 0 0 0 0 0.1 0"/>
<feBlend mode="normal" in2="BackgroundImageFix" result="effect1_dropShadow"/>
<feBlend mode="normal" in="SourceGraphic" in2="effect1_dropShadow" result="shape"/>
<feColorMatrix in="SourceAlpha" type="matrix" values="0 0 0 0 0 0 0 0 0 0 0 0 0 0 0 0 0 0 127 0" result="hardAlpha"/>
<feOffset dy="4"/>
<feGaussianBlur stdDeviation="2"/>
<feComposite in2="hardAlpha" operator="arithmetic" k2="-1" k3="1"/>
<feColorMatrix type="matrix" values="0 0 0 0 0 0 0 0 0 0 0 0 0 0 0 0 0 0 0.1 0"/>
<feBlend mode="normal" in2="shape" result="effect2_innerShadow"/>
</filter>
<filter id="filter4_di" x="38.3625" y="30.2035" width="26.0109" height="13.7642" filterUnits="userSpaceOnUse" color-interpolation-filters="sRGB">
<feFlood flood-opacity="0" result="BackgroundImageFix"/>
<feColorMatrix in="SourceAlpha" type="matrix" values="0 0 0 0 0 0 0 0 0 0 0 0 0 0 0 0 0 0 127 0"/>
<feOffset dy="1"/>
<feGaussianBlur stdDeviation="0.5"/>
<feColorMatrix type="matrix" values="0 0 0 0 0 0 0 0 0 0 0 0 0 0 0 0 0 0 0.1 0"/>
<feBlend mode="normal" in2="BackgroundImageFix" result="effect1_dropShadow"/>
<feBlend mode="normal" in="SourceGraphic" in2="effect1_dropShadow" result="shape"/>
<feColorMatrix in="SourceAlpha" type="matrix" values="0 0 0 0 0 0 0 0 0 0 0 0 0 0 0 0 0 0 127 0" result="hardAlpha"/>
<feOffset dy="4"/>
<feGaussianBlur stdDeviation="2"/>
<feComposite in2="hardAlpha" operator="arithmetic" k2="-1" k3="1"/>
<feColorMatrix type="matrix" values="0 0 0 0 0 0 0 0 0 0 0 0 0 0 0 0 0 0 0.1 0"/>
<feBlend mode="normal" in2="shape" result="effect2_innerShadow"/>
</filter>
<radialGradient id="paint0_radial" cx="0" cy="0" r="1" gradientUnits="userSpaceOnUse" gradientTransform="translate(35.1185 -60.8585) rotate(89.5125) scale(135.524 104.035)">
<stop offset="0.453125" stop-color="#FFCC48"/>
<stop offset="0.874464" stop-color="#F29F23"/>
</radialGradient>
<radialGradient id="paint1_radial" cx="0" cy="0" r="1" gradientUnits="userSpaceOnUse" gradientTransform="translate(35.0562 21.175) rotate(89.9221) scale(45.8916 35.1964)">
<stop offset="0.140625" stop-color="white"/>
<stop offset="0.473958" stop-color="white" stop-opacity="0"/>
</radialGradient>
<radialGradient id="paint2_radial" cx="0" cy="0" r="1" gradientUnits="userSpaceOnUse" gradientTransform="translate(33.2003 35.8566) rotate(90) scale(28.4142 26.3078)">
<stop stop-color="#DDA000"/>
<stop offset="1" stop-color="#D9A009"/>
</radialGradient>
<radialGradient id="paint3_radial" cx="0" cy="0" r="1" gradientUnits="userSpaceOnUse" gradientTransform="translate(50.4792 57.8429) rotate(78.8321) scale(7.62217 17.6008)">
<stop offset="0.453125" stop-color="#FFCC48"/>
<stop offset="0.874464" stop-color="#F29F23"/>
</radialGradient>
<radialGradient id="paint4_radial" cx="0" cy="0" r="1" gradientUnits="userSpaceOnUse" gradientTransform="translate(50.7144 57.312) rotate(84.9073) scale(6.9372 16.1785)">
<stop offset="0.140625" stop-color="white"/>
<stop offset="0.473958" stop-color="white" stop-opacity="0"/>
</radialGradient>
<radialGradient id="paint5_radial" cx="0" cy="0" r="1" gradientUnits="userSpaceOnUse" gradientTransform="translate(50.5987 50.5065) rotate(79.2643) scale(7.64352 21.237)">
<stop offset="0.453125" stop-color="#FFCC48"/>
<stop offset="0.874464" stop-color="#F29F23"/>
</radialGradient>
<radialGradient id="paint6_radial" cx="0" cy="0" r="1" gradientUnits="userSpaceOnUse" gradientTransform="translate(50.9086 49.9798) rotate(86.6009) scale(6.93723 19.5754)">
<stop offset="0.140625" stop-color="white"/>
<stop offset="0.473958" stop-color="white" stop-opacity="0"/>
</radialGradient>
<radialGradient id="paint7_radial" cx="0" cy="0" r="1" gradientUnits="userSpaceOnUse" gradientTransform="translate(50.2161 41.5477) rotate(79.111) scale(7.66619 24.489)">
<stop offset="0.453125" stop-color="#FFCC48"/>
<stop offset="0.874464" stop-color="#F29F23"/>
</radialGradient>
<radialGradient id="paint8_radial" cx="0" cy="0" r="1" gradientUnits="userSpaceOnUse" gradientTransform="translate(50.5882 41.0247) rotate(87.5787) scale(6.93726 22.6399)">
<stop offset="0.140625" stop-color="white"/>
<stop offset="0.473958" stop-color="white" stop-opacity="0"/>
</radialGradient>
<radialGradient id="paint9_radial" cx="0" cy="0" r="1" gradientUnits="userSpaceOnUse" gradientTransform="translate(50.8579 33.0734) rotate(78.6272) scale(7.64049 20.7614)">
<stop offset="0.453125" stop-color="#FFCC48"/>
<stop offset="0.874464" stop-color="#F29F23"/>
</radialGradient>
<radialGradient id="paint10_radial" cx="0" cy="0" r="1" gradientUnits="userSpaceOnUse" gradientTransform="translate(51.1527 32.543) rotate(85.7986) scale(6.93723 19.1295)">
<stop offset="0.140625" stop-color="white"/>
<stop offset="0.473958" stop-color="white" stop-opacity="0"/>
</radialGradient>
<radialGradient id="paint11_radial" cx="0" cy="0" r="1" gradientUnits="userSpaceOnUse" gradientTransform="translate(45.3156 -22.7546) rotate(94.8075) scale(87.5487 48.3041)">
<stop stop-color="#FFCC48"/>
<stop offset="0.874464" stop-color="#F29F23"/>
</radialGradient>
<clipPath id="clip0">
<rect width="72" height="72" fill="white"/>
</clipPath>
</defs>
</svg>
