<svg  viewBox="0 0 72 72" fill="none" xmlns="http://www.w3.org/2000/svg">
<g clip-path="url(#clip0)">
<g filter="url(#filter0_i)">
<path d="M36.0001 58.9999C48.7026 58.9999 59 48.7025 59 36C59 23.2975 48.7026 13.0001 36.0001 13.0001C23.2976 13.0001 13.0002 23.2975 13.0002 36C13.0002 48.7025 23.2976 58.9999 36.0001 58.9999Z" fill="url(#paint0_radial)"/>
<path d="M36.0001 58.9999C48.7026 58.9999 59 48.7025 59 36C59 23.2975 48.7026 13.0001 36.0001 13.0001C23.2976 13.0001 13.0002 23.2975 13.0002 36C13.0002 48.7025 23.2976 58.9999 36.0001 58.9999Z" fill="url(#paint1_radial)" fill-opacity="0.31"/>
</g>
<path d="M36 59C48.7025 59 59 48.7025 59 36C59 23.2975 48.7025 13 36 13C23.2975 13 13 23.2975 13 36C13 48.7025 23.2975 59 36 59Z" stroke="#F5CC60" stroke-width="0.5" stroke-linecap="round" stroke-linejoin="round"/>
<path d="M45.8147 45.2268C43.0513 47.505 39.5814 48.7508 36 48.7508C32.4186 48.7508 28.9487 47.505 26.1853 45.2268" stroke="black" stroke-width="2" stroke-linecap="round" stroke-linejoin="round"/>
<path d="M31.6941 33.4036C31.3229 32.568 30.7172 31.8581 29.9506 31.3598C29.184 30.8615 28.2893 30.5963 27.375 30.5963C26.4607 30.5963 25.566 30.8615 24.7994 31.3598C24.0328 31.8581 23.4271 32.568 23.0559 33.4036" stroke="black" stroke-width="2" stroke-miterlimit="10" stroke-linecap="round"/>
<path d="M48.9441 33.4036C48.5729 32.568 47.9672 31.8581 47.2006 31.3598C46.434 30.8615 45.5393 30.5963 44.625 30.5963C43.7107 30.5963 42.816 30.8615 42.0494 31.3598C41.2828 31.8581 40.6771 32.568 40.3059 33.4036" stroke="black" stroke-width="2" stroke-miterlimit="10" stroke-linecap="round"/>
</g>
<defs>
<filter id="filter0_i" x="13.0002" y="13.0001" width="45.9998" height="48.1934" filterUnits="userSpaceOnUse" color-interpolation-filters="sRGB">
<feFlood flood-opacity="0" result="BackgroundImageFix"/>
<feBlend mode="normal" in="SourceGraphic" in2="BackgroundImageFix" result="shape"/>
<feColorMatrix in="SourceAlpha" type="matrix" values="0 0 0 0 0 0 0 0 0 0 0 0 0 0 0 0 0 0 127 0" result="hardAlpha"/>
<feOffset dy="2.19361"/>
<feGaussianBlur stdDeviation="1.09681"/>
<feComposite in2="hardAlpha" operator="arithmetic" k2="-1" k3="1"/>
<feColorMatrix type="matrix" values="0 0 0 0 0 0 0 0 0 0 0 0 0 0 0 0 0 0 0.1 0"/>
<feBlend mode="normal" in2="shape" result="effect1_innerShadow"/>
</filter>
<radialGradient id="paint0_radial" cx="0" cy="0" r="1" gradientUnits="userSpaceOnUse" gradientTransform="translate(35.3036 25.1053) rotate(87.2844) scale(39.9921)">
<stop offset="0.453125" stop-color="#FFCC48"/>
<stop offset="0.874464" stop-color="#F29F23"/>
</radialGradient>
<radialGradient id="paint1_radial" cx="0" cy="0" r="1" gradientUnits="userSpaceOnUse" gradientTransform="translate(35.9352 22.4211) rotate(89.8984) scale(36.5788)">
<stop offset="0.140625" stop-color="white"/>
<stop offset="0.473958" stop-color="white" stop-opacity="0"/>
</radialGradient>
<clipPath id="clip0">
<rect width="72" height="72" fill="white"/>
</clipPath>
</defs>
</svg>
