<svg  viewBox="0 0 72 72" fill="none" xmlns="http://www.w3.org/2000/svg">
<g filter="url(#filter0_i)">
<path d="M36 60C49.2548 60 60 49.2548 60 36C60 22.7452 49.2548 12 36 12C22.7452 12 12 22.7452 12 36C12 49.2548 22.7452 60 36 60Z" fill="url(#paint0_radial)"/>
<path d="M36 60C49.2548 60 60 49.2548 60 36C60 22.7452 49.2548 12 36 12C22.7452 12 12 22.7452 12 36C12 49.2548 22.7452 60 36 60Z" fill="url(#paint1_radial)" fill-opacity="0.31"/>
</g>
<path d="M54.25 28.1758C53.6927 28.1761 53.1408 28.0665 52.6259 27.8534C52.1109 27.6403 51.643 27.3278 51.2488 26.9338C50.8547 26.5398 50.5421 26.072 50.3288 25.5571C50.1155 25.0423 50.0057 24.4904 50.0058 23.9331C50.0058 19.7305 54.2168 15.4712 54.2588 15.4287C54.4131 15.6016 58.4931 19.7515 58.4931 23.9326C58.4934 24.4899 58.3838 25.0418 58.1707 25.5567C57.9576 26.0717 57.645 26.5395 57.251 26.9336C56.8569 27.3277 56.389 27.6402 55.8741 27.8534C55.3592 28.0665 54.8073 28.1761 54.25 28.1758Z" fill="#92D3F5"/>
<path d="M50.595 41.64C50.607 43.1797 50.3112 44.7062 49.725 46.13C37.235 49.16 24.295 46.47 22.235 46C21.6762 44.6148 21.3942 43.1336 21.405 41.64H21.515C21.515 41.64 36.315 45.23 50.405 41.71L50.595 41.64Z" fill="white"/>
<path d="M49.7251 46.13C47.9351 50.4 43.3751 53.36 36.0351 53.36C28.6251 53.36 24.0051 50.33 22.2351 46C24.2951 46.47 37.235 49.16 49.7251 46.13Z" fill="#EA5A47"/>
<path d="M54.25 28.1758C53.6927 28.1761 53.1408 28.0665 52.6259 27.8534C52.1109 27.6403 51.643 27.3278 51.2488 26.9338C50.8547 26.5398 50.5421 26.072 50.3288 25.5571C50.1155 25.0423 50.0057 24.4904 50.0058 23.9331C50.0058 19.7305 54.2168 15.4712 54.2588 15.4287C54.4131 15.6016 58.4931 19.7515 58.4931 23.9326C58.4934 24.4899 58.3838 25.0418 58.1707 25.5567C57.9576 26.0717 57.645 26.5395 57.251 26.9336C56.8569 27.3277 56.389 27.6402 55.8741 27.8534C55.3592 28.0665 54.8073 28.1761 54.25 28.1758V28.1758Z" stroke="black" stroke-width="2" stroke-linejoin="round"/>
<path d="M48.6194 15.5819C43.9214 12.6841 38.3668 11.4974 32.8947 12.2224C27.4227 12.9475 22.3688 15.5399 18.5876 19.5613C14.8064 23.5827 12.5298 28.7864 12.1426 34.2927C11.7555 39.799 13.2816 45.2701 16.4629 49.781C19.6443 54.292 24.2857 57.566 29.6025 59.0496C34.9193 60.5332 40.5852 60.1354 45.6426 57.9234C50.6999 55.7114 54.8382 51.8209 57.358 46.9097C59.8778 41.9985 60.6245 36.3679 59.4717 30.9697" stroke="#F5CC60" stroke-width="0.5" stroke-linecap="round" stroke-linejoin="round"/>
<path d="M50.595 41.64C50.607 43.1797 50.3112 44.7062 49.725 46.13C37.235 49.16 24.295 46.47 22.235 46C21.6762 44.6148 21.3942 43.1336 21.405 41.64H21.515C21.515 41.64 36.315 45.23 50.405 41.71L50.595 41.64Z" stroke="black" stroke-width="2" stroke-linecap="round" stroke-linejoin="round"/>
<path d="M49.7251 46.13C47.9351 50.4 43.3751 53.36 36.0351 53.36C28.6251 53.36 24.0051 50.33 22.2351 46C24.2951 46.47 37.235 49.16 49.7251 46.13Z" stroke="black" stroke-width="2" stroke-linecap="round" stroke-linejoin="round"/>
<path d="M31.6941 33.4036C31.3229 32.568 30.7172 31.8581 29.9506 31.3598C29.184 30.8616 28.2893 30.5963 27.375 30.5963C26.4607 30.5963 25.566 30.8616 24.7994 31.3598C24.0328 31.8581 23.4271 32.568 23.0559 33.4036" stroke="black" stroke-width="2" stroke-miterlimit="10" stroke-linecap="round"/>
<path d="M48.9441 33.4036C48.5729 32.568 47.9672 31.8581 47.2006 31.3598C46.434 30.8616 45.5393 30.5963 44.625 30.5963C43.7107 30.5963 42.816 30.8616 42.0494 31.3598C41.2828 31.8581 40.6771 32.568 40.3059 33.4036" stroke="black" stroke-width="2" stroke-miterlimit="10" stroke-linecap="round"/>
<defs>
<filter id="filter0_i" x="12" y="12" width="48" height="50.1936" filterUnits="userSpaceOnUse" color-interpolation-filters="sRGB">
<feFlood flood-opacity="0" result="BackgroundImageFix"/>
<feBlend mode="normal" in="SourceGraphic" in2="BackgroundImageFix" result="shape"/>
<feColorMatrix in="SourceAlpha" type="matrix" values="0 0 0 0 0 0 0 0 0 0 0 0 0 0 0 0 0 0 127 0" result="hardAlpha"/>
<feOffset dy="2.19361"/>
<feGaussianBlur stdDeviation="1.09681"/>
<feComposite in2="hardAlpha" operator="arithmetic" k2="-1" k3="1"/>
<feColorMatrix type="matrix" values="0 0 0 0 0 0 0 0 0 0 0 0 0 0 0 0 0 0 0.1 0"/>
<feBlend mode="normal" in2="shape" result="effect1_innerShadow"/>
</filter>
<radialGradient id="paint0_radial" cx="0" cy="0" r="1" gradientUnits="userSpaceOnUse" gradientTransform="translate(35.2733 24.6316) rotate(87.2844) scale(41.7311)">
<stop offset="0.453125" stop-color="#FFCC48"/>
<stop offset="0.874464" stop-color="#F29F23"/>
</radialGradient>
<radialGradient id="paint1_radial" cx="0" cy="0" r="1" gradientUnits="userSpaceOnUse" gradientTransform="translate(35.9323 21.8307) rotate(89.8984) scale(38.1694)">
<stop offset="0.140625" stop-color="white"/>
<stop offset="0.473958" stop-color="white" stop-opacity="0"/>
</radialGradient>
</defs>
</svg>
