<svg  viewBox="0 0 72 72" fill="none" xmlns="http://www.w3.org/2000/svg">
<g filter="url(#filter0_i)">
<path d="M36 60C49.2548 60 60 49.2548 60 36C60 22.7452 49.2548 12 36 12C22.7452 12 12 22.7452 12 36C12 49.2548 22.7452 60 36 60Z" fill="url(#paint0_radial)"/>
<path d="M36 60C49.2548 60 60 49.2548 60 36C60 22.7452 49.2548 12 36 12C22.7452 12 12 22.7452 12 36C12 49.2548 22.7452 60 36 60Z" fill="url(#paint1_radial)" fill-opacity="0.31"/>
</g>
<path d="M50.595 41.64C50.607 43.1797 50.3112 44.7062 49.725 46.13C37.235 49.16 24.295 46.47 22.235 46C21.6762 44.6148 21.3943 43.1336 21.405 41.64H21.515C21.515 41.64 36.315 45.23 50.405 41.71L50.595 41.64Z" fill="white"/>
<path d="M49.7251 46.13C47.9351 50.4 43.3751 53.36 36.0351 53.36C28.6251 53.36 24.0051 50.33 22.2351 46C24.2951 46.47 37.235 49.16 49.7251 46.13Z" fill="#EA5A47"/>
<path d="M65.7563 47.3378C65.3624 47.7321 64.8947 48.0449 64.3799 48.2583C63.8651 48.4718 63.3133 48.5817 62.756 48.5818C62.1987 48.5819 61.6468 48.4722 61.132 48.2589C60.6171 48.0456 60.1493 47.7329 59.7553 47.3388C56.7835 44.3671 56.7494 38.3778 56.749 38.318C56.9804 38.3311 62.7998 38.3805 65.7563 41.337C66.1506 41.7309 66.4633 42.1986 66.6767 42.7134C66.8901 43.2283 67 43.7801 67 44.3374C67 44.8947 66.8901 45.4465 66.6767 45.9614C66.4633 46.4762 66.1506 46.9439 65.7563 47.3378Z" fill="#92D3F5"/>
<path d="M6.2392 47.3385C5.84492 46.9446 5.53212 46.4769 5.31867 45.9621C5.10521 45.4473 4.9953 44.8955 4.99519 44.3382C4.99509 43.7809 5.10481 43.229 5.31807 42.7141C5.53133 42.1992 5.84397 41.7314 6.2381 41.3374C9.2098 38.3657 15.1992 38.3315 15.2589 38.3311C15.2458 38.5625 15.1964 44.382 12.2399 47.3385C11.846 47.7327 11.3783 48.0455 10.8635 48.2589C10.3487 48.4723 9.79684 48.5821 9.23955 48.5821C8.68226 48.5821 8.13044 48.4723 7.61562 48.2589C7.1008 48.0455 6.63308 47.7327 6.2392 47.3385Z" fill="#92D3F5"/>
<path d="M60 33.2065C59.993 33.1477 59.986 33.0891 59.979 33.0305C59.2567 27.2047 56.4381 21.8411 52.0499 17.9416C47.6617 14.0421 42.004 11.8736 36.1336 11.841C30.2633 11.8084 24.5818 13.9141 20.1506 17.7646C15.7194 21.6152 12.8415 26.9472 12.0546 32.7647C12.0391 32.877 12.0141 33.0931 12 33.2059" stroke="#F5CC60" stroke-width="0.5" stroke-linecap="round" stroke-linejoin="round"/>
<path d="M16.2344 49.8961C18.4961 53.0341 21.4628 55.5976 24.8957 57.3802C28.3287 59.1628 32.1321 60.1149 36 60.1598C39.8527 60.1309 43.6443 59.1945 47.0676 57.4266C50.4908 55.6587 53.4492 53.109 55.703 49.9842" stroke="#F5CC60" stroke-width="0.5" stroke-linecap="round" stroke-linejoin="round"/>
<path d="M20.6948 28.2C21.4147 26.8148 22.6229 25.7458 24.0855 25.2C25.4905 24.5007 27.1058 24.3506 28.6155 24.7791" stroke="black" stroke-width="2" stroke-linecap="round" stroke-linejoin="round"/>
<path d="M51.3052 28.2C50.5347 26.8503 49.3476 25.7865 47.9217 25.1682C46.4958 24.5498 44.9079 24.4101 43.396 24.77" stroke="black" stroke-width="2" stroke-linecap="round" stroke-linejoin="round"/>
<path d="M50.595 41.64C50.607 43.1797 50.3112 44.7062 49.725 46.13C37.235 49.16 24.295 46.47 22.235 46C21.6762 44.6148 21.3943 43.1336 21.405 41.64H21.515C21.515 41.64 36.315 45.23 50.405 41.71L50.595 41.64Z" stroke="black" stroke-width="2" stroke-linecap="round" stroke-linejoin="round"/>
<path d="M49.7251 46.13C47.9351 50.4 43.3751 53.36 36.0351 53.36C28.6251 53.36 24.0051 50.33 22.2351 46C24.2951 46.47 37.235 49.16 49.7251 46.13Z" stroke="black" stroke-width="2" stroke-linecap="round" stroke-linejoin="round"/>
<path d="M65.7563 47.3378C65.3624 47.7321 64.8947 48.0449 64.3799 48.2583C63.8651 48.4718 63.3133 48.5817 62.756 48.5818C62.1987 48.5819 61.6468 48.4722 61.132 48.2589C60.6171 48.0456 60.1493 47.7329 59.7553 47.3388C56.7835 44.3671 56.7494 38.3778 56.749 38.318C56.9804 38.3311 62.7998 38.3805 65.7563 41.337C66.1506 41.7309 66.4633 42.1986 66.6767 42.7134C66.8901 43.2283 67 43.7801 67 44.3374C67 44.8947 66.8901 45.4465 66.6767 45.9614C66.4633 46.4762 66.1506 46.9439 65.7563 47.3378V47.3378Z" stroke="black" stroke-width="2" stroke-linejoin="round"/>
<path d="M6.2392 47.3385C5.84492 46.9446 5.53212 46.4769 5.31867 45.9621C5.10521 45.4473 4.9953 44.8955 4.99519 44.3382C4.99509 43.7809 5.10481 43.229 5.31807 42.7141C5.53133 42.1992 5.84397 41.7314 6.2381 41.3374C9.2098 38.3657 15.1992 38.3315 15.2589 38.3311C15.2458 38.5625 15.1964 44.382 12.2399 47.3385C11.846 47.7327 11.3783 48.0455 10.8635 48.2589C10.3487 48.4723 9.79684 48.5821 9.23955 48.5821C8.68226 48.5821 8.13044 48.4723 7.61562 48.2589C7.1008 48.0455 6.63308 47.7327 6.2392 47.3385V47.3385Z" stroke="black" stroke-width="2" stroke-linejoin="round"/>
<path d="M31.6941 35.1642C31.3228 34.3287 30.7172 33.6188 29.9506 33.1205C29.184 32.6223 28.2893 32.3571 27.375 32.3571C26.4607 32.3571 25.566 32.6223 24.7994 33.1205C24.0328 33.6188 23.4272 34.3287 23.0559 35.1642" stroke="black" stroke-width="2" stroke-miterlimit="10" stroke-linecap="round"/>
<path d="M48.9441 35.1642C48.5728 34.3287 47.9672 33.6188 47.2006 33.1205C46.434 32.6223 45.5393 32.3571 44.625 32.3571C43.7107 32.3571 42.816 32.6223 42.0494 33.1205C41.2828 33.6188 40.6772 34.3287 40.3059 35.1642" stroke="black" stroke-width="2" stroke-miterlimit="10" stroke-linecap="round"/>
<defs>
<filter id="filter0_i" x="12" y="12" width="48" height="50.1936" filterUnits="userSpaceOnUse" color-interpolation-filters="sRGB">
<feFlood flood-opacity="0" result="BackgroundImageFix"/>
<feBlend mode="normal" in="SourceGraphic" in2="BackgroundImageFix" result="shape"/>
<feColorMatrix in="SourceAlpha" type="matrix" values="0 0 0 0 0 0 0 0 0 0 0 0 0 0 0 0 0 0 127 0" result="hardAlpha"/>
<feOffset dy="2.19361"/>
<feGaussianBlur stdDeviation="1.09681"/>
<feComposite in2="hardAlpha" operator="arithmetic" k2="-1" k3="1"/>
<feColorMatrix type="matrix" values="0 0 0 0 0 0 0 0 0 0 0 0 0 0 0 0 0 0 0.1 0"/>
<feBlend mode="normal" in2="shape" result="effect1_innerShadow"/>
</filter>
<radialGradient id="paint0_radial" cx="0" cy="0" r="1" gradientUnits="userSpaceOnUse" gradientTransform="translate(35.2733 24.6316) rotate(87.2844) scale(41.7311)">
<stop offset="0.453125" stop-color="#FFCC48"/>
<stop offset="0.874464" stop-color="#F29F23"/>
</radialGradient>
<radialGradient id="paint1_radial" cx="0" cy="0" r="1" gradientUnits="userSpaceOnUse" gradientTransform="translate(35.9323 21.8307) rotate(89.8984) scale(38.1694)">
<stop offset="0.140625" stop-color="white"/>
<stop offset="0.473958" stop-color="white" stop-opacity="0"/>
</radialGradient>
</defs>
</svg>
