<svg  viewBox="0 0 72 72" fill="none" xmlns="http://www.w3.org/2000/svg">
<g filter="url(#filter0_i)">
<path d="M36 59C48.7025 59 59 48.7025 59 36C59 23.2975 48.7025 13 36 13C23.2975 13 13 23.2975 13 36C13 48.7025 23.2975 59 36 59Z" fill="url(#paint0_radial)"/>
<path d="M36 59C48.7025 59 59 48.7025 59 36C59 23.2975 48.7025 13 36 13C23.2975 13 13 23.2975 13 36C13 48.7025 23.2975 59 36 59Z" fill="url(#paint1_radial)" fill-opacity="0.31"/>
</g>
<path d="M36 59C48.7025 59 59 48.7025 59 36C59 23.2975 48.7025 13 36 13C23.2975 13 13 23.2975 13 36C13 48.7025 23.2975 59 36 59Z" stroke="#F5CC60" stroke-width="0.5"/>
<path d="M45.331 38.5639C49.2938 38.5639 52.5092 35.7021 52.5092 32.175C52.5092 30.4104 52.9565 28.6459 51.6573 27.4898C50.3581 26.3337 47.3124 25.7861 45.3309 25.7861C42.9742 25.7861 40.1881 25.9295 38.8795 27.4898C37.9862 28.555 38.1527 30.7432 38.1527 32.175C38.1528 35.7021 41.3655 38.5639 45.331 38.5639Z" fill="#3F3F3F"/>
<path d="M25.7384 38.5639C29.7012 38.5639 32.9166 35.7021 32.9166 32.175C32.9166 30.4104 33.3639 28.6459 32.0647 27.4898C30.7655 26.3337 27.7198 25.7861 25.7383 25.7861C23.3816 25.7861 20.5955 25.9295 19.2869 27.4898C18.3936 28.555 18.5601 30.7432 18.5601 32.175C18.5602 35.7021 21.7729 38.5639 25.7384 38.5639Z" fill="#3F3F3F"/>
<path d="M45.7019 44.862C39.1279 48.3868 31.6565 48.5196 26.0724 44.862" stroke="black" stroke-width="2" stroke-miterlimit="10" stroke-linecap="round" stroke-linejoin="round"/>
<path d="M18.8826 30.4638C18.8826 30.4638 17.9296 39.0146 25.7434 38.3823C28.3631 38.1703 33.5598 37.7316 33.6104 30.0396C33.615 29.3417 33.6026 28.4407 32.7996 27.4098C31.7349 26.0429 29.228 25.4387 22.855 25.9878C22.8551 25.9879 19.4088 25.8888 18.8826 30.4638Z" stroke="black" stroke-width="2" stroke-miterlimit="10" stroke-linecap="round" stroke-linejoin="round"/>
<path d="M18.9534 29.9307L18.5203 26.5594L22.3532 26.0317" stroke="black" stroke-width="2" stroke-miterlimit="10" stroke-linecap="round" stroke-linejoin="round"/>
<path d="M52.7412 30.4638C52.7412 30.4638 53.6942 39.0146 45.8804 38.3823C43.2607 38.1703 38.064 37.7316 38.0134 30.0396C38.0088 29.3417 38.0212 28.4407 38.8242 27.4098C39.8889 26.0429 42.3958 25.4387 48.7688 25.9878C48.7688 25.9879 52.2151 25.8888 52.7412 30.4638Z" stroke="black" stroke-width="2" stroke-miterlimit="10" stroke-linecap="round" stroke-linejoin="round"/>
<path d="M31.5048 26.4158C31.5048 26.4158 35.6289 28.9497 40.1617 26.4158" stroke="black" stroke-width="2" stroke-miterlimit="10" stroke-linecap="round" stroke-linejoin="round"/>
<path d="M33.5361 31.3179C33.5361 31.3179 35.738 27.567 38.0723 31.3179" stroke="black" stroke-width="2" stroke-miterlimit="10" stroke-linecap="round" stroke-linejoin="round"/>
<path d="M52.6639 29.9332L53.097 26.5619L49.2641 26.0342" stroke="black" stroke-width="2" stroke-miterlimit="10" stroke-linecap="round" stroke-linejoin="round"/>
<path d="M33.9549 30.0271C33.9549 30.0271 35.7503 26.2762 37.6537 30.0271" stroke="black" stroke-width="2" stroke-miterlimit="10" stroke-linecap="round" stroke-linejoin="round"/>
<defs>
<filter id="filter0_i" x="12.75" y="12.75" width="46.5" height="48.6936" filterUnits="userSpaceOnUse" color-interpolation-filters="sRGB">
<feFlood flood-opacity="0" result="BackgroundImageFix"/>
<feBlend mode="normal" in="SourceGraphic" in2="BackgroundImageFix" result="shape"/>
<feColorMatrix in="SourceAlpha" type="matrix" values="0 0 0 0 0 0 0 0 0 0 0 0 0 0 0 0 0 0 127 0" result="hardAlpha"/>
<feOffset dy="2.19361"/>
<feGaussianBlur stdDeviation="1.09681"/>
<feComposite in2="hardAlpha" operator="arithmetic" k2="-1" k3="1"/>
<feColorMatrix type="matrix" values="0 0 0 0 0 0 0 0 0 0 0 0 0 0 0 0 0 0 0.1 0"/>
<feBlend mode="normal" in2="shape" result="effect1_innerShadow"/>
</filter>
<radialGradient id="paint0_radial" cx="0" cy="0" r="1" gradientUnits="userSpaceOnUse" gradientTransform="translate(35.3035 25.1053) rotate(87.2844) scale(39.9923)">
<stop offset="0.453125" stop-color="#FFCC48"/>
<stop offset="0.874464" stop-color="#F29F23"/>
</radialGradient>
<radialGradient id="paint1_radial" cx="0" cy="0" r="1" gradientUnits="userSpaceOnUse" gradientTransform="translate(35.9351 22.4211) rotate(89.8984) scale(36.579)">
<stop offset="0.140625" stop-color="white"/>
<stop offset="0.473958" stop-color="white" stop-opacity="0"/>
</radialGradient>
</defs>
</svg>
