<svg  viewBox="0 0 72 72" fill="none" xmlns="http://www.w3.org/2000/svg">
<g filter="url(#filter0_i)">
<path d="M36 59C48.7025 59 59 48.7025 59 36C59 23.2975 48.7025 13 36 13C23.2975 13 13 23.2975 13 36C13 48.7025 23.2975 59 36 59Z" fill="url(#paint0_radial)"/>
<path d="M36 59C48.7025 59 59 48.7025 59 36C59 23.2975 48.7025 13 36 13C23.2975 13 13 23.2975 13 36C13 48.7025 23.2975 59 36 59Z" fill="url(#paint1_radial)" fill-opacity="0.31"/>
</g>
<path d="M50.595 41.64C50.607 43.1797 50.3112 44.7062 49.725 46.13C37.235 49.16 24.295 46.47 22.235 46C21.6762 44.6148 21.3943 43.1336 21.405 41.64H21.515C21.515 41.64 36.315 45.23 50.405 41.71L50.595 41.64Z" fill="white"/>
<path d="M49.7251 46.13C47.9351 50.4 43.3751 53.36 36.0351 53.36C28.6251 53.36 24.0051 50.33 22.2351 46C24.2951 46.47 37.235 49.16 49.7251 46.13Z" fill="#EA5A47"/>
<path d="M36 59C48.7025 59 59 48.7025 59 36C59 23.2975 48.7025 13 36 13C23.2975 13 13 23.2975 13 36C13 48.7025 23.2975 59 36 59Z" stroke="#F5CC60" stroke-width="0.5" stroke-linecap="round" stroke-linejoin="round"/>
<path d="M28.5684 36.2218C30.2253 36.2218 31.5684 33.8024 31.5684 30.818C31.5684 27.8336 30.2253 25.4142 28.5684 25.4142C26.9116 25.4142 25.5684 27.8336 25.5684 30.818C25.5684 33.8024 26.9116 36.2218 28.5684 36.2218Z" fill="black"/>
<path d="M43.4316 36.2254C45.0884 36.2254 46.4316 33.806 46.4316 30.8216C46.4316 27.8372 45.0884 25.4178 43.4316 25.4178C41.7747 25.4178 40.4316 27.8372 40.4316 30.8216C40.4316 33.806 41.7747 36.2254 43.4316 36.2254Z" fill="black"/>
<path d="M50.595 41.64C50.607 43.1797 50.3112 44.7062 49.725 46.13C37.235 49.16 24.295 46.47 22.235 46C21.6762 44.6148 21.3943 43.1336 21.405 41.64H21.515C21.515 41.64 36.315 45.23 50.405 41.71L50.595 41.64Z" stroke="black" stroke-width="2" stroke-linecap="round" stroke-linejoin="round"/>
<path d="M49.7251 46.13C47.9351 50.4 43.3751 53.36 36.0351 53.36C28.6251 53.36 24.0051 50.33 22.2351 46C24.2951 46.47 37.235 49.16 49.7251 46.13Z" stroke="black" stroke-width="2" stroke-linecap="round" stroke-linejoin="round"/>
<defs>
<filter id="filter0_i" x="13" y="13" width="46" height="48.1936" filterUnits="userSpaceOnUse" color-interpolation-filters="sRGB">
<feFlood flood-opacity="0" result="BackgroundImageFix"/>
<feBlend mode="normal" in="SourceGraphic" in2="BackgroundImageFix" result="shape"/>
<feColorMatrix in="SourceAlpha" type="matrix" values="0 0 0 0 0 0 0 0 0 0 0 0 0 0 0 0 0 0 127 0" result="hardAlpha"/>
<feOffset dy="2.19361"/>
<feGaussianBlur stdDeviation="1.09681"/>
<feComposite in2="hardAlpha" operator="arithmetic" k2="-1" k3="1"/>
<feColorMatrix type="matrix" values="0 0 0 0 0 0 0 0 0 0 0 0 0 0 0 0 0 0 0.1 0"/>
<feBlend mode="normal" in2="shape" result="effect1_innerShadow"/>
</filter>
<radialGradient id="paint0_radial" cx="0" cy="0" r="1" gradientUnits="userSpaceOnUse" gradientTransform="translate(35.3035 25.1053) rotate(87.2844) scale(39.9923)">
<stop offset="0.453125" stop-color="#FFCC48"/>
<stop offset="0.874464" stop-color="#F29F23"/>
</radialGradient>
<radialGradient id="paint1_radial" cx="0" cy="0" r="1" gradientUnits="userSpaceOnUse" gradientTransform="translate(35.9351 22.4211) rotate(89.8984) scale(36.579)">
<stop offset="0.140625" stop-color="white"/>
<stop offset="0.473958" stop-color="white" stop-opacity="0"/>
</radialGradient>
</defs>
</svg>
