<svg  viewBox="0 0 72 72" fill="none" xmlns="http://www.w3.org/2000/svg">
<g clip-path="url(#clip0)">
<g filter="url(#filter0_i)">
<path d="M36 60C49.2548 60 60 49.2548 60 36C60 22.7452 49.2548 12 36 12C22.7452 12 12 22.7452 12 36C12 49.2548 22.7452 60 36 60Z" fill="url(#paint0_radial)"/>
<path d="M36 60C49.2548 60 60 49.2548 60 36C60 22.7452 49.2548 12 36 12C22.7452 12 12 22.7452 12 36C12 49.2548 22.7452 60 36 60Z" fill="url(#paint1_radial)" fill-opacity="0.31"/>
</g>
<path d="M50.5707 44.471C50.5707 44.471 56.9571 48.6811 56.9571 52.0951C56.9571 54.5622 55.3819 56.6058 52.6854 56.6058C48.964 56.6058 45.001 50.361 45.001 50.361" fill="#EA5A47"/>
<path d="M57.2506 44.8137C58.3778 42.0992 59 39.1222 59 36C59 23.2969 48.7022 13 36 13C23.2969 13 13 23.2969 13 36C13 48.7022 23.2969 59 36 59C39.3707 59 42.5721 58.2749 45.4566 56.9721" stroke="#F5CC60" stroke-width="0.5" stroke-miterlimit="10" stroke-linecap="round" stroke-linejoin="round"/>
<path d="M31.6941 33.4036C30.6343 31.0182 27.8414 29.9436 25.4561 31.0034C24.3864 31.4786 23.5312 32.3339 23.0559 33.4036" stroke="black" stroke-width="2" stroke-miterlimit="10" stroke-linecap="round"/>
<path d="M48.9441 33.4036C47.8843 31.0182 45.0914 29.9436 42.7061 31.0034C41.6364 31.4786 40.7812 32.3339 40.3059 33.4036" stroke="black" stroke-width="2" stroke-miterlimit="10" stroke-linecap="round"/>
<path d="M50.5707 44.471C50.5707 44.471 56.9571 48.6811 56.9571 52.0951C56.9571 54.5622 55.3819 56.6058 52.6854 56.6058C48.964 56.6058 45.001 50.361 45.001 50.361" stroke="black" stroke-width="2" stroke-miterlimit="10"/>
<path d="M20.1657 41.3575C22.3985 47.9591 28.644 52.7116 36 52.7116C43.3561 52.7116 49.6024 47.9583 51.8349 41.3557" stroke="black" stroke-width="2" stroke-miterlimit="10" stroke-linecap="round" stroke-linejoin="round"/>
</g>
<defs>
<filter id="filter0_i" x="12" y="12" width="48" height="50.1936" filterUnits="userSpaceOnUse" color-interpolation-filters="sRGB">
<feFlood flood-opacity="0" result="BackgroundImageFix"/>
<feBlend mode="normal" in="SourceGraphic" in2="BackgroundImageFix" result="shape"/>
<feColorMatrix in="SourceAlpha" type="matrix" values="0 0 0 0 0 0 0 0 0 0 0 0 0 0 0 0 0 0 127 0" result="hardAlpha"/>
<feOffset dy="2.19361"/>
<feGaussianBlur stdDeviation="1.09681"/>
<feComposite in2="hardAlpha" operator="arithmetic" k2="-1" k3="1"/>
<feColorMatrix type="matrix" values="0 0 0 0 0 0 0 0 0 0 0 0 0 0 0 0 0 0 0.1 0"/>
<feBlend mode="normal" in2="shape" result="effect1_innerShadow"/>
</filter>
<radialGradient id="paint0_radial" cx="0" cy="0" r="1" gradientUnits="userSpaceOnUse" gradientTransform="translate(35.2733 24.6316) rotate(87.2844) scale(41.7311)">
<stop offset="0.453125" stop-color="#FFCC48"/>
<stop offset="0.874464" stop-color="#F29F23"/>
</radialGradient>
<radialGradient id="paint1_radial" cx="0" cy="0" r="1" gradientUnits="userSpaceOnUse" gradientTransform="translate(35.9323 21.8307) rotate(89.8984) scale(38.1694)">
<stop offset="0.140625" stop-color="white"/>
<stop offset="0.473958" stop-color="white" stop-opacity="0"/>
</radialGradient>
<clipPath id="clip0">
<rect width="72" height="72" fill="white"/>
</clipPath>
</defs>
</svg>
