<svg  viewBox="0 0 72 72" fill="none" xmlns="http://www.w3.org/2000/svg">
<g filter="url(#filter0_i)">
<path d="M36 13C23.3177 13 13 23.3177 13 36C13 48.6822 23.3177 59 36 59C48.6822 59 59 48.6822 59 36C59 23.3177 48.6822 13 36 13Z" fill="url(#paint0_radial)"/>
<path d="M36 13C23.3177 13 13 23.3177 13 36C13 48.6822 23.3177 59 36 59C48.6822 59 59 48.6822 59 36C59 23.3177 48.6822 13 36 13Z" fill="url(#paint1_radial)" fill-opacity="0.31"/>
</g>
<path d="M41.6682 46.5925C43.6862 45.5033 45.2959 43.8414 46.1651 41.8179C44.1804 42.8032 40.0066 43.411 35.5906 43.3605C31.536 43.3141 27.879 42.7197 26.0735 41.8179H25.835C26.774 43.9826 28.5528 45.7165 30.7518 46.7908" fill="white"/>
<path d="M41.5772 42.818C41.5772 48.8931 39.0448 53.818 35.921 53.818C32.7971 53.818 30.2647 48.8931 30.2647 42.818" fill="#EA5A47"/>
<path d="M36 59C48.7025 59 59 48.7025 59 36C59 23.2975 48.7025 13 36 13C23.2975 13 13 23.2975 13 36C13 48.7025 23.2975 59 36 59Z" stroke="#F5CC60" stroke-width="0.5" stroke-miterlimit="10"/>
<path d="M24 27C26.3334 28.3333 28.6666 29.6667 31 31C28.6666 32.3333 26.3334 33.6667 24 35" stroke="black" stroke-width="2" stroke-miterlimit="10" stroke-linecap="round" stroke-linejoin="round"/>
<path d="M48 27C45.6666 28.3333 43.3334 29.6667 41 31C43.3334 32.3333 45.6666 33.6667 48 35" stroke="black" stroke-width="2" stroke-miterlimit="10" stroke-linecap="round" stroke-linejoin="round"/>
<path d="M26.0734 41.818C27.8789 42.7198 31.5359 43.3142 35.5905 43.3606C40.0066 43.4111 44.1804 42.8034 46.165 41.818M30.7517 46.7908C28.5527 45.7166 26.7739 43.9827 25.8349 41.8179L30.7517 46.7908ZM46.165 41.818C45.2958 43.8414 43.6861 45.5034 41.6681 46.5926L46.165 41.818Z" stroke="black" stroke-width="2" stroke-miterlimit="10" stroke-linecap="round" stroke-linejoin="round"/>
<path d="M41.6597 42.818C41.6597 48.8931 39.1273 53.818 36.0035 53.818C32.8797 53.818 30.3472 48.8931 30.3472 42.818" stroke="black" stroke-width="2" stroke-miterlimit="10" stroke-linejoin="round"/>
<defs>
<filter id="filter0_i" x="13" y="13" width="46" height="48.1936" filterUnits="userSpaceOnUse" color-interpolation-filters="sRGB">
<feFlood flood-opacity="0" result="BackgroundImageFix"/>
<feBlend mode="normal" in="SourceGraphic" in2="BackgroundImageFix" result="shape"/>
<feColorMatrix in="SourceAlpha" type="matrix" values="0 0 0 0 0 0 0 0 0 0 0 0 0 0 0 0 0 0 127 0" result="hardAlpha"/>
<feOffset dy="2.19361"/>
<feGaussianBlur stdDeviation="1.09681"/>
<feComposite in2="hardAlpha" operator="arithmetic" k2="-1" k3="1"/>
<feColorMatrix type="matrix" values="0 0 0 0 0 0 0 0 0 0 0 0 0 0 0 0 0 0 0.1 0"/>
<feBlend mode="normal" in2="shape" result="effect1_innerShadow"/>
</filter>
<radialGradient id="paint0_radial" cx="0" cy="0" r="1" gradientUnits="userSpaceOnUse" gradientTransform="translate(35.3035 25.1053) rotate(87.2844) scale(39.9923)">
<stop offset="0.453125" stop-color="#FFCC48"/>
<stop offset="0.874464" stop-color="#F29F23"/>
</radialGradient>
<radialGradient id="paint1_radial" cx="0" cy="0" r="1" gradientUnits="userSpaceOnUse" gradientTransform="translate(35.9351 22.4211) rotate(89.8984) scale(36.579)">
<stop offset="0.140625" stop-color="white"/>
<stop offset="0.473958" stop-color="white" stop-opacity="0"/>
</radialGradient>
</defs>
</svg>
