<svg  viewBox="0 0 72 72" fill="none" xmlns="http://www.w3.org/2000/svg">
<g filter="url(#filter0_i)">
<path d="M36 13C23.3177 13 13 23.3177 13 36C13 48.6822 23.3177 59 36 59C48.6822 59 59 48.6822 59 36C59 23.3177 48.6822 13 36 13Z" fill="url(#paint0_radial)"/>
<path d="M36 13C23.3177 13 13 23.3177 13 36C13 48.6822 23.3177 59 36 59C48.6822 59 59 48.6822 59 36C59 23.3177 48.6822 13 36 13Z" fill="url(#paint1_radial)" fill-opacity="0.31"/>
</g>
<path d="M36 59C48.7025 59 59 48.7025 59 36C59 23.2975 48.7025 13 36 13C23.2975 13 13 23.2975 13 36C13 48.7025 23.2975 59 36 59Z" stroke="#F5CC60" stroke-width="0.5" stroke-miterlimit="10"/>
<path d="M30.09 43.09C33.216 42.3011 34.905 41.861 38.422 41.992C41.651 42.1124 44.563 42.5875 46.001 44.928" stroke="black" stroke-width="2" stroke-miterlimit="10" stroke-linecap="round" stroke-linejoin="round"/>
<path d="M23.29 26.7C23.6166 26.2729 25.082 24.455 27.714 24.015C29.849 23.6584 31.508 24.4167 32.066 24.703" stroke="black" stroke-width="2" stroke-miterlimit="10" stroke-linecap="round" stroke-linejoin="round"/>
<path d="M42.93 25C43.3967 24.75 45.45 23.9 47.972 24.4257C50.09 24.8178 50.393 25.254 51.702 26.1507" stroke="black" stroke-width="2" stroke-miterlimit="10" stroke-linecap="round" stroke-linejoin="round"/>
<path d="M32 31C32 32.6568 30.6552 34 29 34C27.3447 34 26 32.6567 26 31C26 29.3448 27.3447 28 29 28C30.6552 28 32 29.3448 32 31Z" fill="black"/>
<path d="M50 31C50 32.6568 48.6553 34 47 34C45.3447 34 44 32.6567 44 31C44 29.3448 45.3447 28 47 28C48.6553 28 50 29.3448 50 31Z" fill="black"/>
<defs>
<filter id="filter0_i" x="13" y="13" width="46" height="48.1936" filterUnits="userSpaceOnUse" color-interpolation-filters="sRGB">
<feFlood flood-opacity="0" result="BackgroundImageFix"/>
<feBlend mode="normal" in="SourceGraphic" in2="BackgroundImageFix" result="shape"/>
<feColorMatrix in="SourceAlpha" type="matrix" values="0 0 0 0 0 0 0 0 0 0 0 0 0 0 0 0 0 0 127 0" result="hardAlpha"/>
<feOffset dy="2.19361"/>
<feGaussianBlur stdDeviation="1.09681"/>
<feComposite in2="hardAlpha" operator="arithmetic" k2="-1" k3="1"/>
<feColorMatrix type="matrix" values="0 0 0 0 0 0 0 0 0 0 0 0 0 0 0 0 0 0 0.1 0"/>
<feBlend mode="normal" in2="shape" result="effect1_innerShadow"/>
</filter>
<radialGradient id="paint0_radial" cx="0" cy="0" r="1" gradientUnits="userSpaceOnUse" gradientTransform="translate(35.3035 25.1053) rotate(87.2844) scale(39.9923)">
<stop offset="0.453125" stop-color="#FFCC48"/>
<stop offset="0.874464" stop-color="#F29F23"/>
</radialGradient>
<radialGradient id="paint1_radial" cx="0" cy="0" r="1" gradientUnits="userSpaceOnUse" gradientTransform="translate(35.9351 22.4211) rotate(89.8984) scale(36.579)">
<stop offset="0.140625" stop-color="white"/>
<stop offset="0.473958" stop-color="white" stop-opacity="0"/>
</radialGradient>
</defs>
</svg>
