<svg  viewBox="0 0 72 72" fill="none" xmlns="http://www.w3.org/2000/svg">
<g filter="url(#filter0_i)">
<path d="M36 12C22.7663 12 12 22.7663 12 36C12 49.2336 22.7663 60 36 60C49.2336 60 60 49.2336 60 36C60 22.7663 49.2336 12 36 12Z" fill="url(#paint0_radial)"/>
<path d="M36 12C22.7663 12 12 22.7663 12 36C12 49.2336 22.7663 60 36 60C49.2336 60 60 49.2336 60 36C60 22.7663 49.2336 12 36 12Z" fill="url(#paint1_radial)" fill-opacity="0.31"/>
</g>
<path d="M24.8117 10.5867C24.9906 10.7656 29.1975 15.0236 29.1974 19.4738C29.1974 22.1931 26.9322 24.3975 24.138 24.3975C21.3438 24.3975 19.0786 22.1931 19.0786 19.4738C19.0785 15.0236 23.2854 10.7656 23.4643 10.5867C23.8365 10.2145 24.4393 10.2147 24.8113 10.5867H24.8117Z" fill="#92D3F5"/>
<path d="M28.5 45C30.0805 42.4425 33.4043 40.8651 36.9211 40.9962C40.1499 41.1166 43.0622 42.6595 44.5 45" stroke="black" stroke-width="2" stroke-miterlimit="10" stroke-linecap="round" stroke-linejoin="round"/>
<path d="M40.5 31.7253C40.9132 31.3813 42.7456 29.9338 45.4091 30.0889C47.5699 30.2148 49.0191 31.3222 49.5 31.7253" stroke="black" stroke-width="2" stroke-miterlimit="10" stroke-linecap="round" stroke-linejoin="round"/>
<path d="M22.5 31.7253C22.9132 31.3813 24.7456 29.9338 27.4091 30.0889C29.5699 30.2148 31.0191 31.3222 31.5 31.7253" stroke="black" stroke-width="2" stroke-miterlimit="10" stroke-linecap="round" stroke-linejoin="round"/>
<path d="M31.9051 12.348C33.2357 12.1192 34.6039 12 36 12C49.2548 12 60 22.7452 60 36C60 49.2548 49.2548 60 36 60C22.7452 60 12 49.2548 12 36C12 31.5529 13.2095 27.3884 15.3175 23.8174" stroke="#F5CC60" stroke-width="0.5" stroke-miterlimit="10" stroke-linecap="round"/>
<path d="M24.8117 10.5867C24.9906 10.7656 29.1975 15.0236 29.1974 19.4738C29.1974 22.1931 26.9322 24.3975 24.138 24.3975C21.3438 24.3975 19.0786 22.1931 19.0786 19.4738C19.0785 15.0236 23.2854 10.7656 23.4643 10.5867C23.8365 10.2145 24.4393 10.2147 24.8113 10.5867H24.8117Z" stroke="black" stroke-width="2" stroke-miterlimit="10"/>
<defs>
<filter id="filter0_i" x="12" y="12" width="48" height="50.1936" filterUnits="userSpaceOnUse" color-interpolation-filters="sRGB">
<feFlood flood-opacity="0" result="BackgroundImageFix"/>
<feBlend mode="normal" in="SourceGraphic" in2="BackgroundImageFix" result="shape"/>
<feColorMatrix in="SourceAlpha" type="matrix" values="0 0 0 0 0 0 0 0 0 0 0 0 0 0 0 0 0 0 127 0" result="hardAlpha"/>
<feOffset dy="2.19361"/>
<feGaussianBlur stdDeviation="1.09681"/>
<feComposite in2="hardAlpha" operator="arithmetic" k2="-1" k3="1"/>
<feColorMatrix type="matrix" values="0 0 0 0 0 0 0 0 0 0 0 0 0 0 0 0 0 0 0.1 0"/>
<feBlend mode="normal" in2="shape" result="effect1_innerShadow"/>
</filter>
<radialGradient id="paint0_radial" cx="0" cy="0" r="1" gradientUnits="userSpaceOnUse" gradientTransform="translate(35.2733 24.6316) rotate(87.2844) scale(41.7311)">
<stop offset="0.453125" stop-color="#FFCC48"/>
<stop offset="0.874464" stop-color="#F29F23"/>
</radialGradient>
<radialGradient id="paint1_radial" cx="0" cy="0" r="1" gradientUnits="userSpaceOnUse" gradientTransform="translate(35.9323 21.8307) rotate(89.8984) scale(38.1694)">
<stop offset="0.140625" stop-color="white"/>
<stop offset="0.473958" stop-color="white" stop-opacity="0"/>
</radialGradient>
</defs>
</svg>
