<svg  viewBox="0 0 72 72" fill="none" xmlns="http://www.w3.org/2000/svg">
<g filter="url(#filter0_i)">
<path d="M36 13C23.3177 13 13 23.3177 13 36C13 48.6822 23.3177 59 36 59C48.6822 59 59 48.6822 59 36C59 23.3177 48.6822 13 36 13Z" fill="url(#paint0_radial)"/>
<path d="M36 13C23.3177 13 13 23.3177 13 36C13 48.6822 23.3177 59 36 59C48.6822 59 59 48.6822 59 36C59 23.3177 48.6822 13 36 13Z" fill="url(#paint1_radial)" fill-opacity="0.31"/>
</g>
<path d="M41.6682 45.5925C43.6862 44.5033 45.2959 42.8414 46.1651 40.8179C44.1804 41.8032 40.0066 42.411 35.5906 42.3605C31.536 42.3141 27.879 41.7197 26.0735 40.8179H25.835C26.774 42.9826 28.5528 44.7165 30.7518 45.7908" fill="white"/>
<path d="M41.5772 41.818C41.5772 47.8931 39.0448 52.818 35.921 52.818C32.7971 52.818 30.2647 47.8931 30.2647 41.818" fill="#EA5A47"/>
<path d="M36 59C48.7025 59 59 48.7025 59 36C59 23.2975 48.7025 13 36 13C23.2975 13 13 23.2975 13 36C13 48.7025 23.2975 59 36 59Z" stroke="#F5CC60" stroke-width="0.5" stroke-miterlimit="10"/>
<path d="M40 31.7253C40.4132 31.3813 42.2456 29.9338 44.9091 30.0889C47.0699 30.2148 48.5191 31.3222 49 31.7253" stroke="black" stroke-width="2" stroke-miterlimit="10" stroke-linecap="round" stroke-linejoin="round"/>
<path d="M26.0734 40.818C27.8789 41.7198 31.5359 42.3142 35.5905 42.3606C40.0066 42.4111 44.1804 41.8034 46.165 40.818M30.7517 45.7908C28.5527 44.7166 26.7739 42.9827 25.8349 40.8179L30.7517 45.7908ZM46.165 40.818C45.2958 42.8414 43.6861 44.5034 41.6681 45.5926L46.165 40.818Z" stroke="black" stroke-width="2" stroke-miterlimit="10" stroke-linecap="round" stroke-linejoin="round"/>
<path d="M41.6597 41.818C41.6597 47.8931 39.1273 52.818 36.0035 52.818C32.8797 52.818 30.3472 47.8931 30.3472 41.818" stroke="black" stroke-width="2" stroke-miterlimit="10"/>
<path d="M30 31C30 32.6568 28.6552 34 27 34C25.3447 34 24 32.6567 24 31C24 29.3448 25.3447 28 27 28C28.6552 28 30 29.3448 30 31Z" fill="black"/>
<defs>
<filter id="filter0_i" x="13" y="13" width="46" height="48.1936" filterUnits="userSpaceOnUse" color-interpolation-filters="sRGB">
<feFlood flood-opacity="0" result="BackgroundImageFix"/>
<feBlend mode="normal" in="SourceGraphic" in2="BackgroundImageFix" result="shape"/>
<feColorMatrix in="SourceAlpha" type="matrix" values="0 0 0 0 0 0 0 0 0 0 0 0 0 0 0 0 0 0 127 0" result="hardAlpha"/>
<feOffset dy="2.19361"/>
<feGaussianBlur stdDeviation="1.09681"/>
<feComposite in2="hardAlpha" operator="arithmetic" k2="-1" k3="1"/>
<feColorMatrix type="matrix" values="0 0 0 0 0 0 0 0 0 0 0 0 0 0 0 0 0 0 0.1 0"/>
<feBlend mode="normal" in2="shape" result="effect1_innerShadow"/>
</filter>
<radialGradient id="paint0_radial" cx="0" cy="0" r="1" gradientUnits="userSpaceOnUse" gradientTransform="translate(35.3035 25.1053) rotate(87.2844) scale(39.9923)">
<stop offset="0.453125" stop-color="#FFCC48"/>
<stop offset="0.874464" stop-color="#F29F23"/>
</radialGradient>
<radialGradient id="paint1_radial" cx="0" cy="0" r="1" gradientUnits="userSpaceOnUse" gradientTransform="translate(35.9351 22.4211) rotate(89.8984) scale(36.579)">
<stop offset="0.140625" stop-color="white"/>
<stop offset="0.473958" stop-color="white" stop-opacity="0"/>
</radialGradient>
</defs>
</svg>
