<svg  viewBox="0 0 72 72" fill="none" xmlns="http://www.w3.org/2000/svg">
<g filter="url(#filter0_i)">
<path d="M36 13C23.2975 13 13 23.2975 13 36C13 48.7025 23.2975 59 36 59C48.7025 59 59 48.7025 59 36C58.9857 23.3034 48.6966 13.0143 36 13Z" fill="url(#paint0_radial)"/>
<path d="M36 13C23.2975 13 13 23.2975 13 36C13 48.7025 23.2975 59 36 59C48.7025 59 59 48.7025 59 36C58.9857 23.3034 48.6966 13.0143 36 13Z" fill="url(#paint1_radial)" fill-opacity="0.31"/>
</g>
<path d="M44.5 49.2708H27.5C25.2936 49.2643 23.5065 47.4772 23.5 45.2708C23.5065 43.0644 25.2936 41.2773 27.5 41.2708H44.5C46.7064 41.2773 48.4935 43.0644 48.5 45.2708C48.4935 47.4772 46.7064 49.2643 44.5 49.2708Z" fill="white"/>
<path d="M28 41.7708V48.7708" stroke="black" stroke-width="2" stroke-linecap="round" stroke-linejoin="round"/>
<path d="M33 41.7708V48.7708" stroke="black" stroke-width="2" stroke-linecap="round" stroke-linejoin="round"/>
<path d="M38 41.7708V48.7708" stroke="black" stroke-width="2" stroke-linecap="round" stroke-linejoin="round"/>
<path d="M43 41.7708V48.7708" stroke="black" stroke-width="2" stroke-linecap="round" stroke-linejoin="round"/>
<path d="M36 59C48.7025 59 59 48.7025 59 36C59 23.2975 48.7025 13 36 13C23.2975 13 13 23.2975 13 36C13 48.7025 23.2975 59 36 59Z" stroke="#F5CC60" stroke-width="0.5" stroke-miterlimit="10"/>
<path d="M44.5 49.2708H27.5C25.2936 49.2643 23.5065 47.4772 23.5 45.2708C23.5065 43.0644 25.2936 41.2773 27.5 41.2708H44.5C46.7064 41.2773 48.4935 43.0644 48.5 45.2708C48.4935 47.4772 46.7064 49.2643 44.5 49.2708Z" stroke="black" stroke-width="2" stroke-miterlimit="2"/>
<path d="M30 31C30 32.6568 28.6552 34 27 34C25.3447 34 24 32.6567 24 31C24 29.3448 25.3447 28 27 28C28.6552 28 30 29.3448 30 31Z" fill="black"/>
<path d="M48 31C48 32.6568 46.6553 34 45 34C43.3447 34 42 32.6567 42 31C42 29.3448 43.3447 28 45 28C46.6553 28 48 29.3448 48 31Z" fill="black"/>
<defs>
<filter id="filter0_i" x="13" y="13" width="46" height="48.1936" filterUnits="userSpaceOnUse" color-interpolation-filters="sRGB">
<feFlood flood-opacity="0" result="BackgroundImageFix"/>
<feBlend mode="normal" in="SourceGraphic" in2="BackgroundImageFix" result="shape"/>
<feColorMatrix in="SourceAlpha" type="matrix" values="0 0 0 0 0 0 0 0 0 0 0 0 0 0 0 0 0 0 127 0" result="hardAlpha"/>
<feOffset dy="2.19361"/>
<feGaussianBlur stdDeviation="1.09681"/>
<feComposite in2="hardAlpha" operator="arithmetic" k2="-1" k3="1"/>
<feColorMatrix type="matrix" values="0 0 0 0 0 0 0 0 0 0 0 0 0 0 0 0 0 0 0.1 0"/>
<feBlend mode="normal" in2="shape" result="effect1_innerShadow"/>
</filter>
<radialGradient id="paint0_radial" cx="0" cy="0" r="1" gradientUnits="userSpaceOnUse" gradientTransform="translate(35.3035 25.1053) rotate(87.2844) scale(39.9923)">
<stop offset="0.453125" stop-color="#FFCC48"/>
<stop offset="0.874464" stop-color="#F29F23"/>
</radialGradient>
<radialGradient id="paint1_radial" cx="0" cy="0" r="1" gradientUnits="userSpaceOnUse" gradientTransform="translate(35.9351 22.4211) rotate(89.8984) scale(36.579)">
<stop offset="0.140625" stop-color="white"/>
<stop offset="0.473958" stop-color="white" stop-opacity="0"/>
</radialGradient>
</defs>
</svg>
