<svg  viewBox="0 0 72 72" fill="none" xmlns="http://www.w3.org/2000/svg">
<path d="M36 13C23.3177 13 13 23.3177 13 36C13 48.6822 23.3177 59 36 59C48.6822 59 59 48.6822 59 36C59 23.3177 48.6822 13 36 13Z" fill="#EA5A47"/>
<path d="M36 59C48.7025 59 59 48.7025 59 36C59 23.2975 48.7025 13 36 13C23.2975 13 13 23.2975 13 36C13 48.7025 23.2975 59 36 59Z" stroke="#D9600E" stroke-width="0.5" stroke-miterlimit="10"/>
<path d="M28 46C29.5805 43.4425 32.9043 41.8651 36.4211 41.9962C39.6499 42.1166 42.5622 43.6595 44 46" stroke="black" stroke-width="2" stroke-miterlimit="10" stroke-linecap="round" stroke-linejoin="round"/>
<path d="M30 32.9252C30 34.5819 28.6552 35.9252 27 35.9252C25.3447 35.9252 24 34.5819 24 32.9252C24 31.2699 25.3447 29.9252 27 29.9252C28.6552 29.9252 30 31.27 30 32.9252Z" fill="black"/>
<path d="M48 32.9252C48 34.5819 46.6553 35.9252 45 35.9252C43.3447 35.9252 42 34.5819 42 32.9252C42 31.2699 43.3447 29.9252 45 29.9252C46.6553 29.9252 48 31.27 48 32.9252Z" fill="black"/>
<path d="M23 24L30 28" stroke="black" stroke-width="2" stroke-miterlimit="10" stroke-linecap="round" stroke-linejoin="round"/>
<path d="M49 24L42 28" stroke="black" stroke-width="2" stroke-miterlimit="10" stroke-linecap="round" stroke-linejoin="round"/>
</svg>
