<svg  viewBox="0 0 72 72" fill="none" xmlns="http://www.w3.org/2000/svg">
<g filter="url(#filter0_i)">
<path d="M36.2002 13.3163C23.6283 13.3163 13.4004 23.5442 13.4004 36.1161C13.4004 48.6879 23.6283 58.9159 36.2002 58.9159C48.772 58.9159 59 48.6879 59 36.1161C59 23.5442 48.772 13.3163 36.2002 13.3163Z" fill="url(#paint0_radial)"/>
<path d="M36.2002 13.3163C23.6283 13.3163 13.4004 23.5442 13.4004 36.1161C13.4004 48.6879 23.6283 58.9159 36.2002 58.9159C48.772 58.9159 59 48.6879 59 36.1161C59 23.5442 48.772 13.3163 36.2002 13.3163Z" fill="url(#paint1_radial)" fill-opacity="0.31"/>
</g>
<path d="M22.7747 33.8245C21.698 34.9264 19.6597 37.3123 19.4823 39.7409C19.3712 41.2619 20.6008 42.684 22.1188 42.7943C23.6881 42.9086 25.0576 41.7262 25.1734 40.1579C25.3503 37.7287 23.6798 35.0718 22.7747 33.8245Z" fill="#92D3F5"/>
<path d="M36 59C48.7025 59 59 48.7025 59 36C59 23.2975 48.7025 13 36 13C23.2975 13 13 23.2975 13 36C13 48.7025 23.2975 59 36 59Z" stroke="#F5CC60" stroke-width="0.5" stroke-miterlimit="10"/>
<path d="M26.5 48C28.3768 44.1674 32.3239 41.8035 36.5 42C40.3343 42.1804 43.7926 44.4926 45.5 48" stroke="black" stroke-width="2" stroke-miterlimit="10" stroke-linecap="round" stroke-linejoin="round"/>
<path d="M20.3869 41.6299C19.8543 41.0973 19.5611 40.3894 19.5613 39.6363C19.5613 37.1574 21.9046 34.7855 22.0043 34.6858C22.2117 34.4784 22.5474 34.4786 22.7546 34.6858C22.8544 34.7856 25.1978 37.1576 25.1983 39.637L25.1985 39.6372C25.1978 41.1907 23.9332 42.4549 22.3796 42.4547C21.6273 42.4556 20.9195 42.1624 20.3869 41.6299Z" stroke="black" stroke-width="2" stroke-miterlimit="10"/>
<path d="M30 31C30 32.6568 28.6552 34 27 34C25.3447 34 24 32.6567 24 31C24 29.3448 25.3447 28 27 28C28.6552 28 30 29.3448 30 31Z" fill="black"/>
<path d="M48 31C48 32.6568 46.6553 34 45 34C43.3447 34 42 32.6567 42 31C42 29.3448 43.3447 28 45 28C46.6553 28 48 29.3448 48 31Z" fill="black"/>
<defs>
<filter id="filter0_i" x="13.4004" y="13.3163" width="45.5996" height="47.7932" filterUnits="userSpaceOnUse" color-interpolation-filters="sRGB">
<feFlood flood-opacity="0" result="BackgroundImageFix"/>
<feBlend mode="normal" in="SourceGraphic" in2="BackgroundImageFix" result="shape"/>
<feColorMatrix in="SourceAlpha" type="matrix" values="0 0 0 0 0 0 0 0 0 0 0 0 0 0 0 0 0 0 127 0" result="hardAlpha"/>
<feOffset dy="2.19361"/>
<feGaussianBlur stdDeviation="1.09681"/>
<feComposite in2="hardAlpha" operator="arithmetic" k2="-1" k3="1"/>
<feColorMatrix type="matrix" values="0 0 0 0 0 0 0 0 0 0 0 0 0 0 0 0 0 0 0.1 0"/>
<feBlend mode="normal" in2="shape" result="effect1_innerShadow"/>
</filter>
<radialGradient id="paint0_radial" cx="0" cy="0" r="1" gradientUnits="userSpaceOnUse" gradientTransform="translate(35.5098 25.3162) rotate(87.2844) scale(39.6442)">
<stop offset="0.453125" stop-color="#FFCC48"/>
<stop offset="0.874464" stop-color="#F29F23"/>
</radialGradient>
<radialGradient id="paint1_radial" cx="0" cy="0" r="1" gradientUnits="userSpaceOnUse" gradientTransform="translate(36.1359 22.6554) rotate(89.8984) scale(36.2606)">
<stop offset="0.140625" stop-color="white"/>
<stop offset="0.473958" stop-color="white" stop-opacity="0"/>
</radialGradient>
</defs>
</svg>
