<svg  viewBox="0 0 72 72" fill="none" xmlns="http://www.w3.org/2000/svg">
<g filter="url(#filter0_i)">
<path d="M36.2 13.32C23.63 13.32 13.4 23.55 13.4 36.12C13.4 48.69 23.63 58.92 36.2 58.92C48.77 58.92 59 48.69 59 36.12C59 23.55 48.77 13.32 36.2 13.32Z" fill="url(#paint0_radial)"/>
<path d="M36.2 13.32C23.63 13.32 13.4 23.55 13.4 36.12C13.4 48.69 23.63 58.92 36.2 58.92C48.77 58.92 59 48.69 59 36.12C59 23.55 48.77 13.32 36.2 13.32Z" fill="url(#paint1_radial)" fill-opacity="0.31"/>
</g>
<path fill-rule="evenodd" clip-rule="evenodd" d="M35.93 51.58C33.469 51.58 31.188 49.212 31.188 46.593C31.188 43.974 33.632 41.933 36.093 41.933C38.554 41.933 40.794 44.138 40.794 46.756C40.794 49.375 38.391 51.579 35.93 51.579V51.58Z" fill="black"/>
<path d="M31.37 45.29C33.395 46.578 38.688 46.578 40.63 45.29L36 41.285L31.37 45.29Z" fill="white"/>
<path d="M29.7 32.02C23.938 41.561 25.84 46.29 26.004 56C26.004 57.803 20.858 53.588 20.004 52C17.834 46.08 19.6051 38.19 22.504 32.82C25.391 31.198 29.496 30.736 29.7 32.0169V32.02Z" fill="#92D3F5"/>
<path d="M42.3 32.4C48.062 41.941 46.16 46.67 45.996 56.38C45.996 58.183 51.142 53.968 51.996 52.38C54.166 46.46 52.3949 38.57 49.496 33.2C46.609 31.578 42.504 31.116 42.3 32.3969V32.4Z" fill="#92D3F5"/>
<path d="M40.5 32.82C40.9132 32.476 42.746 31.028 45.409 31.184C47.57 31.3099 49.019 32.417 49.5 32.82" stroke="black" stroke-width="2" stroke-miterlimit="10" stroke-linecap="round" stroke-linejoin="round"/>
<path d="M22.5 32.82C22.9132 32.476 24.746 31.028 27.409 31.184C29.57 31.3099 31.019 32.417 31.5 32.82" stroke="black" stroke-width="2" stroke-miterlimit="10" stroke-linecap="round" stroke-linejoin="round"/>
<path d="M36 59C48.7025 59 59 48.7025 59 36C59 23.2975 48.7025 13 36 13C23.2975 13 13 23.2975 13 36C13 48.7025 23.2975 59 36 59Z" stroke="#F5CC60" stroke-width="0.5" stroke-miterlimit="10"/>
<path d="M36 51.359C38.6283 51.359 40.759 49.2283 40.759 46.6C40.759 43.9717 38.6283 41.841 36 41.841C33.3717 41.841 31.241 43.9717 31.241 46.6C31.241 49.2283 33.3717 51.359 36 51.359Z" stroke="black" stroke-width="2" stroke-miterlimit="10" stroke-linecap="round" stroke-linejoin="round"/>
<defs>
<filter id="filter0_i" x="13.4" y="13.32" width="45.6" height="47.7936" filterUnits="userSpaceOnUse" color-interpolation-filters="sRGB">
<feFlood flood-opacity="0" result="BackgroundImageFix"/>
<feBlend mode="normal" in="SourceGraphic" in2="BackgroundImageFix" result="shape"/>
<feColorMatrix in="SourceAlpha" type="matrix" values="0 0 0 0 0 0 0 0 0 0 0 0 0 0 0 0 0 0 127 0" result="hardAlpha"/>
<feOffset dy="2.19361"/>
<feGaussianBlur stdDeviation="1.09681"/>
<feComposite in2="hardAlpha" operator="arithmetic" k2="-1" k3="1"/>
<feColorMatrix type="matrix" values="0 0 0 0 0 0 0 0 0 0 0 0 0 0 0 0 0 0 0.1 0"/>
<feBlend mode="normal" in2="shape" result="effect1_innerShadow"/>
</filter>
<radialGradient id="paint0_radial" cx="0" cy="0" r="1" gradientUnits="userSpaceOnUse" gradientTransform="translate(35.5096 25.32) rotate(87.2844) scale(39.6445)">
<stop offset="0.453125" stop-color="#FFCC48"/>
<stop offset="0.874464" stop-color="#F29F23"/>
</radialGradient>
<radialGradient id="paint1_radial" cx="0" cy="0" r="1" gradientUnits="userSpaceOnUse" gradientTransform="translate(36.1357 22.6591) rotate(89.8984) scale(36.2609)">
<stop offset="0.140625" stop-color="white"/>
<stop offset="0.473958" stop-color="white" stop-opacity="0"/>
</radialGradient>
</defs>
</svg>
