<svg  viewBox="0 0 72 72" fill="none" xmlns="http://www.w3.org/2000/svg">
<g filter="url(#filter0_i)">
<path d="M36 12C22.77 12 12 22.77 12 36C12 49.23 22.77 60 36 60C49.23 60 60 49.23 60 36C60 22.77 49.23 12 36 12Z" fill="url(#paint0_radial)"/>
<path d="M36 12C22.77 12 12 22.77 12 36C12 49.23 22.77 60 36 60C49.23 60 60 49.23 60 36C60 22.77 49.23 12 36 12Z" fill="url(#paint1_radial)" fill-opacity="0.31"/>
</g>
<path d="M36 60C49.2548 60 60 49.2548 60 36C60 22.7452 49.2548 12 36 12C22.7452 12 12 22.7452 12 36C12 49.2548 22.7452 60 36 60Z" stroke="#F5CC60" stroke-width="0.5" stroke-miterlimit="10"/>
<path d="M22.88 23.92C27.982 23.8587 30.153 22.038 31.263 20.574" stroke="black" stroke-width="2" stroke-miterlimit="10" stroke-linecap="round" stroke-linejoin="round"/>
<path d="M46.24 47.56C46.24 44.968 43.373 40.439 35.99 40.63C29.016 40.8112 25.77 45.148 25.77 47.741C25.77 50.334 30.041 46.13 35.82 46.249C42.137 46.379 46.25 50.152 46.25 47.56H46.24Z" fill="black" stroke="black" stroke-width="2" stroke-miterlimit="10"/>
<path d="M49.12 23.92C44.018 23.8587 41.847 22.038 40.737 20.574" stroke="black" stroke-width="2" stroke-miterlimit="10" stroke-linecap="round" stroke-linejoin="round"/>
<path d="M48.24 30.51C42.041 31.98 41.161 31.569 39.372 28.549" stroke="black" stroke-width="2" stroke-miterlimit="10" stroke-linecap="round" stroke-linejoin="round"/>
<path d="M23.76 30.51C29.959 31.98 30.839 31.569 32.628 28.549" stroke="black" stroke-width="2" stroke-miterlimit="10" stroke-linecap="round" stroke-linejoin="round"/>
<defs>
<filter id="filter0_i" x="12" y="12" width="48" height="50.1936" filterUnits="userSpaceOnUse" color-interpolation-filters="sRGB">
<feFlood flood-opacity="0" result="BackgroundImageFix"/>
<feBlend mode="normal" in="SourceGraphic" in2="BackgroundImageFix" result="shape"/>
<feColorMatrix in="SourceAlpha" type="matrix" values="0 0 0 0 0 0 0 0 0 0 0 0 0 0 0 0 0 0 127 0" result="hardAlpha"/>
<feOffset dy="2.19361"/>
<feGaussianBlur stdDeviation="1.09681"/>
<feComposite in2="hardAlpha" operator="arithmetic" k2="-1" k3="1"/>
<feColorMatrix type="matrix" values="0 0 0 0 0 0 0 0 0 0 0 0 0 0 0 0 0 0 0.1 0"/>
<feBlend mode="normal" in2="shape" result="effect1_innerShadow"/>
</filter>
<radialGradient id="paint0_radial" cx="0" cy="0" r="1" gradientUnits="userSpaceOnUse" gradientTransform="translate(35.2733 24.6316) rotate(87.2844) scale(41.7311)">
<stop offset="0.453125" stop-color="#FFCC48"/>
<stop offset="0.874464" stop-color="#F29F23"/>
</radialGradient>
<radialGradient id="paint1_radial" cx="0" cy="0" r="1" gradientUnits="userSpaceOnUse" gradientTransform="translate(35.9323 21.8307) rotate(89.8984) scale(38.1694)">
<stop offset="0.140625" stop-color="white"/>
<stop offset="0.473958" stop-color="white" stop-opacity="0"/>
</radialGradient>
</defs>
</svg>
