<svg  viewBox="0 0 72 72" fill="none" xmlns="http://www.w3.org/2000/svg">
<g filter="url(#filter0_i)">
<path d="M36 13.2002C23.4281 13.2002 13.2002 23.4281 13.2002 36C13.2002 48.5718 23.4281 58.7998 36 58.7998C48.5718 58.7998 58.7998 48.5718 58.7998 36C58.7998 23.4281 48.5718 13.2002 36 13.2002Z" fill="url(#paint0_radial)"/>
<path d="M36 13.2002C23.4281 13.2002 13.2002 23.4281 13.2002 36C13.2002 48.5718 23.4281 58.7998 36 58.7998C48.5718 58.7998 58.7998 48.5718 58.7998 36C58.7998 23.4281 48.5718 13.2002 36 13.2002Z" fill="url(#paint1_radial)" fill-opacity="0.31"/>
</g>
<path d="M36 59C48.7025 59 59 48.7025 59 36C59 23.2975 48.7025 13 36 13C23.2975 13 13 23.2975 13 36C13 48.7025 23.2975 59 36 59Z" stroke="#F5CC60" stroke-width="0.5" stroke-miterlimit="10"/>
<path d="M21.88 23.92C26.982 23.8587 29.153 22.038 30.263 20.574" stroke="black" stroke-width="2" stroke-miterlimit="10" stroke-linecap="round" stroke-linejoin="round"/>
<path d="M46.24 47.56C46.24 44.968 43.373 40.439 35.99 40.63C29.016 40.8112 25.77 45.148 25.77 47.741C25.77 50.334 30.041 46.13 35.82 46.249C42.137 46.379 46.25 50.152 46.25 47.56H46.24Z" fill="black" stroke="black" stroke-width="2" stroke-miterlimit="10"/>
<path d="M23.16 28.47C28.375 29.908 28.763 29.3796 31.364 29.677C32.432 29.7991 29.334 32.347 24.082 34.074" stroke="black" stroke-width="2" stroke-miterlimit="10" stroke-linecap="round" stroke-linejoin="round"/>
<path d="M50.12 23.92C45.018 23.8587 42.847 22.038 41.737 20.574" stroke="black" stroke-width="2" stroke-miterlimit="10" stroke-linecap="round" stroke-linejoin="round"/>
<path d="M48.84 28.47C43.625 29.908 43.237 29.3796 40.636 29.677C39.568 29.7991 42.666 32.347 47.918 34.074" stroke="black" stroke-width="2" stroke-miterlimit="10" stroke-linecap="round" stroke-linejoin="round"/>
<defs>
<filter id="filter0_i" x="13.2002" y="13.2002" width="45.5996" height="47.7932" filterUnits="userSpaceOnUse" color-interpolation-filters="sRGB">
<feFlood flood-opacity="0" result="BackgroundImageFix"/>
<feBlend mode="normal" in="SourceGraphic" in2="BackgroundImageFix" result="shape"/>
<feColorMatrix in="SourceAlpha" type="matrix" values="0 0 0 0 0 0 0 0 0 0 0 0 0 0 0 0 0 0 127 0" result="hardAlpha"/>
<feOffset dy="2.19361"/>
<feGaussianBlur stdDeviation="1.09681"/>
<feComposite in2="hardAlpha" operator="arithmetic" k2="-1" k3="1"/>
<feColorMatrix type="matrix" values="0 0 0 0 0 0 0 0 0 0 0 0 0 0 0 0 0 0 0.1 0"/>
<feBlend mode="normal" in2="shape" result="effect1_innerShadow"/>
</filter>
<radialGradient id="paint0_radial" cx="0" cy="0" r="1" gradientUnits="userSpaceOnUse" gradientTransform="translate(35.3096 25.2001) rotate(87.2844) scale(39.6442)">
<stop offset="0.453125" stop-color="#FFCC48"/>
<stop offset="0.874464" stop-color="#F29F23"/>
</radialGradient>
<radialGradient id="paint1_radial" cx="0" cy="0" r="1" gradientUnits="userSpaceOnUse" gradientTransform="translate(35.9357 22.5392) rotate(89.8984) scale(36.2606)">
<stop offset="0.140625" stop-color="white"/>
<stop offset="0.473958" stop-color="white" stop-opacity="0"/>
</radialGradient>
</defs>
</svg>
