<svg  viewBox="0 0 72 72" fill="none" xmlns="http://www.w3.org/2000/svg">
<g filter="url(#filter0_i)">
<path d="M12 36C12 49.2336 22.7664 60 36 60C49.2337 60 60 49.2336 60 36C60 22.7663 49.2337 12 36 12C22.7664 12 12 22.7663 12 36Z" fill="url(#paint0_radial)"/>
<path d="M12 36C12 49.2336 22.7664 60 36 60C49.2337 60 60 49.2336 60 36C60 22.7663 49.2337 12 36 12C22.7664 12 12 22.7663 12 36Z" fill="url(#paint1_radial)" fill-opacity="0.31"/>
</g>
<path d="M14.7403 47.3629C13.0454 49.6206 13.5015 52.8365 15.7588 54.5346C17.942 56.1776 21.2837 55.706 22.9292 53.5178C25.5564 50.024 25.6239 45.6709 25.4686 42.9097C22.7721 43.5279 17.369 43.8689 14.7403 47.3629Z" fill="#92D3F5"/>
<path d="M25.1656 56.2934C28.394 58.0206 32.0826 59 36 59C48.7025 59 59 48.7025 59 36C59 23.2975 48.7025 13 36 13C23.2975 13 13 23.2975 13 36C13 38.0737 13.2744 40.0832 13.7889 41.9944" stroke="#F5CC60" stroke-width="0.5" stroke-miterlimit="10" stroke-linecap="round" stroke-linejoin="round"/>
<path d="M41 31.0774C41.4132 31.4214 43.2456 32.8689 45.9091 32.7138C48.0699 32.5879 49.5191 31.4805 50 31.0774" stroke="black" stroke-width="2" stroke-miterlimit="10" stroke-linecap="round" stroke-linejoin="round"/>
<path d="M23 31.0774C23.4132 31.4214 25.2456 32.8689 27.9091 32.7138C30.0699 32.5879 31.5191 31.4805 32 31.0774" stroke="black" stroke-width="2" stroke-miterlimit="10" stroke-linecap="round" stroke-linejoin="round"/>
<path d="M18.9757 55.0045C20.3246 54.913 21.5571 54.3017 22.4459 53.2831C25.3725 49.9306 25.0035 43.9564 24.9864 43.7039C24.9508 43.1787 24.4965 42.7825 23.9716 42.8181C23.7187 42.8353 17.7494 43.2766 14.8215 46.6291H14.821C12.988 48.7308 13.2057 51.9335 15.307 53.7674C16.3235 54.6568 17.6268 55.096 18.9757 55.0045Z" stroke="black" stroke-width="2" stroke-miterlimit="10"/>
<path d="M42 46C40.7159 45.3624 38.0153 44.9692 35.1579 45.0019C32.5344 45.0319 30.1682 45.4165 29 46" stroke="black" stroke-width="2" stroke-miterlimit="10" stroke-linecap="round" stroke-linejoin="round"/>
<path d="M51.1367 26.3462C49.3882 26.8982 47.4994 26.7831 45.8319 26.0219C44.0842 25.4367 42.6202 24.219 41.7221 22.6108" stroke="black" stroke-width="2" stroke-miterlimit="10" stroke-linecap="round" stroke-linejoin="round"/>
<path d="M20.8998 26.3355C24.5143 27.3236 28.3486 25.8094 30.3128 22.6179" stroke="black" stroke-width="2" stroke-miterlimit="10" stroke-linecap="round" stroke-linejoin="round"/>
<defs>
<filter id="filter0_i" x="12" y="12" width="48" height="50.1936" filterUnits="userSpaceOnUse" color-interpolation-filters="sRGB">
<feFlood flood-opacity="0" result="BackgroundImageFix"/>
<feBlend mode="normal" in="SourceGraphic" in2="BackgroundImageFix" result="shape"/>
<feColorMatrix in="SourceAlpha" type="matrix" values="0 0 0 0 0 0 0 0 0 0 0 0 0 0 0 0 0 0 127 0" result="hardAlpha"/>
<feOffset dy="2.19361"/>
<feGaussianBlur stdDeviation="1.09681"/>
<feComposite in2="hardAlpha" operator="arithmetic" k2="-1" k3="1"/>
<feColorMatrix type="matrix" values="0 0 0 0 0 0 0 0 0 0 0 0 0 0 0 0 0 0 0.1 0"/>
<feBlend mode="normal" in2="shape" result="effect1_innerShadow"/>
</filter>
<radialGradient id="paint0_radial" cx="0" cy="0" r="1" gradientUnits="userSpaceOnUse" gradientTransform="translate(35.2733 24.6316) rotate(87.2844) scale(41.7311)">
<stop offset="0.453125" stop-color="#FFCC48"/>
<stop offset="0.874464" stop-color="#F29F23"/>
</radialGradient>
<radialGradient id="paint1_radial" cx="0" cy="0" r="1" gradientUnits="userSpaceOnUse" gradientTransform="translate(35.9323 21.8307) rotate(89.8984) scale(38.1694)">
<stop offset="0.140625" stop-color="white"/>
<stop offset="0.473958" stop-color="white" stop-opacity="0"/>
</radialGradient>
</defs>
</svg>
