<svg  viewBox="0 0 72 72" fill="none" xmlns="http://www.w3.org/2000/svg">
<g filter="url(#filter0_i)">
<path d="M36.29 12C23.21 12 12 22.74 12 35.94C12 49.14 22.33 60 36.29 60C49.37 60 60 49.14 60 35.94C60 22.74 49.36 12 36.29 12Z" fill="url(#paint0_radial)"/>
<path d="M36.29 12C23.21 12 12 22.74 12 35.94C12 49.14 22.33 60 36.29 60C49.37 60 60 49.14 60 35.94C60 22.74 49.36 12 36.29 12Z" fill="url(#paint1_radial)" fill-opacity="0.31"/>
</g>
<path d="M33.25 30.85C33.25 34.302 30.448 37.1 27 37.1C23.552 37.1 20.75 34.302 20.75 30.85C20.75 27.402 23.552 24.6 27 24.6C30.448 24.6 33.25 27.402 33.25 30.85Z" fill="white"/>
<path d="M51.25 30.85C51.25 34.302 48.448 37.1 45 37.1C41.552 37.1 38.75 34.302 38.75 30.85C38.75 27.402 41.552 24.6 45 24.6C48.448 24.6 51.25 27.402 51.25 30.85Z" fill="white"/>
<path d="M28 49.38C28.2704 49.0238 31.31 41.162 36.421 41.376C41.026 41.5687 43.65 48.917 44 49.38H28Z" fill="white"/>
<g filter="url(#filter1_i)">
<path d="M50.07 65.35C51.0571 61.333 51.0006 62.159 51.294 59.393C50.8311 58.053 50.273 55.97 50.2999 53.447C50.3212 51.469 50.6854 50.779 51.6289 46.548C52.8699 40.98 52.8069 39.634 53.5139 39.591C54.7829 39.5143 56.8739 43.738 57.7149 47.398C58.6083 51.284 57.5072 56.72 57.5072 56.72L58.0477 62.309" fill="url(#paint2_radial)"/>
<path d="M50.07 65.35C51.0571 61.333 51.0006 62.159 51.294 59.393C50.8311 58.053 50.273 55.97 50.2999 53.447C50.3212 51.469 50.6854 50.779 51.6289 46.548C52.8699 40.98 52.8069 39.634 53.5139 39.591C54.7829 39.5143 56.8739 43.738 57.7149 47.398C58.6083 51.284 57.5072 56.72 57.5072 56.72L58.0477 62.309" fill="url(#paint3_radial)" fill-opacity="0.31"/>
</g>
<g filter="url(#filter2_i)">
<path d="M22.37 65.47C21.3829 61.453 21.4394 62.279 21.146 59.513C21.6089 58.173 22.167 56.09 22.1401 53.567C22.1188 51.589 21.7546 50.899 20.8111 46.668C19.5701 41.1 19.6331 39.754 18.9261 39.711C17.6571 39.6343 15.5661 43.858 14.7251 47.518C13.8317 51.404 14.9328 56.84 14.9328 56.84L14.3923 62.429" fill="url(#paint4_radial)"/>
<path d="M22.37 65.47C21.3829 61.453 21.4394 62.279 21.146 59.513C21.6089 58.173 22.167 56.09 22.1401 53.567C22.1188 51.589 21.7546 50.899 20.8111 46.668C19.5701 41.1 19.6331 39.754 18.9261 39.711C17.6571 39.6343 15.5661 43.858 14.7251 47.518C13.8317 51.404 14.9328 56.84 14.9328 56.84L14.3923 62.429" fill="url(#paint5_radial)" fill-opacity="0.31"/>
</g>
<g filter="url(#filter3_i)">
<path d="M21 24C22 23 25.998 18.397 32 22.998" stroke="black" stroke-width="2" stroke-miterlimit="10" stroke-linecap="round" stroke-linejoin="round"/>
<path d="M33.25 31.46C33.25 34.912 30.448 37.71 27 37.71C23.552 37.71 20.75 34.912 20.75 31.46C20.75 28.012 23.552 25.21 27 25.21C30.448 25.21 33.25 28.012 33.25 31.46Z" stroke="black" stroke-width="2" stroke-miterlimit="10"/>
<path d="M29 31.46C29 32.564 28.1035 33.46 27 33.46C25.8965 33.46 25 32.5645 25 31.46C25 30.356 25.8965 29.46 27 29.46C28.1035 29.46 29 30.3565 29 31.46Z" fill="black"/>
<path d="M51.25 31.46C51.25 34.912 48.448 37.71 45 37.71C41.552 37.71 38.75 34.912 38.75 31.46C38.75 28.012 41.552 25.21 45 25.21C48.448 25.21 51.25 28.012 51.25 31.46Z" stroke="black" stroke-width="2" stroke-miterlimit="10"/>
<path d="M47 31.46C47 32.564 46.1035 33.46 45 33.46C43.8965 33.46 43 32.5645 43 31.46C43 30.356 43.8965 29.46 45 29.46C46.1035 29.46 47 30.3565 47 31.46Z" fill="black"/>
<path d="M28 50C28.2704 49.6438 29 42 36.421 41.996C43 41.9927 43.65 49.537 44 50H28Z" stroke="black" stroke-width="2" stroke-miterlimit="10" stroke-linecap="round" stroke-linejoin="round"/>
<path d="M47.8236 56.8919C44.334 58.8705 40.2996 60.0006 36.0002 60.0006C31.8323 60.0006 27.9137 58.9383 24.5003 57.0704" stroke="#F5CC60" stroke-width="0.5" stroke-miterlimit="10" stroke-linecap="round" stroke-linejoin="round"/>
<path d="M12.2177 39.2038C12.1055 37.7658 11.9621 37.4944 11.9968 35.997C12.3044 22.7439 22.7454 11.9954 35.9984 11.9954C49.2515 11.9954 60 22.7439 60 35.997C60 37.1167 59.9233 38.2187 59.775 39.2977" stroke="#F5CC60" stroke-width="0.5" stroke-miterlimit="10" stroke-linecap="round" stroke-linejoin="round"/>
<path d="M49.81 64.32C51.018 60.364 50.7231 62.166 51.169 59.421C50.7812 58.057 50.3391 55.947 50.5062 53.429C50.6372 51.456 52.9242 50.221 53.3472 45.672C53.7647 41.595 53.7758 39.776 54.4842 39.773C55.7552 39.7668 57.6092 44.1 58.2462 47.801C58.9226 51.731 56.5792 57.192 56.5792 57.192L57.9442 61.727" stroke="black" stroke-width="2" stroke-miterlimit="10" stroke-linecap="round" stroke-linejoin="round"/>
<path d="M22.57 64.32C21.362 60.364 21.6569 62.166 21.211 59.421C21.5988 58.057 22.0409 55.947 21.8738 53.429C21.7428 51.456 19.4558 50.221 19.0328 45.672C18.6153 41.595 18.6042 39.776 17.8958 39.773C16.6248 39.7668 14.7708 44.1 14.1338 47.801C13.4574 51.731 15.8008 57.192 15.8008 57.192L14.4358 61.727" stroke="black" stroke-width="2" stroke-miterlimit="10" stroke-linecap="round" stroke-linejoin="round"/>
<path d="M51.48 24C50.48 23 46.482 18.397 40.48 22.998" stroke="black" stroke-width="2" stroke-miterlimit="10" stroke-linecap="round" stroke-linejoin="round"/>
</g>
<defs>
<filter id="filter0_i" x="12" y="12" width="48" height="50.1936" filterUnits="userSpaceOnUse" color-interpolation-filters="sRGB">
<feFlood flood-opacity="0" result="BackgroundImageFix"/>
<feBlend mode="normal" in="SourceGraphic" in2="BackgroundImageFix" result="shape"/>
<feColorMatrix in="SourceAlpha" type="matrix" values="0 0 0 0 0 0 0 0 0 0 0 0 0 0 0 0 0 0 127 0" result="hardAlpha"/>
<feOffset dy="2.19361"/>
<feGaussianBlur stdDeviation="1.09681"/>
<feComposite in2="hardAlpha" operator="arithmetic" k2="-1" k3="1"/>
<feColorMatrix type="matrix" values="0 0 0 0 0 0 0 0 0 0 0 0 0 0 0 0 0 0 0.1 0"/>
<feBlend mode="normal" in2="shape" result="effect1_innerShadow"/>
</filter>
<filter id="filter1_i" x="50.07" y="39.59" width="7.99445" height="27.9536" filterUnits="userSpaceOnUse" color-interpolation-filters="sRGB">
<feFlood flood-opacity="0" result="BackgroundImageFix"/>
<feBlend mode="normal" in="SourceGraphic" in2="BackgroundImageFix" result="shape"/>
<feColorMatrix in="SourceAlpha" type="matrix" values="0 0 0 0 0 0 0 0 0 0 0 0 0 0 0 0 0 0 127 0" result="hardAlpha"/>
<feOffset dy="2.19361"/>
<feGaussianBlur stdDeviation="1.09681"/>
<feComposite in2="hardAlpha" operator="arithmetic" k2="-1" k3="1"/>
<feColorMatrix type="matrix" values="0 0 0 0 0 0 0 0 0 0 0 0 0 0 0 0 0 0 0.1 0"/>
<feBlend mode="normal" in2="shape" result="effect1_innerShadow"/>
</filter>
<filter id="filter2_i" x="14.3755" y="39.71" width="7.99445" height="27.9536" filterUnits="userSpaceOnUse" color-interpolation-filters="sRGB">
<feFlood flood-opacity="0" result="BackgroundImageFix"/>
<feBlend mode="normal" in="SourceGraphic" in2="BackgroundImageFix" result="shape"/>
<feColorMatrix in="SourceAlpha" type="matrix" values="0 0 0 0 0 0 0 0 0 0 0 0 0 0 0 0 0 0 127 0" result="hardAlpha"/>
<feOffset dy="2.19361"/>
<feGaussianBlur stdDeviation="1.09681"/>
<feComposite in2="hardAlpha" operator="arithmetic" k2="-1" k3="1"/>
<feColorMatrix type="matrix" values="0 0 0 0 0 0 0 0 0 0 0 0 0 0 0 0 0 0 0.1 0"/>
<feBlend mode="normal" in2="shape" result="effect1_innerShadow"/>
</filter>
<filter id="filter3_i" x="11.7416" y="11.7454" width="48.5084" height="55.7685" filterUnits="userSpaceOnUse" color-interpolation-filters="sRGB">
<feFlood flood-opacity="0" result="BackgroundImageFix"/>
<feBlend mode="normal" in="SourceGraphic" in2="BackgroundImageFix" result="shape"/>
<feColorMatrix in="SourceAlpha" type="matrix" values="0 0 0 0 0 0 0 0 0 0 0 0 0 0 0 0 0 0 127 0" result="hardAlpha"/>
<feOffset dy="2.19361"/>
<feGaussianBlur stdDeviation="1.09681"/>
<feComposite in2="hardAlpha" operator="arithmetic" k2="-1" k3="1"/>
<feColorMatrix type="matrix" values="0 0 0 0 0 0 0 0 0 0 0 0 0 0 0 0 0 0 0.1 0"/>
<feBlend mode="normal" in2="shape" result="effect1_innerShadow"/>
</filter>
<radialGradient id="paint0_radial" cx="0" cy="0" r="1" gradientUnits="userSpaceOnUse" gradientTransform="translate(35.2733 24.6316) rotate(87.2844) scale(41.7311)">
<stop offset="0.453125" stop-color="#FFCC48"/>
<stop offset="0.874464" stop-color="#F29F23"/>
</radialGradient>
<radialGradient id="paint1_radial" cx="0" cy="0" r="1" gradientUnits="userSpaceOnUse" gradientTransform="translate(35.9323 21.8307) rotate(89.8984) scale(38.1694)">
<stop offset="0.140625" stop-color="white"/>
<stop offset="0.473958" stop-color="white" stop-opacity="0"/>
</radialGradient>
<radialGradient id="paint2_radial" cx="0" cy="0" r="1" gradientUnits="userSpaceOnUse" gradientTransform="translate(53.9462 46.3689) rotate(89.1567) scale(22.373 6.95742)">
<stop offset="0.453125" stop-color="#FFCC48"/>
<stop offset="0.874464" stop-color="#F29F23"/>
</radialGradient>
<radialGradient id="paint3_radial" cx="0" cy="0" r="1" gradientUnits="userSpaceOnUse" gradientTransform="translate(54.0559 44.8658) rotate(89.9685) scale(20.4842 6.35716)">
<stop offset="0.140625" stop-color="white"/>
<stop offset="0.473958" stop-color="white" stop-opacity="0"/>
</radialGradient>
<radialGradient id="paint4_radial" cx="0" cy="0" r="1" gradientUnits="userSpaceOnUse" gradientTransform="translate(18.2517 46.4889) rotate(89.1567) scale(22.373 6.95742)">
<stop offset="0.453125" stop-color="#FFCC48"/>
<stop offset="0.874464" stop-color="#F29F23"/>
</radialGradient>
<radialGradient id="paint5_radial" cx="0" cy="0" r="1" gradientUnits="userSpaceOnUse" gradientTransform="translate(18.3615 44.9858) rotate(89.9685) scale(20.4842 6.35716)">
<stop offset="0.140625" stop-color="white"/>
<stop offset="0.473958" stop-color="white" stop-opacity="0"/>
</radialGradient>
</defs>
</svg>
