<svg  viewBox="0 0 72 72" fill="none" xmlns="http://www.w3.org/2000/svg">
<g filter="url(#filter0_i)">
<path d="M36 60C49.2548 60 60 49.2548 60 36C60 22.7452 49.2548 12 36 12C22.7452 12 12 22.7452 12 36C12 49.2548 22.7452 60 36 60Z" fill="url(#paint0_radial)"/>
<path d="M36 60C49.2548 60 60 49.2548 60 36C60 22.7452 49.2548 12 36 12C22.7452 12 12 22.7452 12 36C12 49.2548 22.7452 60 36 60Z" fill="url(#paint1_radial)" fill-opacity="0.31"/>
</g>
<path d="M36 51.5477C37.8801 51.5477 39.4042 50.0236 39.4042 48.1435C39.4042 46.2634 37.8801 44.7393 36 44.7393C34.1199 44.7393 32.5958 46.2634 32.5958 48.1435C32.5958 50.0236 34.1199 51.5477 36 51.5477Z" fill="white"/>
<path d="M45.1506 13.8061C44.7668 13.6477 44.3779 13.4989 43.9844 13.3601C41.4866 12.4792 38.7992 12 36 12C22.7446 12 12 22.7446 12 36C12 49.2545 22.7446 60 36 60C49.2545 60 60 49.2545 60 36C60 33.0536 59.4691 30.2312 58.4977 27.6234" stroke="#F5CC60" stroke-width="0.5" stroke-miterlimit="10" stroke-linecap="round" stroke-linejoin="round"/>
<path d="M36 51.5477C37.8801 51.5477 39.4042 50.0236 39.4042 48.1435C39.4042 46.2634 37.8801 44.7393 36 44.7393C34.1199 44.7393 32.5958 46.2634 32.5958 48.1435C32.5958 50.0236 34.1199 51.5477 36 51.5477Z" stroke="black" stroke-width="2" stroke-miterlimit="10" stroke-linecap="round" stroke-linejoin="round"/>
<path d="M50.1652 32.8593C46.9894 35.2029 42.7089 34.9203 40.1652 32.8593" stroke="black" stroke-width="2" stroke-miterlimit="10" stroke-linecap="round" stroke-linejoin="round"/>
<path d="M31.8348 32.8593C28.659 35.2029 24.3785 34.9203 21.8348 32.8593" stroke="black" stroke-width="2" stroke-miterlimit="10" stroke-linecap="round" stroke-linejoin="round"/>
<path d="M44.8748 24.0258H42.2586C41.9022 24.0258 41.5731 23.8359 41.3934 23.5278C41.2147 23.2192 41.2137 22.8393 41.3905 22.5298L43.1512 19.4478H42.2586C41.7059 19.4478 41.2586 19 41.2586 18.4478C41.2586 17.8956 41.7059 17.4478 42.2586 17.4478H44.8748C45.2312 17.4478 45.5603 17.6377 45.74 17.9458C45.9187 18.2544 45.9197 18.6343 45.7429 18.9438L43.9822 22.0258H44.8748C45.4275 22.0258 45.8748 22.4736 45.8748 23.0258C45.8748 23.578 45.4275 24.0258 44.8748 24.0258Z" fill="black"/>
<path d="M51.0184 20.0258H47.2586C46.9022 20.0258 46.5731 19.8359 46.3934 19.5278C46.2147 19.2192 46.2137 18.8393 46.3905 18.5298L49.2948 13.4478H47.2587C46.706 13.4478 46.2587 13 46.2587 12.4478C46.2587 11.8956 46.706 11.4478 47.2587 11.4478H51.0185C51.3749 11.4478 51.704 11.6377 51.8837 11.9458C52.0624 12.2544 52.0634 12.6343 51.8866 12.9438L48.9822 18.0258H51.0183C51.571 18.0258 52.0183 18.4736 52.0183 19.0258C52.0183 19.578 51.5711 20.0258 51.0184 20.0258Z" fill="black"/>
<path d="M59.1609 25.0258H54.2586C53.9022 25.0258 53.5731 24.8359 53.3934 24.5278C53.2147 24.2192 53.2137 23.8393 53.3905 23.5298L57.4374 16.4478H54.2587C53.706 16.4478 53.2587 16 53.2587 15.4478C53.2587 14.8956 53.706 14.4478 54.2587 14.4478H59.161C59.5174 14.4478 59.8465 14.6377 60.0262 14.9458C60.2049 15.2544 60.2059 15.6343 60.0291 15.9438L55.9822 23.0258H59.1609C59.7136 23.0258 60.1609 23.4736 60.1609 24.0258C60.1609 24.578 59.7137 25.0258 59.1609 25.0258Z" fill="black"/>
<path d="M44.8748 24.0258H42.2586C41.9022 24.0258 41.5731 23.8359 41.3934 23.5278C41.2147 23.2192 41.2137 22.8393 41.3905 22.5298L43.1512 19.4478H42.2586C41.7059 19.4478 41.2586 19 41.2586 18.4478C41.2586 17.8956 41.7059 17.4478 42.2586 17.4478H44.8748C45.2312 17.4478 45.5603 17.6377 45.74 17.9458C45.9187 18.2544 45.9197 18.6343 45.7429 18.9438L43.9822 22.0258H44.8748C45.4275 22.0258 45.8748 22.4736 45.8748 23.0258C45.8748 23.578 45.4275 24.0258 44.8748 24.0258Z" fill="#61B2E4" stroke="#61B2E4" stroke-width="0.1" stroke-miterlimit="10"/>
<path d="M51.0184 20.0258H47.2586C46.9022 20.0258 46.5731 19.8359 46.3934 19.5278C46.2147 19.2192 46.2137 18.8393 46.3905 18.5298L49.2948 13.4478H47.2587C46.706 13.4478 46.2587 13 46.2587 12.4478C46.2587 11.8956 46.706 11.4478 47.2587 11.4478H51.0185C51.3749 11.4478 51.704 11.6377 51.8837 11.9458C52.0624 12.2544 52.0634 12.6343 51.8866 12.9438L48.9822 18.0258H51.0183C51.571 18.0258 52.0183 18.4736 52.0183 19.0258C52.0183 19.578 51.5711 20.0258 51.0184 20.0258Z" fill="#61B2E4" stroke="#61B2E4" stroke-width="0.1" stroke-miterlimit="10"/>
<path d="M59.1609 25.0258H54.2586C53.9022 25.0258 53.5731 24.8359 53.3934 24.5278C53.2147 24.2192 53.2137 23.8393 53.3905 23.5298L57.4374 16.4478H54.2587C53.706 16.4478 53.2587 16 53.2587 15.4478C53.2587 14.8956 53.706 14.4478 54.2587 14.4478H59.161C59.5174 14.4478 59.8465 14.6377 60.0262 14.9458C60.2049 15.2544 60.2059 15.6343 60.0291 15.9438L55.9822 23.0258H59.1609C59.7136 23.0258 60.1609 23.4736 60.1609 24.0258C60.1609 24.578 59.7137 25.0258 59.1609 25.0258Z" fill="#61B2E4" stroke="#61B2E4" stroke-width="0.1" stroke-miterlimit="10"/>
<defs>
<filter id="filter0_i" x="12" y="12" width="48" height="50.1936" filterUnits="userSpaceOnUse" color-interpolation-filters="sRGB">
<feFlood flood-opacity="0" result="BackgroundImageFix"/>
<feBlend mode="normal" in="SourceGraphic" in2="BackgroundImageFix" result="shape"/>
<feColorMatrix in="SourceAlpha" type="matrix" values="0 0 0 0 0 0 0 0 0 0 0 0 0 0 0 0 0 0 127 0" result="hardAlpha"/>
<feOffset dy="2.19361"/>
<feGaussianBlur stdDeviation="1.09681"/>
<feComposite in2="hardAlpha" operator="arithmetic" k2="-1" k3="1"/>
<feColorMatrix type="matrix" values="0 0 0 0 0 0 0 0 0 0 0 0 0 0 0 0 0 0 0.1 0"/>
<feBlend mode="normal" in2="shape" result="effect1_innerShadow"/>
</filter>
<radialGradient id="paint0_radial" cx="0" cy="0" r="1" gradientUnits="userSpaceOnUse" gradientTransform="translate(35.2733 24.6316) rotate(87.2844) scale(41.7311)">
<stop offset="0.453125" stop-color="#FFCC48"/>
<stop offset="0.874464" stop-color="#F29F23"/>
</radialGradient>
<radialGradient id="paint1_radial" cx="0" cy="0" r="1" gradientUnits="userSpaceOnUse" gradientTransform="translate(35.9323 21.8307) rotate(89.8984) scale(38.1694)">
<stop offset="0.140625" stop-color="white"/>
<stop offset="0.473958" stop-color="white" stop-opacity="0"/>
</radialGradient>
</defs>
</svg>
