<svg  viewBox="0 0 72 72" fill="none" xmlns="http://www.w3.org/2000/svg">
<path d="M18 39.8839L20 37.8839" stroke="black" stroke-width="2" stroke-miterlimit="10" stroke-linecap="round" stroke-linejoin="round"/>
<path d="M20 43.8839L24 39.8839" stroke="black" stroke-width="2" stroke-miterlimit="10" stroke-linecap="round" stroke-linejoin="round"/>
<path d="M54 39.8839L52 37.8839" stroke="black" stroke-width="2" stroke-miterlimit="10" stroke-linecap="round" stroke-linejoin="round"/>
<path d="M52 43.8839L48 39.8839" stroke="black" stroke-width="2" stroke-miterlimit="10" stroke-linecap="round" stroke-linejoin="round"/>
<g filter="url(#filter0_i)">
<path d="M36 13C23.32 13 13 23.32 13 36C13 48.68 23.32 59 36 59C48.68 59 59 48.68 59 36C59 23.32 48.68 13 36 13Z" fill="url(#paint0_radial)"/>
<path d="M36 13C23.32 13 13 23.32 13 36C13 48.68 23.32 59 36 59C48.68 59 59 48.68 59 36C59 23.32 48.68 13 36 13Z" fill="url(#paint1_radial)" fill-opacity="0.31"/>
</g>
<path d="M33.5 32.31C33.5 35.9 30.586 38.81 27 38.81C23.414 38.81 20.5 35.9 20.5 32.31C20.5 28.724 23.414 25.81 27 25.81C30.586 25.81 33.5 28.724 33.5 32.31Z" fill="white"/>
<path d="M51.5 32.31C51.5 35.9 48.586 38.81 45 38.81C41.414 38.81 38.5 35.9 38.5 32.31C38.5 28.724 41.414 25.81 45 25.81C48.586 25.81 51.5 28.724 51.5 32.31Z" fill="white"/>
<path d="M18 42.5532L20 40.5532" stroke="#EA5A47" stroke-width="2" stroke-miterlimit="10" stroke-linecap="round" stroke-linejoin="round"/>
<path d="M20 46.5532L24 42.5532" stroke="#EA5A47" stroke-width="2" stroke-miterlimit="10" stroke-linecap="round" stroke-linejoin="round"/>
<path d="M54 42.5532L52 40.5532" stroke="#EA5A47" stroke-width="2" stroke-miterlimit="10" stroke-linecap="round" stroke-linejoin="round"/>
<path d="M52 46.5532L48 42.5532" stroke="#EA5A47" stroke-width="2" stroke-miterlimit="10" stroke-linecap="round" stroke-linejoin="round"/>
<path d="M29.56 32.43C29.56 33.841 28.414 34.986 27.004 34.986C25.594 34.986 24.448 33.842 24.448 32.43C24.448 31.02 25.594 29.874 27.004 29.874C28.414 29.874 29.56 31.02 29.56 32.43Z" fill="black"/>
<path d="M47.56 32.43C47.56 33.841 46.414 34.986 45.004 34.986C43.594 34.986 42.448 33.842 42.448 32.43C42.448 31.02 43.594 29.874 45.004 29.874C46.414 29.874 47.56 31.02 47.56 32.43Z" fill="black"/>
<path d="M36 59C48.7025 59 59 48.7025 59 36C59 23.2975 48.7025 13 36 13C23.2975 13 13 23.2975 13 36C13 48.7025 23.2975 59 36 59Z" stroke="#F5CC60" stroke-width="0.5" stroke-miterlimit="10"/>
<path d="M33.5 32.43C33.5 36.02 30.586 38.93 27 38.93C23.414 38.93 20.5 36.02 20.5 32.43C20.5 28.844 23.414 25.93 27 25.93C30.586 25.93 33.5 28.844 33.5 32.43Z" stroke="black" stroke-width="2" stroke-miterlimit="10"/>
<path d="M51.5 32.43C51.5 36.02 48.586 38.93 45 38.93C41.414 38.93 38.5 36.02 38.5 32.43C38.5 28.844 41.414 25.93 45 25.93C48.586 25.93 51.5 28.844 51.5 32.43Z" stroke="black" stroke-width="2" stroke-miterlimit="10"/>
<path d="M21.69 22.44C22.0425 22.034 23.618 20.311 26.272 20.035C28.425 19.8118 30.033 20.6717 30.573 20.9922" stroke="black" stroke-width="2" stroke-miterlimit="10" stroke-linecap="round" stroke-linejoin="round"/>
<path d="M41.43 20.97C41.894 20.6983 43.939 19.57 46.541 20.1597C48.652 20.6378 49.9 21.9677 50.309 22.4437" stroke="black" stroke-width="2" stroke-miterlimit="10" stroke-linecap="round" stroke-linejoin="round"/>
<path d="M42.5 46.5C41.2159 47.1376 30.6682 47.0835 29.5 46.5" stroke="black" stroke-width="2" stroke-miterlimit="10" stroke-linecap="round" stroke-linejoin="round"/>
<defs>
<filter id="filter0_i" x="13" y="13" width="46" height="48.1936" filterUnits="userSpaceOnUse" color-interpolation-filters="sRGB">
<feFlood flood-opacity="0" result="BackgroundImageFix"/>
<feBlend mode="normal" in="SourceGraphic" in2="BackgroundImageFix" result="shape"/>
<feColorMatrix in="SourceAlpha" type="matrix" values="0 0 0 0 0 0 0 0 0 0 0 0 0 0 0 0 0 0 127 0" result="hardAlpha"/>
<feOffset dy="2.19361"/>
<feGaussianBlur stdDeviation="1.09681"/>
<feComposite in2="hardAlpha" operator="arithmetic" k2="-1" k3="1"/>
<feColorMatrix type="matrix" values="0 0 0 0 0 0 0 0 0 0 0 0 0 0 0 0 0 0 0.1 0"/>
<feBlend mode="normal" in2="shape" result="effect1_innerShadow"/>
</filter>
<radialGradient id="paint0_radial" cx="0" cy="0" r="1" gradientUnits="userSpaceOnUse" gradientTransform="translate(35.3035 25.1053) rotate(87.2844) scale(39.9923)">
<stop offset="0.453125" stop-color="#FFCC48"/>
<stop offset="0.874464" stop-color="#F29F23"/>
</radialGradient>
<radialGradient id="paint1_radial" cx="0" cy="0" r="1" gradientUnits="userSpaceOnUse" gradientTransform="translate(35.9351 22.4211) rotate(89.8984) scale(36.579)">
<stop offset="0.140625" stop-color="white"/>
<stop offset="0.473958" stop-color="white" stop-opacity="0"/>
</radialGradient>
</defs>
</svg>
