<svg  viewBox="0 0 72 72" fill="none" xmlns="http://www.w3.org/2000/svg">
<g filter="url(#filter0_i)">
<path d="M36 60.2C49.2548 60.2 60 49.4548 60 36.2C60 22.9452 49.2548 12.2 36 12.2C22.7452 12.2 12 22.9452 12 36.2C12 49.4548 22.7452 60.2 36 60.2Z" fill="url(#paint0_radial)"/>
<path d="M36 60.2C49.2548 60.2 60 49.4548 60 36.2C60 22.9452 49.2548 12.2 36 12.2C22.7452 12.2 12 22.9452 12 36.2C12 49.4548 22.7452 60.2 36 60.2Z" fill="url(#paint1_radial)" fill-opacity="0.31"/>
</g>
<g filter="url(#filter1_i)">
<path d="M19.1 62.3C18.8 61.1 18.7 59.9 18.8 58.7C19 57.6 21.1 52.2 21.5 51.4C21.9 50.6 22.9 46.9 23.9 46.6C24.9 46.3 25.1 46.7 25 47.3C24.9 47.9 24.4 55 24.4 55L33.8 52.2C33.8 52.2 41.5 50.3 41.7 51.2C43.8 53.2 36.3 55.7 34.2 55.6C34.2 55.6 35.3 56.2 35.1 56.9C34.9 57.6 34.3 58.1 34.1 58.1C33.9 58.1 34.6 58.6 34.7 59.5C35.6 61.3 31.9 61.8 31.9 61.8C33.2 61.6 35.2 63.9 32 64.5C31 64.8 27.2 65.9 27.2 65.9C27.2 65.9 23.9 67.1 22 65.8C20.8 65 19.7 63.8 19.1 62.3Z" fill="url(#paint2_radial)"/>
<path d="M19.1 62.3C18.8 61.1 18.7 59.9 18.8 58.7C19 57.6 21.1 52.2 21.5 51.4C21.9 50.6 22.9 46.9 23.9 46.6C24.9 46.3 25.1 46.7 25 47.3C24.9 47.9 24.4 55 24.4 55L33.8 52.2C33.8 52.2 41.5 50.3 41.7 51.2C43.8 53.2 36.3 55.7 34.2 55.6C34.2 55.6 35.3 56.2 35.1 56.9C34.9 57.6 34.3 58.1 34.1 58.1C33.9 58.1 34.6 58.6 34.7 59.5C35.6 61.3 31.9 61.8 31.9 61.8C33.2 61.6 35.2 63.9 32 64.5C31 64.8 27.2 65.9 27.2 65.9C27.2 65.9 23.9 67.1 22 65.8C20.8 65 19.7 63.8 19.1 62.3Z" fill="url(#paint3_radial)" fill-opacity="0.31"/>
</g>
<path d="M28.9 44.5C31.3 43.8 40.8 45 43 46.6" stroke="black" stroke-width="2" stroke-linecap="round" stroke-linejoin="round"/>
<path d="M22.4 22.5C23.7 21.6 25.2 21.2 26.8 21.4C28.4 21.4 29.9 22 31 23.1" stroke="black" stroke-width="2" stroke-linecap="round" stroke-linejoin="round"/>
<path d="M51.1 26.5C48.4 25.8 45.6 25.7 42.9 26.2" stroke="black" stroke-width="2" stroke-linecap="round" stroke-linejoin="round"/>
<path d="M42 58.4C54.3 55.1 61.5 42.5 58.2 30.2C54.9 17.9 42.3 10.7 30 14C20 16.7 13 25.8 13 36.2C13 40.8 14.4 45.4 17 49.2" stroke="#F5CC60" stroke-width="0.5" stroke-linecap="round" stroke-linejoin="round"/>
<path d="M31 30.7C31 32.4 29.7 33.7 28 33.7C26.3 33.7 25 32.4 25 30.7C25 29 26.3 27.7 28 27.7C29.7 27.7 31 29 31 30.7Z" fill="black"/>
<path d="M48 33.7C48 35.4 46.7 36.7 45 36.7C43.3 36.7 42 35.4 42 33.7C42 32 43.3 30.7 45 30.7C46.7 30.7 48 32 48 33.7Z" fill="black"/>
<path d="M19.7 56.7C18.7 58.3 18.5 60.4 19.2 62.2C20.3 65.5 23.2 67.4 26.4 66.4L31.3 65L32.3 64.7C33.1 64.5 33.6 63.6 33.4 62.9C33.2 62.4 32.8 62 32.2 61.9L33.4 61.6C34.2 61.4 34.7 60.5 34.5 59.8C34.3 59.3 33.9 58.8 33.3 58.7L34.5 58.3C35.3 58.1 35.8 57.2 35.6 56.5C35.5 56 35.1 55.6 34.6 55.5L41 53.6C41.8 53.4 42.3 52.5 42.1 51.8C41.9 51.1 41 50.5 40.3 50.7L30.1 53.7L25 55.2L25.6 47.4C25.7 46.5 24.1 46.2 23.5 47.6L19.7 56.7Z" stroke="black" stroke-width="2" stroke-linecap="round" stroke-linejoin="round"/>
<defs>
<filter id="filter0_i" x="12" y="12.2" width="48" height="50.1936" filterUnits="userSpaceOnUse" color-interpolation-filters="sRGB">
<feFlood flood-opacity="0" result="BackgroundImageFix"/>
<feBlend mode="normal" in="SourceGraphic" in2="BackgroundImageFix" result="shape"/>
<feColorMatrix in="SourceAlpha" type="matrix" values="0 0 0 0 0 0 0 0 0 0 0 0 0 0 0 0 0 0 127 0" result="hardAlpha"/>
<feOffset dy="2.19361"/>
<feGaussianBlur stdDeviation="1.09681"/>
<feComposite in2="hardAlpha" operator="arithmetic" k2="-1" k3="1"/>
<feColorMatrix type="matrix" values="0 0 0 0 0 0 0 0 0 0 0 0 0 0 0 0 0 0 0.1 0"/>
<feBlend mode="normal" in2="shape" result="effect1_innerShadow"/>
</filter>
<filter id="filter1_i" x="18.7625" y="46.498" width="23.3047" height="22.1005" filterUnits="userSpaceOnUse" color-interpolation-filters="sRGB">
<feFlood flood-opacity="0" result="BackgroundImageFix"/>
<feBlend mode="normal" in="SourceGraphic" in2="BackgroundImageFix" result="shape"/>
<feColorMatrix in="SourceAlpha" type="matrix" values="0 0 0 0 0 0 0 0 0 0 0 0 0 0 0 0 0 0 127 0" result="hardAlpha"/>
<feOffset dy="2.19361"/>
<feGaussianBlur stdDeviation="1.09681"/>
<feComposite in2="hardAlpha" operator="arithmetic" k2="-1" k3="1"/>
<feColorMatrix type="matrix" values="0 0 0 0 0 0 0 0 0 0 0 0 0 0 0 0 0 0 0.1 0"/>
<feBlend mode="normal" in2="shape" result="effect1_innerShadow"/>
</filter>
<radialGradient id="paint0_radial" cx="0" cy="0" r="1" gradientUnits="userSpaceOnUse" gradientTransform="translate(35.2733 24.8316) rotate(87.2844) scale(41.7311)">
<stop offset="0.453125" stop-color="#FFCC48"/>
<stop offset="0.874464" stop-color="#F29F23"/>
</radialGradient>
<radialGradient id="paint1_radial" cx="0" cy="0" r="1" gradientUnits="userSpaceOnUse" gradientTransform="translate(35.9323 22.0307) rotate(89.8984) scale(38.1694)">
<stop offset="0.140625" stop-color="white"/>
<stop offset="0.473958" stop-color="white" stop-opacity="0"/>
</radialGradient>
<radialGradient id="paint2_radial" cx="0" cy="0" r="1" gradientUnits="userSpaceOnUse" gradientTransform="translate(30.062 51.7366) rotate(86.8218) scale(17.3142 20.2526)">
<stop offset="0.453125" stop-color="#FFCC48"/>
<stop offset="0.874464" stop-color="#F29F23"/>
</radialGradient>
<radialGradient id="paint3_radial" cx="0" cy="0" r="1" gradientUnits="userSpaceOnUse" gradientTransform="translate(30.382 50.575) rotate(89.881) scale(15.8299 18.5318)">
<stop offset="0.140625" stop-color="white"/>
<stop offset="0.473958" stop-color="white" stop-opacity="0"/>
</radialGradient>
</defs>
</svg>
