<svg  viewBox="0 0 72 72" fill="none" xmlns="http://www.w3.org/2000/svg">
<g filter="url(#filter0_i)">
<path d="M36 60C49.2548 60 60 49.2548 60 36C60 22.7452 49.2548 12 36 12C22.7452 12 12 22.7452 12 36C12 49.2548 22.7452 60 36 60Z" fill="url(#paint0_radial)"/>
<path d="M36 60C49.2548 60 60 49.2548 60 36C60 22.7452 49.2548 12 36 12C22.7452 12 12 22.7452 12 36C12 49.2548 22.7452 60 36 60Z" fill="url(#paint1_radial)" fill-opacity="0.31"/>
</g>
<path d="M30.498 53.374C26.202 51.884 24.0366 48.5729 24.0366 44.6905H24.1305C24.1305 44.6905 36.268 47.7532 47.8135 44.7565L47.9741 44.6905C48.0075 46.6418 47.3973 48.5497 46.2377 50.1194C45.0781 51.6891 43.4338 52.8331 41.5589 53.3747" fill="white"/>
<path d="M40.5383 49.2888C40.5383 49.2888 42.0563 58.1078 39.4739 60.2282L39.4994 60.2064C39.0441 60.6753 38.4994 61.0481 37.8975 61.3027C37.2955 61.5572 36.6486 61.6884 35.995 61.6884C35.3415 61.6884 34.6946 61.5572 34.0926 61.3027C33.4907 61.0481 32.946 60.6753 32.4907 60.2064C29.9083 58.0864 31.4263 49.267 31.4263 49.267" fill="#B1CC33"/>
<path d="M30.498 53.374C26.202 51.884 24.0366 48.5729 24.0366 44.6905H24.1305C24.1305 44.6905 36.268 47.7532 47.8135 44.7565L47.9741 44.6905C48.0075 46.6418 47.3973 48.5497 46.2377 50.1194C45.0781 51.6891 43.4338 52.8331 41.5589 53.3747" stroke="black" stroke-width="2" stroke-linecap="round" stroke-linejoin="round"/>
<path d="M20.2793 27.2C20.9992 25.8148 22.2074 24.7458 23.67 24.2C25.075 23.5007 26.6902 23.3506 28.2 23.7791" stroke="black" stroke-width="2" stroke-linecap="round" stroke-linejoin="round"/>
<path d="M50.89 27.2C50.1195 25.8502 48.9323 24.7864 47.5064 24.168C46.0804 23.5497 44.4925 23.41 42.9805 23.77" stroke="black" stroke-width="2" stroke-linecap="round" stroke-linejoin="round"/>
<path d="M44.324 57.4474C49.3282 55.5046 53.4952 51.8726 56.1031 47.1806C58.7111 42.4886 59.5957 37.0322 58.6038 31.7565C57.6118 26.4809 54.8058 21.7184 50.6718 18.294C46.5377 14.8697 41.3362 12.9992 35.9681 13.0066C30.6 13.014 25.4036 14.8989 21.2791 18.3346C17.1545 21.7704 14.3616 26.5406 13.3843 31.8189C12.4069 37.0973 13.3066 42.5513 15.9275 47.236C18.5484 51.9208 22.7254 55.5413 27.7349 57.4703" stroke="#F5CC60" stroke-width="0.5" stroke-linecap="round" stroke-linejoin="round"/>
<path d="M20.2793 27.2C20.9992 25.8148 22.2074 24.7458 23.67 24.2C25.075 23.5007 26.6902 23.3506 28.2 23.7791" stroke="black" stroke-width="2" stroke-linecap="round" stroke-linejoin="round"/>
<path d="M50.89 27.2C50.1195 25.8502 48.9323 24.7864 47.5064 24.168C46.0804 23.5497 44.4925 23.41 42.9805 23.77" stroke="black" stroke-width="2" stroke-linecap="round" stroke-linejoin="round"/>
<path d="M40.5383 49.2888C40.5383 49.2888 42.0563 58.1078 39.4739 60.2282L39.4994 60.2064C39.0441 60.6753 38.4994 61.0481 37.8975 61.3027C37.2955 61.5572 36.6486 61.6884 35.995 61.6884C35.3415 61.6884 34.6946 61.5572 34.0926 61.3027C33.4907 61.0481 32.946 60.6753 32.4907 60.2064C29.9083 58.0864 31.4263 49.267 31.4263 49.267" stroke="black" stroke-width="2" stroke-linecap="round" stroke-linejoin="round"/>
<path d="M29.23 31.5494C29.0859 31.1555 28.8178 30.8191 28.466 30.5908C28.1142 30.3625 27.6978 30.2547 27.2794 30.2835C26.8063 30.236 26.3334 30.3752 25.9615 30.6713C25.5895 30.9675 25.348 31.3972 25.2883 31.8689C25.348 32.3406 25.5895 32.7703 25.9615 33.0665C26.3334 33.3627 26.8063 33.5018 27.2794 33.4543L27.2394 33.4602C27.7124 33.4129 28.1852 33.5521 28.557 33.8482C28.9288 34.1444 29.1703 34.574 29.23 35.0456C29.1703 35.5173 28.9288 35.947 28.5568 36.2432C28.1849 36.5394 27.712 36.6785 27.2389 36.631V36.631C26.8205 36.6599 26.404 36.552 26.0522 36.3237C25.7004 36.0954 25.4323 35.759 25.2882 35.3651" stroke="black" stroke-width="2" stroke-linecap="round" stroke-linejoin="round"/>
<path d="M27.2589 30.2835V28.7721" stroke="black" stroke-width="2" stroke-linecap="round" stroke-linejoin="round"/>
<path d="M27.2589 38.1424V36.631" stroke="black" stroke-width="2" stroke-linecap="round" stroke-linejoin="round"/>
<path d="M46.2668 31.5494C46.1227 31.1555 45.8546 30.8191 45.5028 30.5908C45.151 30.3625 44.7346 30.2547 44.3162 30.2835V30.2835C43.8431 30.236 43.3702 30.3752 42.9983 30.6713C42.6263 30.9675 42.3848 31.3972 42.3251 31.8689C42.3848 32.3406 42.6263 32.7703 42.9983 33.0665C43.3702 33.3627 43.8431 33.5018 44.3162 33.4543L44.2762 33.4602C44.7493 33.4127 45.2222 33.5519 45.5941 33.848C45.9661 34.1442 46.2076 34.5739 46.2673 35.0456C46.2076 35.5173 45.9661 35.947 45.5942 36.2432C45.2222 36.5394 44.7493 36.6785 44.2762 36.631C43.8578 36.6599 43.4413 36.552 43.0895 36.3237C42.7377 36.0954 42.4696 35.759 42.3255 35.3651" stroke="black" stroke-width="2" stroke-linecap="round" stroke-linejoin="round"/>
<path d="M44.2959 30.2835V28.7721" stroke="black" stroke-width="2" stroke-linecap="round" stroke-linejoin="round"/>
<path d="M44.2959 38.1424V36.631" stroke="black" stroke-width="2" stroke-linecap="round" stroke-linejoin="round"/>
<path d="M37.8973 53.146C37.7533 52.7521 37.4852 52.4157 37.1334 52.1873C36.7816 51.959 36.3651 51.8511 35.9467 51.88C35.7083 51.8252 35.4607 51.8249 35.2222 51.8791C34.9837 51.9333 34.7605 52.0405 34.5691 52.1929C34.3778 52.3452 34.2233 52.5387 34.1171 52.7591C34.0109 52.9794 33.9558 53.2208 33.9558 53.4654C33.9558 53.71 34.0109 53.9514 34.1171 54.1717C34.2233 54.392 34.3778 54.5856 34.5691 54.7379C34.7605 54.8903 34.9837 54.9975 35.2222 55.0517C35.4607 55.1059 35.7083 55.1055 35.9467 55.0508L35.9067 55.0567C36.1451 55.0019 36.3927 55.0016 36.6312 55.0558C36.8697 55.11 37.0929 55.2172 37.2843 55.3696C37.4756 55.5219 37.6301 55.7154 37.7363 55.9358C37.8425 56.1561 37.8976 56.3975 37.8976 56.6421C37.8976 56.8867 37.8425 57.1281 37.7363 57.3484C37.6301 57.5687 37.4756 57.7623 37.2843 57.9146C37.0929 58.067 36.8697 58.1742 36.6312 58.2284C36.3927 58.2826 36.1451 58.2822 35.9067 58.2275V58.2275C35.4883 58.2563 35.0718 58.1485 34.72 57.9202C34.3682 57.6919 34.1001 57.3555 33.956 56.9616" stroke="black" stroke-width="2" stroke-linecap="round" stroke-linejoin="round"/>
<path d="M35.9264 51.8801V50.3686" stroke="black" stroke-width="2" stroke-linecap="round" stroke-linejoin="round"/>
<path d="M35.9264 59.739V58.2276" stroke="black" stroke-width="2" stroke-linecap="round" stroke-linejoin="round"/>
<defs>
<filter id="filter0_i" x="12" y="12" width="48" height="50.1936" filterUnits="userSpaceOnUse" color-interpolation-filters="sRGB">
<feFlood flood-opacity="0" result="BackgroundImageFix"/>
<feBlend mode="normal" in="SourceGraphic" in2="BackgroundImageFix" result="shape"/>
<feColorMatrix in="SourceAlpha" type="matrix" values="0 0 0 0 0 0 0 0 0 0 0 0 0 0 0 0 0 0 127 0" result="hardAlpha"/>
<feOffset dy="2.19361"/>
<feGaussianBlur stdDeviation="1.09681"/>
<feComposite in2="hardAlpha" operator="arithmetic" k2="-1" k3="1"/>
<feColorMatrix type="matrix" values="0 0 0 0 0 0 0 0 0 0 0 0 0 0 0 0 0 0 0.1 0"/>
<feBlend mode="normal" in2="shape" result="effect1_innerShadow"/>
</filter>
<radialGradient id="paint0_radial" cx="0" cy="0" r="1" gradientUnits="userSpaceOnUse" gradientTransform="translate(35.2733 24.6316) rotate(87.2844) scale(41.7311)">
<stop offset="0.453125" stop-color="#FFCC48"/>
<stop offset="0.874464" stop-color="#F29F23"/>
</radialGradient>
<radialGradient id="paint1_radial" cx="0" cy="0" r="1" gradientUnits="userSpaceOnUse" gradientTransform="translate(35.9323 21.8307) rotate(89.8984) scale(38.1694)">
<stop offset="0.140625" stop-color="white"/>
<stop offset="0.473958" stop-color="white" stop-opacity="0"/>
</radialGradient>
</defs>
</svg>
