<svg  viewBox="0 0 72 72" fill="none" xmlns="http://www.w3.org/2000/svg">
<g filter="url(#filter0_i)">
<path d="M36 58.6432C48.7025 58.6432 59 48.3457 59 35.6432C59 22.9406 48.7025 12.6432 36 12.6432C23.2975 12.6432 13 22.9406 13 35.6432C13 48.3457 23.2975 58.6432 36 58.6432Z" fill="url(#paint0_radial)"/>
<path d="M36 58.6432C48.7025 58.6432 59 48.3457 59 35.6432C59 22.9406 48.7025 12.6432 36 12.6432C23.2975 12.6432 13 22.9406 13 35.6432C13 48.3457 23.2975 58.6432 36 58.6432Z" fill="url(#paint1_radial)" fill-opacity="0.31"/>
</g>
<path d="M58.2965 54.1981L56.3503 56.1443C55.4122 57.0824 53.8913 57.0824 52.9533 56.1443L48.0927 51.2837C47.1546 50.3456 47.1546 48.8247 48.0927 47.8867L50.0389 45.9405C50.977 45.0024 52.4979 45.0024 53.4359 45.9405L58.2965 50.8011C59.2345 51.7391 59.2345 53.26 58.2965 54.1981Z" fill="#9B9B9A"/>
<path d="M50.3547 47.7874L49.8425 48.2996C49.5547 48.5874 49.0881 48.5874 48.8004 48.2996L47.1847 46.6839C46.8969 46.3961 46.8969 45.9295 47.1847 45.6418L47.6969 45.1296C47.9847 44.8418 48.4513 44.8418 48.739 45.1296L50.3547 46.7453C50.6425 47.033 50.6425 47.4996 50.3547 47.7874Z" fill="#D0CFCE"/>
<path d="M47.7051 45.6842L24.0398 45.5954" stroke="black" stroke-width="2" stroke-miterlimit="10" stroke-linecap="round" stroke-linejoin="round"/>
<path d="M24.5607 45.8654V49.1684" stroke="black" stroke-width="2" stroke-miterlimit="10" stroke-linecap="round" stroke-linejoin="round"/>
<path d="M26.4723 42.0256V45.3286" stroke="black" stroke-width="2" stroke-miterlimit="10" stroke-linecap="round" stroke-linejoin="round"/>
<path d="M28.4129 45.8654V49.1684" stroke="black" stroke-width="2" stroke-miterlimit="10" stroke-linecap="round" stroke-linejoin="round"/>
<path d="M30.3245 42.0256V45.3286" stroke="black" stroke-width="2" stroke-miterlimit="10" stroke-linecap="round" stroke-linejoin="round"/>
<path d="M32.2527 45.8654V49.1684" stroke="black" stroke-width="2" stroke-miterlimit="10" stroke-linecap="round" stroke-linejoin="round"/>
<path d="M34.1643 42.0256V45.3286" stroke="black" stroke-width="2" stroke-miterlimit="10" stroke-linecap="round" stroke-linejoin="round"/>
<path d="M36.1049 45.8654V49.1684" stroke="black" stroke-width="2" stroke-miterlimit="10" stroke-linecap="round" stroke-linejoin="round"/>
<path d="M38.0165 42.0256V45.3286" stroke="black" stroke-width="2" stroke-miterlimit="10" stroke-linecap="round" stroke-linejoin="round"/>
<path d="M39.9323 45.8654V49.1684" stroke="black" stroke-width="2" stroke-miterlimit="10" stroke-linecap="round" stroke-linejoin="round"/>
<path d="M41.8439 42.0256V45.3286" stroke="black" stroke-width="2" stroke-miterlimit="10" stroke-linecap="round" stroke-linejoin="round"/>
<path d="M43.8134 45.8654V49.1684" stroke="black" stroke-width="2" stroke-miterlimit="10" stroke-linecap="round" stroke-linejoin="round"/>
<path d="M45.7003 42.0256V45.3286" stroke="black" stroke-width="2" stroke-miterlimit="10" stroke-linecap="round" stroke-linejoin="round"/>
<path d="M50.9177 45.3276C51.767 45.02 52.755 45.2066 53.4359 45.8876L58.2965 50.7482C59.2345 51.6862 59.2345 53.2071 58.2965 54.1452L56.3503 56.0914C55.4122 57.0295 53.8913 57.0295 52.9533 56.0914L48.0927 51.2308C47.4466 50.5847 47.2455 49.6621 47.4894 48.8439" stroke="black" stroke-width="2" stroke-miterlimit="10" stroke-linecap="round"/>
<path d="M57.4811 44.2366C58.4623 41.6794 59 38.9025 59 36C59 23.2969 48.7021 13 36 13C23.2977 12.9999 13 23.2969 13 36C13 48.7022 23.2978 59 36 59C40.0701 59 43.8933 57.9426 47.21 56.0877" stroke="#F5CC60" stroke-width="0.5" stroke-miterlimit="10" stroke-linecap="round" stroke-linejoin="round"/>
<path d="M30 31C30 32.6568 28.6552 34 27 34C25.3447 34 24 32.6567 24 31C24 29.3448 25.3447 28 27 28C28.6552 28 30 29.3448 30 31Z" fill="black"/>
<path d="M48 31C48 32.6568 46.6553 34 45 34C43.3447 34 42 32.6567 42 31C42 29.3448 43.3447 28 45 28C46.6553 28 48 29.3448 48 31Z" fill="black"/>
<defs>
<filter id="filter0_i" x="13" y="12.6432" width="46" height="48.1936" filterUnits="userSpaceOnUse" color-interpolation-filters="sRGB">
<feFlood flood-opacity="0" result="BackgroundImageFix"/>
<feBlend mode="normal" in="SourceGraphic" in2="BackgroundImageFix" result="shape"/>
<feColorMatrix in="SourceAlpha" type="matrix" values="0 0 0 0 0 0 0 0 0 0 0 0 0 0 0 0 0 0 127 0" result="hardAlpha"/>
<feOffset dy="2.19361"/>
<feGaussianBlur stdDeviation="1.09681"/>
<feComposite in2="hardAlpha" operator="arithmetic" k2="-1" k3="1"/>
<feColorMatrix type="matrix" values="0 0 0 0 0 0 0 0 0 0 0 0 0 0 0 0 0 0 0.1 0"/>
<feBlend mode="normal" in2="shape" result="effect1_innerShadow"/>
</filter>
<radialGradient id="paint0_radial" cx="0" cy="0" r="1" gradientUnits="userSpaceOnUse" gradientTransform="translate(35.3035 24.7485) rotate(87.2844) scale(39.9923)">
<stop offset="0.453125" stop-color="#FFCC48"/>
<stop offset="0.874464" stop-color="#F29F23"/>
</radialGradient>
<radialGradient id="paint1_radial" cx="0" cy="0" r="1" gradientUnits="userSpaceOnUse" gradientTransform="translate(35.9351 22.0642) rotate(89.8984) scale(36.579)">
<stop offset="0.140625" stop-color="white"/>
<stop offset="0.473958" stop-color="white" stop-opacity="0"/>
</radialGradient>
</defs>
</svg>
