<svg  viewBox="0 0 72 72" fill="none" xmlns="http://www.w3.org/2000/svg">
<path d="M47.7437 38.6413C47.8437 38.5413 48.0437 38.4413 48.2437 38.3413C50.2437 37.7413 52.1437 39.7413 51.5437 41.7413C51.4437 42.0413 51.3437 42.3413 51.0437 42.5413" stroke="black" stroke-width="2" stroke-miterlimit="10" stroke-linecap="round" stroke-linejoin="round"/>
<g filter="url(#filter0_i)">
<path d="M36 60C49.2548 60 60 49.2548 60 36C60 22.7452 49.2548 12 36 12C22.7452 12 12 22.7452 12 36C12 49.2548 22.7452 60 36 60Z" fill="url(#paint0_radial)"/>
<path d="M36 60C49.2548 60 60 49.2548 60 36C60 22.7452 49.2548 12 36 12C22.7452 12 12 22.7452 12 36C12 49.2548 22.7452 60 36 60Z" fill="url(#paint1_radial)" fill-opacity="0.31"/>
</g>
<path d="M40 49.2L39.3 48.4C38.6 47.5 38.7 46.2 39.5 45.5L56.5 31.1C57.4 30.4 58.7 30.5 59.4 31.3L60.1 32.1C60.8 33 60.7 34.3 59.9 35L42.9 49.4C42.1 50.2 40.8 50.1 40 49.2Z" fill="white"/>
<path d="M39.8 49L39.6 48.7C39 48 39.1 47 39.8 46.4L48.4 39.1C49.1 38.5 50.1 38.6 50.7 39.3L50.9 39.6C51.5 40.3 51.4 41.3 50.7 41.9L42.1 49.2C41.4 49.8 40.4 49.7 39.8 49Z" fill="#EA5A47"/>
<path d="M50.975 27.2C49.375 24.4 46.175 23.1 43.075 23.8" stroke="black" stroke-width="2" stroke-miterlimit="10" stroke-linecap="round" stroke-linejoin="round"/>
<path d="M56.9913 26.6594C53.3755 18.6245 45.3406 13 36 13C23.345 13 13 23.2445 13 36C13 48.655 23.2445 59 36 59C46.6463 59 55.5852 51.7686 58.1965 42.0262" stroke="#F5CC60" stroke-width="0.5" stroke-miterlimit="10" stroke-linecap="round" stroke-linejoin="round"/>
<path d="M30 33C30 34.6568 28.6552 36 27 36C25.3447 36 24 34.6567 24 33C24 31.3448 25.3447 30 27 30C28.6552 30 30 31.3448 30 33Z" fill="black"/>
<path d="M48 33C48 34.6568 46.6553 36 45 36C43.3447 36 42 34.6567 42 33C42 31.3448 43.3447 30 45 30C46.6553 30 48 31.3448 48 33Z" fill="black"/>
<path d="M21.025 27.2C21.725 25.8 22.925 24.8 24.425 24.2C25.825 23.5 27.425 23.4 28.925 23.8" stroke="black" stroke-width="2" stroke-miterlimit="10" stroke-linecap="round" stroke-linejoin="round"/>
<path d="M40 49.3L39.3 48.5C38.6 47.6 38.7 46.3 39.5 45.6L56.5 31.2C57.4 30.5 58.7 30.6 59.4 31.4L60.1 32.2C60.8 33.1 60.7 34.4 59.9 35.1L42.9 49.5C42.1 50.3 40.8 50.2 40 49.3Z" stroke="black" stroke-miterlimit="10"/>
<path d="M29.6 50.7C33.9 48.4 38.7 48.3 42.4 50.7" stroke="black" stroke-width="2" stroke-miterlimit="10" stroke-linecap="round" stroke-linejoin="round"/>
<path d="M40 49.3L39.3 48.5C38.6 47.6 38.7 46.3 39.5 45.6L56.5 31.2C57.4 30.5 58.7 30.6 59.4 31.4L60.1 32.2C60.8 33.1 60.7 34.4 59.9 35.1L42.9 49.5C42.1 50.3 40.8 50.2 40 49.3Z" stroke="black" stroke-width="2" stroke-miterlimit="10"/>
<defs>
<filter id="filter0_i" x="12" y="12" width="48" height="50.1936" filterUnits="userSpaceOnUse" color-interpolation-filters="sRGB">
<feFlood flood-opacity="0" result="BackgroundImageFix"/>
<feBlend mode="normal" in="SourceGraphic" in2="BackgroundImageFix" result="shape"/>
<feColorMatrix in="SourceAlpha" type="matrix" values="0 0 0 0 0 0 0 0 0 0 0 0 0 0 0 0 0 0 127 0" result="hardAlpha"/>
<feOffset dy="2.19361"/>
<feGaussianBlur stdDeviation="1.09681"/>
<feComposite in2="hardAlpha" operator="arithmetic" k2="-1" k3="1"/>
<feColorMatrix type="matrix" values="0 0 0 0 0 0 0 0 0 0 0 0 0 0 0 0 0 0 0.1 0"/>
<feBlend mode="normal" in2="shape" result="effect1_innerShadow"/>
</filter>
<radialGradient id="paint0_radial" cx="0" cy="0" r="1" gradientUnits="userSpaceOnUse" gradientTransform="translate(35.2733 24.6316) rotate(87.2844) scale(41.7311)">
<stop offset="0.453125" stop-color="#FFCC48"/>
<stop offset="0.874464" stop-color="#F29F23"/>
</radialGradient>
<radialGradient id="paint1_radial" cx="0" cy="0" r="1" gradientUnits="userSpaceOnUse" gradientTransform="translate(35.9323 21.8307) rotate(89.8984) scale(38.1694)">
<stop offset="0.140625" stop-color="white"/>
<stop offset="0.473958" stop-color="white" stop-opacity="0"/>
</radialGradient>
</defs>
</svg>
