<svg  viewBox="0 0 72 72" fill="none" xmlns="http://www.w3.org/2000/svg">
<g filter="url(#filter0_i)">
<path d="M36 60C49.2548 60 60 49.2548 60 36C60 22.7452 49.2548 12 36 12C22.7452 12 12 22.7452 12 36C12 49.2548 22.7452 60 36 60Z" fill="url(#paint0_radial)"/>
<path d="M36 60C49.2548 60 60 49.2548 60 36C60 22.7452 49.2548 12 36 12C22.7452 12 12 22.7452 12 36C12 49.2548 22.7452 60 36 60Z" fill="url(#paint1_radial)" fill-opacity="0.31"/>
</g>
<path d="M37.9763 26.7191C44.7594 26.9661 51.8158 27.5634 57.6698 28.8626L57.8857 28.9077C54.8961 19.6755 46.2274 13 36 13C23.2969 13 13 23.2969 13 36C13 38.8816 13.5299 41.6395 14.4977 44.1814L14.4964 44.1791C14.4964 44.1791 18.2864 40.3391 24.4464 35.6291C25.6564 34.6991 26.9664 33.7391 28.3564 32.7691C31.2463 30.7291 34.4864 28.6491 37.9763 26.7191Z" fill="white"/>
<path d="M44.9164 27.1091C45.4764 28.0791 46.2964 28.8891 47.2964 29.4491C48.5864 30.3391 50.1664 30.7191 51.7264 30.5191" stroke="black" stroke-width="2" stroke-miterlimit="10" stroke-linecap="round" stroke-linejoin="round"/>
<path d="M48 35C48 36.6568 46.6553 38 45 38C43.3447 38 42 36.6567 42 35C42 33.3448 43.3447 32 45 32C46.6553 32 48 33.3448 48 35Z" fill="black"/>
<path d="M33.1081 46.8878C33.1081 46.8878 38.8409 45.8193 44.7714 48.9822" stroke="black" stroke-width="2" stroke-miterlimit="10" stroke-linecap="round" stroke-linejoin="round"/>
<path d="M14.4963 44.1791C14.4963 44.1791 18.2863 40.3391 24.4463 35.6291C25.6563 34.6991 26.9663 33.7391 28.3563 32.7691C31.2463 30.7291 34.4863 28.6491 37.9763 26.7191" stroke="black" stroke-width="2" stroke-miterlimit="10" stroke-linecap="round" stroke-linejoin="round"/>
<path d="M28.7005 32.5324C28.588 32.6111 28.4678 32.6904 28.3563 32.7691C26.9663 33.7391 25.6563 34.6991 24.4463 35.6291C24.3423 35.7086 24.2445 35.7857 24.1419 35.8648C24.5153 37.0969 25.6472 38 27 38C28.6552 38 30 36.6568 30 35C30 33.9766 29.4842 33.074 28.7005 32.5324Z" fill="black"/>
<path d="M57.6698 28.8626C41.7302 25.325 15.7217 26.9255 15.7217 26.9255" stroke="black" stroke-width="2" stroke-miterlimit="10" stroke-linecap="round" stroke-linejoin="round"/>
<path d="M19.3657 20.2796C19.3657 20.2796 40.9494 18.7252 54.3197 22.2628" stroke="black" stroke-width="2" stroke-miterlimit="10" stroke-linecap="round" stroke-linejoin="round"/>
<path d="M57.8857 28.9077C54.8961 19.6755 46.2274 13 36 13C23.2969 13 13 23.2969 13 36C13 38.8816 13.5299 41.6395 14.4977 44.1814" stroke="black" stroke-width="2" stroke-miterlimit="10" stroke-linecap="round" stroke-linejoin="round"/>
<path d="M16.0847 47.5135C20.0633 54.3807 27.4919 59 35.9999 59C48.7021 59 58.9999 48.7022 58.9999 36C58.9999 34.757 58.9013 33.5371 58.7115 32.3475" stroke="#F5CC60" stroke-width="0.5" stroke-miterlimit="10" stroke-linecap="round" stroke-linejoin="round"/>
<defs>
<filter id="filter0_i" x="12" y="12" width="48" height="50.1936" filterUnits="userSpaceOnUse" color-interpolation-filters="sRGB">
<feFlood flood-opacity="0" result="BackgroundImageFix"/>
<feBlend mode="normal" in="SourceGraphic" in2="BackgroundImageFix" result="shape"/>
<feColorMatrix in="SourceAlpha" type="matrix" values="0 0 0 0 0 0 0 0 0 0 0 0 0 0 0 0 0 0 127 0" result="hardAlpha"/>
<feOffset dy="2.19361"/>
<feGaussianBlur stdDeviation="1.09681"/>
<feComposite in2="hardAlpha" operator="arithmetic" k2="-1" k3="1"/>
<feColorMatrix type="matrix" values="0 0 0 0 0 0 0 0 0 0 0 0 0 0 0 0 0 0 0.1 0"/>
<feBlend mode="normal" in2="shape" result="effect1_innerShadow"/>
</filter>
<radialGradient id="paint0_radial" cx="0" cy="0" r="1" gradientUnits="userSpaceOnUse" gradientTransform="translate(35.2733 24.6316) rotate(87.2844) scale(41.7311)">
<stop offset="0.453125" stop-color="#FFCC48"/>
<stop offset="0.874464" stop-color="#F29F23"/>
</radialGradient>
<radialGradient id="paint1_radial" cx="0" cy="0" r="1" gradientUnits="userSpaceOnUse" gradientTransform="translate(35.9323 21.8307) rotate(89.8984) scale(38.1694)">
<stop offset="0.140625" stop-color="white"/>
<stop offset="0.473958" stop-color="white" stop-opacity="0"/>
</radialGradient>
</defs>
</svg>
