<svg  viewBox="0 0 72 72" fill="none" xmlns="http://www.w3.org/2000/svg">
<g filter="url(#filter0_i)">
<path d="M35.9997 59.9989C49.2545 59.9989 59.9997 49.2537 59.9997 35.9989C59.9997 22.7441 49.2545 11.9989 35.9997 11.9989C22.7449 11.9989 11.9997 22.7441 11.9997 35.9989C11.9997 49.2537 22.7449 59.9989 35.9997 59.9989Z" fill="url(#paint0_radial)"/>
<path d="M35.9997 59.9989C49.2545 59.9989 59.9997 49.2537 59.9997 35.9989C59.9997 22.7441 49.2545 11.9989 35.9997 11.9989C22.7449 11.9989 11.9997 22.7441 11.9997 35.9989C11.9997 49.2537 22.7449 59.9989 35.9997 59.9989Z" fill="url(#paint1_radial)" fill-opacity="0.31"/>
</g>
<path d="M51.58 34.554C52.276 35.9274 52.6905 37.4261 52.7992 38.962C42.9625 47.2342 30.1775 50.5842 28.1236 51.08C27.0067 50.0883 26.095 48.8873 25.4399 47.545L25.5384 47.4961C25.5384 47.4961 40.39 44.1243 51.4407 34.7013L51.58 34.554Z" fill="white"/>
<path d="M52.799 38.962C53.0964 43.5825 50.3302 48.2626 43.7572 51.5293C37.1215 54.8271 31.6358 54.17 28.1237 51.08C30.1775 50.5841 42.9626 47.234 52.799 38.962Z" fill="#EA5A47"/>
<path d="M67.6926 32.9089C67.5154 33.4373 67.2357 33.9255 66.8697 34.3458C66.5037 34.766 66.0585 35.1101 65.5594 35.3582C65.0604 35.6063 64.5174 35.7536 63.9614 35.7918C63.4054 35.83 62.8473 35.7582 62.3191 35.5806C58.3353 34.242 55.6391 28.8937 55.6122 28.8406C55.8252 28.7494 61.0586 26.2036 65.0222 27.5354C65.5506 27.7126 66.0388 27.9923 66.459 28.3583C66.8792 28.7244 67.2232 29.1697 67.4712 29.6687C67.7192 30.1678 67.8665 30.7109 67.9045 31.2669C67.9425 31.8229 67.8706 32.3809 67.6928 32.9091L67.6926 32.9089Z" fill="#92D3F5"/>
<path d="M14.395 59.3977C13.8666 59.2204 13.3784 58.9408 12.9581 58.5748C12.5378 58.2088 12.1938 57.7635 11.9457 57.2645C11.6976 56.7655 11.5502 56.2224 11.512 55.6664C11.4738 55.1104 11.5456 54.5524 11.7232 54.0241C13.0619 50.0404 18.4101 47.3441 18.4632 47.3173C18.5544 47.5303 21.1001 52.7637 19.7684 56.7273C19.5912 57.2557 19.3115 57.7439 18.9455 58.1641C18.5794 58.5844 18.1341 58.9283 17.6351 59.1763C17.136 59.4244 16.5929 59.5716 16.0369 59.6096C15.4809 59.6477 14.9229 59.5758 14.3947 59.398L14.395 59.3977Z" fill="#92D3F5"/>
<path d="M56.122 22.9039C56.0901 22.8546 56.0579 22.8055 56.0256 22.7566C52.8072 17.893 47.9282 14.3675 42.3001 12.8385C36.6721 11.3096 30.6799 11.8819 25.443 14.4485C20.206 17.015 16.0826 21.4004 13.843 26.7853C11.6033 32.1701 11.4007 38.1862 13.2729 43.7096C13.3087 43.8163 13.3821 44.0197 13.419 44.1262" stroke="#F5CC60" stroke-width="0.5" stroke-linecap="round" stroke-linejoin="round"/>
<path d="M24.5656 57.1018C27.9651 58.8936 31.7378 59.8624 35.58 59.9305C39.4222 59.9986 43.2268 59.1639 46.6877 57.4937C50.1024 55.7646 53.0616 53.2552 55.3254 50.1689C57.5891 47.0825 59.0937 43.5062 59.7172 39.7298" stroke="#F5CC60" stroke-width="0.5" stroke-linecap="round" stroke-linejoin="round"/>
<path d="M51.58 34.554C52.276 35.9274 52.6905 37.4261 52.7992 38.962C42.9625 47.2342 30.1775 50.5842 28.1236 51.08C27.0067 50.0883 26.095 48.8873 25.4399 47.545L25.5384 47.4961C25.5384 47.4961 40.39 44.1243 51.4407 34.7013L51.58 34.554Z" stroke="black" stroke-width="2" stroke-linecap="round" stroke-linejoin="round"/>
<path d="M52.799 38.962C53.0964 43.5825 50.3302 48.2626 43.7572 51.5293C37.1215 54.8271 31.6358 54.17 28.1237 51.08C30.1775 50.584 42.9625 47.2341 52.799 38.962Z" stroke="black" stroke-width="2" stroke-linecap="round" stroke-linejoin="round"/>
<path d="M67.6926 32.9089C67.5154 33.4373 67.2357 33.9255 66.8697 34.3458C66.5037 34.766 66.0585 35.1101 65.5594 35.3582C65.0604 35.6063 64.5174 35.7536 63.9614 35.7918C63.4054 35.83 62.8473 35.7582 62.3191 35.5806C58.3353 34.242 55.6391 28.8937 55.6122 28.8406C55.8252 28.7494 61.0586 26.2036 65.0222 27.5354C65.5506 27.7126 66.0388 27.9923 66.459 28.3583C66.8792 28.7244 67.2232 29.1697 67.4712 29.6687C67.7192 30.1678 67.8665 30.7109 67.9045 31.2669C67.9425 31.8229 67.8706 32.3809 67.6928 32.9091L67.6926 32.9089Z" stroke="black" stroke-width="2" stroke-linejoin="round"/>
<path d="M14.395 59.3977C13.8666 59.2204 13.3784 58.9408 12.9581 58.5748C12.5378 58.2088 12.1938 57.7635 11.9457 57.2645C11.6976 56.7655 11.5502 56.2224 11.512 55.6664C11.4738 55.1104 11.5456 54.5524 11.7232 54.0241C13.0619 50.0404 18.4101 47.3441 18.4632 47.3173C18.5544 47.5303 21.1001 52.7637 19.7684 56.7273C19.5912 57.2557 19.3115 57.7439 18.9455 58.1641C18.5794 58.5844 18.1341 58.9283 17.6351 59.1763C17.136 59.4244 16.5929 59.5716 16.0369 59.6096C15.4809 59.6477 14.9229 59.5758 14.3947 59.398L14.395 59.3977Z" stroke="black" stroke-width="2" stroke-linejoin="round"/>
<path d="M22.478 33.13L30.163 33.793L25.928 40.072" stroke="black" stroke-width="2" stroke-linecap="round" stroke-linejoin="round"/>
<path d="M41.878 23.488L37.766 30.014L45.328 30.43" stroke="black" stroke-width="2" stroke-linecap="round" stroke-linejoin="round"/>
<defs>
<filter id="filter0_i" x="11.9997" y="11.9989" width="48" height="50.1936" filterUnits="userSpaceOnUse" color-interpolation-filters="sRGB">
<feFlood flood-opacity="0" result="BackgroundImageFix"/>
<feBlend mode="normal" in="SourceGraphic" in2="BackgroundImageFix" result="shape"/>
<feColorMatrix in="SourceAlpha" type="matrix" values="0 0 0 0 0 0 0 0 0 0 0 0 0 0 0 0 0 0 127 0" result="hardAlpha"/>
<feOffset dy="2.19361"/>
<feGaussianBlur stdDeviation="1.09681"/>
<feComposite in2="hardAlpha" operator="arithmetic" k2="-1" k3="1"/>
<feColorMatrix type="matrix" values="0 0 0 0 0 0 0 0 0 0 0 0 0 0 0 0 0 0 0.1 0"/>
<feBlend mode="normal" in2="shape" result="effect1_innerShadow"/>
</filter>
<radialGradient id="paint0_radial" cx="0" cy="0" r="1" gradientUnits="userSpaceOnUse" gradientTransform="translate(35.273 24.6305) rotate(87.2844) scale(41.7311)">
<stop offset="0.453125" stop-color="#FFCC48"/>
<stop offset="0.874464" stop-color="#F29F23"/>
</radialGradient>
<radialGradient id="paint1_radial" cx="0" cy="0" r="1" gradientUnits="userSpaceOnUse" gradientTransform="translate(35.932 21.8296) rotate(89.8984) scale(38.1694)">
<stop offset="0.140625" stop-color="white"/>
<stop offset="0.473958" stop-color="white" stop-opacity="0"/>
</radialGradient>
</defs>
</svg>
