<svg  viewBox="0 0 72 72" fill="none" xmlns="http://www.w3.org/2000/svg">
<path d="M36 60C49.2548 60 60 49.2548 60 36C60 22.7452 49.2548 12 36 12C22.7452 12 12 22.7452 12 36C12 49.2548 22.7452 60 36 60Z" fill="url(#paint0_radial)"/>
<path d="M36 60C49.2548 60 60 49.2548 60 36C60 22.7452 49.2548 12 36 12C22.7452 12 12 22.7452 12 36C12 49.2548 22.7452 60 36 60Z" fill="url(#paint1_radial)" fill-opacity="0.31"/>
<path d="M47.1996 51.282C49.66 51.282 52.6327 53.229 52.6327 54.9642C52.6327 56.1396 51.7176 57.1642 50.3626 57.703C51.3182 60.8153 49.1197 62.3635 47.382 62.5895C46.3611 62.7223 45.2686 62.1753 44.5957 61.4965C44.5957 62.8959 43.4612 64.0304 42.0618 64.0304C40.6624 64.0304 39.1474 63.0934 39.1474 61.694C38.8348 62.7389 37.8661 63.5005 36.7194 63.5005C35.6206 63.5005 34.4578 62.6041 34.1066 61.6262C33.742 63.1194 32.4934 63.8364 31.1922 63.5655C30.1169 63.3416 29.3568 62.5145 29.2377 61.5931C29.0611 62.82 27.7093 64.0304 26.4336 64.0304C25.0342 64.0304 23.8997 62.8959 23.8997 61.4965C22.5003 61.4965 20.7493 60.6108 20.7493 59.2113C20.7493 57.8119 21.8966 56.55 23.296 56.55C22.6215 56.0947 22.178 55.3233 22.178 54.4483C22.178 53.0489 23.9148 51.6821 25.3142 51.6821C25.1829 51.4158 25.0653 51.1437 24.962 50.8663C24.6193 49.9457 24.4347 48.967 24.4347 47.9522C24.4347 42.5401 29.6863 38.1527 36.1644 38.1527C42.6425 38.1527 47.8941 42.5401 47.8941 47.9522C47.8941 49.1212 47.6491 50.2425 47.1996 51.282Z" fill="#B1CC33"/>
<path d="M25.1678 26.4126L31.7548 30.4265L25.1678 34.1644" stroke="black" stroke-width="2" stroke-miterlimit="10" stroke-linecap="round" stroke-linejoin="round"/>
<path d="M46.8322 26.4126L40.2452 30.4265L46.8322 34.1644" stroke="black" stroke-width="2" stroke-miterlimit="10" stroke-linecap="round" stroke-linejoin="round"/>
<path d="M55.0119 50.8113C58.1395 46.7583 60 41.6774 60 36.1622C60 22.9068 49.2545 12.1622 36 12.1622C22.7446 12.1622 12 22.9068 12 36.1622C12 42.4123 14.3891 48.1046 18.3041 52.3754" stroke="#F5CC60" stroke-width="0.5" stroke-miterlimit="10" stroke-linecap="round" stroke-linejoin="round"/>
<path d="M43.2806 19.0706C43.827 20.5338 44.8948 21.7415 46.2802 22.4617C47.5895 23.328 49.1747 23.6723 50.7253 23.4319" stroke="black" stroke-width="2" stroke-miterlimit="10" stroke-linecap="round" stroke-linejoin="round"/>
<path d="M28.7194 19.0706C28.173 20.5338 27.1052 21.7415 25.7198 22.4617C24.4105 23.328 22.8253 23.6723 21.2747 23.4319" stroke="black" stroke-width="2" stroke-miterlimit="10" stroke-linecap="round" stroke-linejoin="round"/>
<path d="M47.1996 51.282C49.66 51.282 52.6327 53.229 52.6327 54.9642C52.6327 56.1396 51.7176 57.1642 50.3626 57.703C51.3182 60.8153 49.1197 62.3635 47.382 62.5895C46.3611 62.7223 45.2686 62.1753 44.5957 61.4965C44.5957 62.8959 43.4612 64.0304 42.0618 64.0304C40.6624 64.0304 39.1474 63.0934 39.1474 61.694C38.8348 62.7389 37.8661 63.5005 36.7194 63.5005C35.6206 63.5005 34.4578 62.6041 34.1066 61.6262C33.742 63.1194 32.4934 63.8364 31.1922 63.5655C30.1169 63.3416 29.3568 62.5145 29.2377 61.5931C29.0611 62.82 27.7093 64.0304 26.4336 64.0304C25.0342 64.0304 23.8997 62.8959 23.8997 61.4965C22.5003 61.4965 20.7493 60.6108 20.7493 59.2113C20.7493 57.8119 21.8966 56.55 23.296 56.55C22.6215 56.0947 22.178 55.3233 22.178 54.4483C22.178 53.0489 23.9148 51.6821 25.3142 51.6821C25.1829 51.4158 25.0653 51.1437 24.962 50.8663C24.6193 49.9457 24.4347 48.967 24.4347 47.9522C24.4347 42.5401 29.6863 38.1527 36.1644 38.1527C42.6425 38.1527 47.8941 42.5401 47.8941 47.9522C47.8941 49.1212 47.6491 50.2425 47.1996 51.282Z" stroke="black" stroke-width="2" stroke-miterlimit="10" stroke-linecap="round" stroke-linejoin="round"/>
<defs>
<radialGradient id="paint0_radial" cx="0" cy="0" r="1" gradientUnits="userSpaceOnUse" gradientTransform="translate(35.2733 24.6316) rotate(87.2844) scale(41.7311)">
<stop offset="0.453125" stop-color="#FFCC48"/>
<stop offset="0.874464" stop-color="#F29F23"/>
</radialGradient>
<radialGradient id="paint1_radial" cx="0" cy="0" r="1" gradientUnits="userSpaceOnUse" gradientTransform="translate(35.9323 21.8307) rotate(89.8984) scale(38.1694)">
<stop offset="0.140625" stop-color="white"/>
<stop offset="0.473958" stop-color="white" stop-opacity="0"/>
</radialGradient>
</defs>
</svg>
