<svg  viewBox="0 0 72 72" fill="none" xmlns="http://www.w3.org/2000/svg">
<g filter="url(#filter0_i)">
<path d="M36 62C49.2548 62 60 51.2548 60 38C60 24.7452 49.2548 14 36 14C22.7452 14 12 24.7452 12 38C12 51.2548 22.7452 62 36 62Z" fill="url(#paint0_radial)"/>
<path d="M36 62C49.2548 62 60 51.2548 60 38C60 24.7452 49.2548 14 36 14C22.7452 14 12 24.7452 12 38C12 51.2548 22.7452 62 36 62Z" fill="url(#paint1_radial)" fill-opacity="0.31"/>
</g>
<path d="M36 23.3153C45.267 23.1865 51.3345 20.8576 51.3345 20.8576C53.9207 23.1726 55.9798 26.0642 57.31 29.3303C57.31 29.3303 67.9048 20.9685 59.6054 14.2251C59.6054 14.2251 55.5985 10.3658 49.5691 15.8713C49.5691 15.8713 45.683 19.5364 36 19.5773C26.317 19.5364 22.4309 15.8713 22.4309 15.8713C16.4015 10.3658 12.3946 14.2251 12.3946 14.2251C4.09519 20.9685 14.69 29.3303 14.69 29.3303C16.0201 26.0642 18.0793 23.1726 20.6655 20.8576C20.6655 20.8576 26.733 23.1866 36 23.3153Z" fill="#6A462F"/>
<path d="M36 19.5773C42.0519 19.5517 45.767 18.1494 47.7566 17.072C47.7566 17.072 46.1225 16.5018 46.3662 14.2904C46.4387 13.6328 46.7203 12.6627 47.0769 11.7414C47.716 10.0904 47.2707 8.77251 42.9631 6.60661C42.9631 6.60661 40.8806 5.56591 40.1429 5.33271C39.0599 4.99041 37.209 4.71241 36 6.15081C34.791 4.71241 32.9401 4.99041 31.8572 5.33271C31.1195 5.56591 29.037 6.60661 29.037 6.60661C24.7294 8.77251 24.2841 10.0904 24.9232 11.7414C25.2798 12.6627 25.5614 13.6328 25.6339 14.2904C25.8776 16.5018 24.2435 17.072 24.2435 17.072C26.233 18.1494 29.9481 19.5517 36 19.5773Z" fill="#6A462F"/>
<path d="M50.595 43.64C50.607 45.1797 50.3112 46.7062 49.725 48.13C37.235 51.16 24.295 48.47 22.235 48C21.6762 46.6148 21.3943 45.1336 21.405 43.64H21.515C21.515 43.64 36.315 47.23 50.405 43.71L50.595 43.64Z" fill="white"/>
<path d="M49.7251 48.13C47.9351 52.4 43.3751 55.36 36.0351 55.36C28.6251 55.36 24.0051 52.33 22.2351 48C24.2951 48.47 37.235 51.16 49.7251 48.13Z" fill="#EA5A47"/>
<path d="M28.0684 38.2218C29.7252 38.2218 31.0684 35.8025 31.0684 32.818C31.0684 29.8336 29.7252 27.4142 28.0684 27.4142C26.4115 27.4142 25.0684 29.8336 25.0684 32.818C25.0684 35.8025 26.4115 38.2218 28.0684 38.2218Z" fill="black"/>
<path d="M43.9316 38.2254C45.5884 38.2254 46.9316 35.8061 46.9316 32.8216C46.9316 29.8372 45.5884 27.4178 43.9316 27.4178C42.2747 27.4178 40.9316 29.8372 40.9316 32.8216C40.9316 35.8061 42.2747 38.2254 43.9316 38.2254Z" fill="black"/>
<path d="M59.5624 32.2217C59.9486 33.9362 60.1524 35.7198 60.1524 37.551C60.1524 50.8899 49.3389 61.7034 36 61.7034C22.6611 61.7034 11.8476 50.8899 11.8476 37.551C11.8476 35.7198 12.0514 33.9362 12.4376 32.2217" stroke="#F5CC60" stroke-width="0.5" stroke-miterlimit="10" stroke-linecap="round" stroke-linejoin="round"/>
<path d="M36 23.3153C45.267 23.1865 51.3345 20.8576 51.3345 20.8576C53.9207 23.1726 55.9798 26.0642 57.31 29.3303C57.31 29.3303 67.9048 20.9685 59.6054 14.2251C59.6054 14.2251 55.5985 10.3658 49.5691 15.8713C49.5691 15.8713 45.683 19.5364 36 19.5773C26.317 19.5364 22.4309 15.8713 22.4309 15.8713C16.4015 10.3658 12.3946 14.2251 12.3946 14.2251C4.09519 20.9685 14.69 29.3303 14.69 29.3303C16.0201 26.0642 18.0793 23.1726 20.6655 20.8576C20.6655 20.8576 26.733 23.1866 36 23.3153Z" stroke="black" stroke-width="2" stroke-miterlimit="10" stroke-linecap="round" stroke-linejoin="round"/>
<path d="M36 19.5773C42.0519 19.5517 45.767 18.1494 47.7566 17.072C47.7566 17.072 46.1225 16.5018 46.3662 14.2904C46.4387 13.6328 46.7203 12.6627 47.0769 11.7414C47.716 10.0904 47.2707 8.77251 42.9631 6.60661C42.9631 6.60661 40.8806 5.56591 40.1429 5.33271C39.0599 4.99041 37.209 4.71241 36 6.15081C34.791 4.71241 32.9401 4.99041 31.8572 5.33271C31.1195 5.56591 29.037 6.60661 29.037 6.60661C24.7294 8.77251 24.2841 10.0904 24.9232 11.7414C25.2798 12.6627 25.5614 13.6328 25.6339 14.2904C25.8776 16.5018 24.2435 17.072 24.2435 17.072C26.233 18.1494 29.9481 19.5517 36 19.5773Z" stroke="black" stroke-width="2" stroke-miterlimit="10" stroke-linecap="round" stroke-linejoin="round"/>
<path d="M50.595 43.64C50.607 45.1797 50.3112 46.7062 49.725 48.13C37.235 51.16 24.295 48.47 22.235 48C21.6762 46.6148 21.3943 45.1336 21.405 43.64H21.515C21.515 43.64 36.315 47.23 50.405 43.71L50.595 43.64Z" stroke="black" stroke-width="2" stroke-linecap="round" stroke-linejoin="round"/>
<path d="M49.7251 48.13C47.9351 52.4 43.3751 55.36 36.0351 55.36C28.6251 55.36 24.0051 52.33 22.2351 48C24.2951 48.47 37.235 51.16 49.7251 48.13Z" stroke="black" stroke-width="2" stroke-linecap="round" stroke-linejoin="round"/>
<defs>
<filter id="filter0_i" x="12" y="14" width="48" height="50.1936" filterUnits="userSpaceOnUse" color-interpolation-filters="sRGB">
<feFlood flood-opacity="0" result="BackgroundImageFix"/>
<feBlend mode="normal" in="SourceGraphic" in2="BackgroundImageFix" result="shape"/>
<feColorMatrix in="SourceAlpha" type="matrix" values="0 0 0 0 0 0 0 0 0 0 0 0 0 0 0 0 0 0 127 0" result="hardAlpha"/>
<feOffset dy="2.19361"/>
<feGaussianBlur stdDeviation="1.09681"/>
<feComposite in2="hardAlpha" operator="arithmetic" k2="-1" k3="1"/>
<feColorMatrix type="matrix" values="0 0 0 0 0 0 0 0 0 0 0 0 0 0 0 0 0 0 0.1 0"/>
<feBlend mode="normal" in2="shape" result="effect1_innerShadow"/>
</filter>
<radialGradient id="paint0_radial" cx="0" cy="0" r="1" gradientUnits="userSpaceOnUse" gradientTransform="translate(35.2733 26.6316) rotate(87.2844) scale(41.7311)">
<stop offset="0.453125" stop-color="#FFCC48"/>
<stop offset="0.874464" stop-color="#F29F23"/>
</radialGradient>
<radialGradient id="paint1_radial" cx="0" cy="0" r="1" gradientUnits="userSpaceOnUse" gradientTransform="translate(35.9323 23.8307) rotate(89.8984) scale(38.1694)">
<stop offset="0.140625" stop-color="white"/>
<stop offset="0.473958" stop-color="white" stop-opacity="0"/>
</radialGradient>
</defs>
</svg>
