<svg  viewBox="0 0 72 72" fill="none" xmlns="http://www.w3.org/2000/svg">
<path d="M17 25.64C18.319 26.4583 20.124 26.992 22.137 27.073C22.4498 27.0856 22.7037 27.203 22.7636 27.3673C23.6811 29.8803 27.9126 31.7693 32.9136 31.7693C36.1666 31.7693 39.0636 30.9833 40.9446 29.7333C41.1274 29.6118 41.4332 29.556 41.7022 29.6164C42.4272 29.779 43.1932 29.8576 44.0502 29.8576C47.2822 29.8576 49.9352 28.5416 50.2112 26.8636C50.2375 26.7034 50.4797 26.5738 50.7793 26.5567C52.2903 26.4707 53.6573 26.0918 54.7413 25.5117C49.0203 22.9577 42.6813 21.5387 36.0113 21.5387C29.2303 21.5387 22.7913 23.0057 17.0013 25.6397L17 25.64Z" fill="#F1B31C"/>
<path d="M26.2469 23.3703C25.0799 23.537 19.8225 24.5944 17.4225 26.1944" stroke="#F5CC60" stroke-width="2"/>
<path d="M45.8051 23.3703C46.9721 23.537 52.3413 24.6328 54.7413 26.2328" stroke="#F5CC60" stroke-width="2"/>
<path d="M36 61.46C48.7 61.46 59 51.16 59 38.46C59 33.61 57.499 29.111 54.936 25.4C53.822 26.0448 52.377 26.468 50.768 26.56C50.4684 26.5771 50.2262 26.7067 50.1999 26.8669C49.9245 28.5449 47.2709 29.8609 44.0389 29.8609C43.1819 29.8609 42.4159 29.7823 41.6909 29.6197C41.4219 29.5593 41.1161 29.6151 40.9334 29.7366C39.0524 30.9866 36.1554 31.7726 32.9024 31.7726C27.8994 31.7726 23.6674 29.8836 22.7524 27.3706C22.6925 27.2063 22.4387 27.0889 22.1258 27.0763C20.0818 26.9938 18.2508 26.4443 16.9268 25.6043C14.4488 29.2743 13.0018 33.6973 13.0018 38.4543C13.0018 51.1543 23.3018 61.4543 36.0018 61.4543L36 61.46Z" fill="url(#paint0_radial)"/>
<path d="M36 61.46C48.7 61.46 59 51.16 59 38.46C59 33.61 57.499 29.111 54.936 25.4C53.822 26.0448 52.377 26.468 50.768 26.56C50.4684 26.5771 50.2262 26.7067 50.1999 26.8669C49.9245 28.5449 47.2709 29.8609 44.0389 29.8609C43.1819 29.8609 42.4159 29.7823 41.6909 29.6197C41.4219 29.5593 41.1161 29.6151 40.9334 29.7366C39.0524 30.9866 36.1554 31.7726 32.9024 31.7726C27.8994 31.7726 23.6674 29.8836 22.7524 27.3706C22.6925 27.2063 22.4387 27.0889 22.1258 27.0763C20.0818 26.9938 18.2508 26.4443 16.9268 25.6043C14.4488 29.2743 13.0018 33.6973 13.0018 38.4543C13.0018 51.1543 23.3018 61.4543 36.0018 61.4543L36 61.46Z" fill="url(#paint1_radial)" fill-opacity="0.31"/>
<path d="M36 57.39C38.897 57.39 41.245 54.463 41.245 50.852C41.245 47.241 38.897 44.314 36 44.314C33.103 44.314 30.755 47.241 30.755 50.852C30.755 54.463 33.103 57.39 36 57.39Z" fill="white"/>
<path d="M22.98 14.83C22.9559 14.9701 22.7339 15.0836 22.4592 15.0985C19.1112 15.2804 16.5352 16.9595 16.5352 19.0025C16.5352 21.1675 19.4832 22.9225 23.1202 22.9225H23.6123C23.6123 22.9225 24.8413 23.9825 25.5543 25.6205C26.2026 27.1085 26.5332 29.0235 26.7513 30.2885C26.7785 30.4465 26.8041 30.5944 26.8283 30.7301C28.5383 31.3836 30.6403 31.7681 32.8993 31.7681C36.1523 31.7681 39.0493 30.9821 40.9303 29.7321C41.113 29.6107 41.4188 29.5548 41.6878 29.6152C42.4129 29.7778 43.1788 29.8565 44.0358 29.8565C44.4795 29.8565 44.9122 29.8317 45.3298 29.7845C45.5483 28.5505 45.8722 26.9225 46.4398 25.6205C47.1532 23.9825 48.3818 22.9225 48.3818 22.9225H48.2293C52.2223 22.921 55.4583 21.0665 55.4583 18.7805C55.4583 16.5875 52.4823 14.7925 48.7173 14.6475C48.4305 14.6364 48.1978 14.5337 48.1429 14.3899C47.3019 12.1909 43.4229 10.5379 38.8359 10.5379C35.8539 10.5379 33.1979 11.2256 31.4739 12.3199C31.3064 12.4262 31.0261 12.475 30.7794 12.4222C30.1148 12.28 29.4134 12.2111 28.6274 12.2111C25.6644 12.2111 23.2324 13.3631 22.9794 14.8301L22.98 14.83Z" fill="white"/>
<path d="M48 37.46C48 39.117 46.655 40.46 45 40.46C43.345 40.46 42 39.117 42 37.46C42 35.805 43.345 34.46 45 34.46C46.655 34.46 48 35.805 48 37.46Z" fill="black"/>
<path d="M30 37.46C30 39.117 28.655 40.46 27 40.46C25.345 40.46 24 39.117 24 37.46C24 35.805 25.345 34.46 27 34.46C28.655 34.46 30 35.805 30 37.46Z" fill="black"/>
<path d="M36 61.46C48.7 61.46 59 51.16 59 38.46C59 33.61 57.499 29.111 54.936 25.4C53.822 26.0447 52.377 26.468 50.768 26.56C50.4684 26.5771 50.2262 26.7067 50.1999 26.8669C49.9245 28.5449 47.2709 29.8609 44.0389 29.8609C43.1819 29.8609 42.4159 29.7823 41.6909 29.6197C41.4219 29.5593 41.1161 29.6151 40.9334 29.7366C39.0524 30.9866 36.1554 31.7726 32.9024 31.7726C27.8994 31.7726 23.6674 29.8836 22.7524 27.3706C22.6925 27.2063 22.4387 27.0889 22.1258 27.0763C20.0818 26.9938 18.2508 26.4443 16.9268 25.6043C14.4488 29.2743 13.0018 33.6973 13.0018 38.4543C13.0018 51.1543 23.3018 61.4543 36.0018 61.4543L36 61.46Z" stroke="#F5CC60" stroke-width="0.5" stroke-linecap="round" stroke-linejoin="round"/>
<path d="M36 57.39C38.897 57.39 41.245 54.463 41.245 50.852C41.245 47.241 38.897 44.314 36 44.314C33.103 44.314 30.755 47.241 30.755 50.852C30.755 54.463 33.103 57.39 36 57.39Z" stroke="black" stroke-width="2" stroke-linecap="round" stroke-linejoin="round"/>
<defs>
<radialGradient id="paint0_radial" cx="0" cy="0" r="1" gradientUnits="userSpaceOnUse" gradientTransform="translate(35.3045 34.8895) rotate(86.5377) scale(31.3725 39.9626)">
<stop offset="0.453125" stop-color="#FFCC48"/>
<stop offset="0.874464" stop-color="#F29F23"/>
</radialGradient>
<radialGradient id="paint1_radial" cx="0" cy="0" r="1" gradientUnits="userSpaceOnUse" gradientTransform="translate(35.936 32.7853) rotate(89.8704) scale(28.6748 36.5775)">
<stop offset="0.140625" stop-color="white"/>
<stop offset="0.473958" stop-color="white" stop-opacity="0"/>
</radialGradient>
</defs>
</svg>
