<svg  viewBox="0 0 72 72" fill="none" xmlns="http://www.w3.org/2000/svg">
<g filter="url(#filter0_i)">
<path d="M39 60C52.2548 60 63 49.2548 63 36C63 22.7452 52.2548 12 39 12C25.7452 12 15 22.7452 15 36C15 49.2548 25.7452 60 39 60Z" fill="url(#paint0_radial)"/>
<path d="M39 60C52.2548 60 63 49.2548 63 36C63 22.7452 52.2548 12 39 12C25.7452 12 15 22.7452 15 36C15 49.2548 25.7452 60 39 60Z" fill="url(#paint1_radial)" fill-opacity="0.31"/>
</g>
<path d="M8.99849 46.9816C8.99849 46.9816 25.1546 48.2175 33.9501 37.1218C34.6146 36.2835 35.9358 34.855 37.8307 36.1493C37.8307 36.1493 47.153 44.0949 26.8595 64.8157C26.8595 64.8157 26.8753 59.9861 24.4833 60.4996C20.0946 61.4417 12.3872 64.6556 6.60239 62.1283C6.60239 62.1283 20.7291 55.7915 8.99849 46.9816Z" fill="white"/>
<path d="M28.4877 27.4126L35.0747 31.4266L28.4877 35.1645" stroke="black" stroke-width="2" stroke-miterlimit="10" stroke-linecap="round" stroke-linejoin="round"/>
<path d="M50.1521 27.4126L43.5651 31.4266L50.1521 35.1645" stroke="black" stroke-width="2" stroke-miterlimit="10" stroke-linecap="round" stroke-linejoin="round"/>
<path d="M38.0432 59.9813C38.3606 59.9937 38.6795 60 39 60C52.2545 60 63 49.2545 63 36C63 22.7446 52.2545 12 39 12C25.7446 12 15 22.7446 15 36C15 37.9972 15.244 39.9374 15.7037 41.7925" stroke="#F5CC60" stroke-width="0.5" stroke-miterlimit="10" stroke-linecap="round" stroke-linejoin="round"/>
<path d="M37.9293 50.0033L41.1293 51.0933L44.0793 46.2733L47.7093 49.1233L49.7693 46.7633" stroke="black" stroke-width="2" stroke-miterlimit="10" stroke-linecap="round" stroke-linejoin="round"/>
<path d="M8.99849 46.9816C8.99849 46.9816 25.1546 48.2175 33.9501 37.1218C34.6146 36.2835 35.9358 34.855 37.8307 36.1493C37.8307 36.1493 47.153 44.0949 26.8595 64.8157C26.8595 64.8157 26.8753 59.9861 24.4833 60.4996C20.0946 61.4417 12.3872 64.6556 6.60239 62.1283C6.60239 62.1283 20.7291 55.7915 8.99849 46.9816Z" stroke="black" stroke-width="2" stroke-miterlimit="10" stroke-linecap="round" stroke-linejoin="round"/>
<defs>
<filter id="filter0_i" x="15" y="12" width="48" height="50.1936" filterUnits="userSpaceOnUse" color-interpolation-filters="sRGB">
<feFlood flood-opacity="0" result="BackgroundImageFix"/>
<feBlend mode="normal" in="SourceGraphic" in2="BackgroundImageFix" result="shape"/>
<feColorMatrix in="SourceAlpha" type="matrix" values="0 0 0 0 0 0 0 0 0 0 0 0 0 0 0 0 0 0 127 0" result="hardAlpha"/>
<feOffset dy="2.19361"/>
<feGaussianBlur stdDeviation="1.09681"/>
<feComposite in2="hardAlpha" operator="arithmetic" k2="-1" k3="1"/>
<feColorMatrix type="matrix" values="0 0 0 0 0 0 0 0 0 0 0 0 0 0 0 0 0 0 0.1 0"/>
<feBlend mode="normal" in2="shape" result="effect1_innerShadow"/>
</filter>
<radialGradient id="paint0_radial" cx="0" cy="0" r="1" gradientUnits="userSpaceOnUse" gradientTransform="translate(38.2733 24.6316) rotate(87.2844) scale(41.7311)">
<stop offset="0.453125" stop-color="#FFCC48"/>
<stop offset="0.874464" stop-color="#F29F23"/>
</radialGradient>
<radialGradient id="paint1_radial" cx="0" cy="0" r="1" gradientUnits="userSpaceOnUse" gradientTransform="translate(38.9323 21.8307) rotate(89.8984) scale(38.1694)">
<stop offset="0.140625" stop-color="white"/>
<stop offset="0.473958" stop-color="white" stop-opacity="0"/>
</radialGradient>
</defs>
</svg>
