<svg  viewBox="0 0 72 72" fill="none" xmlns="http://www.w3.org/2000/svg">
<path d="M36 13C23.32 13 13 23.32 13 36C13 48.68 23.32 59 36 59C48.68 59 59 48.68 59 36C59 23.32 48.68 13 36 13Z" fill="url(#paint0_radial)"/>
<path d="M36 13C23.32 13 13 23.32 13 36C13 48.68 23.32 59 36 59C48.68 59 59 48.68 59 36C59 23.32 48.68 13 36 13Z" fill="url(#paint1_radial)" fill-opacity="0.31"/>
<path d="M31.76 31.17C31.76 33.634 29.76 35.633 27.297 35.633C24.834 35.633 22.834 33.635 22.834 31.17C22.834 28.708 24.834 26.707 27.297 26.707C29.76 26.707 31.76 28.707 31.76 31.17Z" fill="white"/>
<path d="M50.84 32.72C50.84 36.084 48.11 38.811 44.749 38.811C41.388 38.811 38.658 36.084 38.658 32.72C38.658 29.359 41.388 26.629 44.749 26.629C48.11 26.629 50.84 29.359 50.84 32.72Z" fill="white"/>
<path d="M42.86 46.04C42.521 46.3317 37.903 53.383 32.95 52.104C28.487 50.952 27.46 43.217 27.214 42.691C32.429 43.807 37.644 44.924 42.864 46.04H42.86Z" fill="white"/>
<path d="M41.71 46.13C40.417 52.066 37.092 56.38 34.284 55.77C31.476 55.16 30.247 49.85 31.54 43.91L41.71 46.13Z" fill="#EA5A47"/>
<path d="M36 59C48.7025 59 59 48.7025 59 36C59 23.2975 48.7025 13 36 13C23.2975 13 13 23.2975 13 36C13 48.7025 23.2975 59 36 59Z" stroke="#F5CC60" stroke-width="0.5" stroke-miterlimit="10"/>
<path d="M31.96 31.29C31.96 33.754 29.96 35.753 27.497 35.753C25.034 35.753 23.034 33.755 23.034 31.29C23.034 28.828 25.034 26.827 27.497 26.827C29.96 26.827 31.96 28.827 31.96 31.29Z" stroke="black" stroke-width="2" stroke-miterlimit="10"/>
<path d="M28.52 32.3C28.52 33.404 27.6235 34.3 26.52 34.3C25.4165 34.3 24.52 33.4045 24.52 32.3C24.52 31.196 25.4165 30.3 26.52 30.3C27.6235 30.3 28.52 31.1965 28.52 32.3Z" fill="black"/>
<path d="M51.04 32.83C51.04 36.194 48.31 38.921 44.949 38.921C41.588 38.921 38.858 36.194 38.858 32.83C38.858 29.469 41.588 26.739 44.949 26.739C48.31 26.739 51.04 29.469 51.04 32.83Z" stroke="black" stroke-width="2" stroke-miterlimit="10"/>
<path d="M49.04 32.1C49.04 33.608 47.816 34.83 46.31 34.83C44.804 34.83 43.58 33.608 43.58 32.1C43.58 30.594 44.804 29.37 46.31 29.37C47.816 29.37 49.04 30.594 49.04 32.1Z" fill="black"/>
<path d="M39.08 23.94C39.4932 23.596 41.326 22.148 43.989 22.304C46.15 22.4299 47.599 23.537 48.08 23.94" stroke="black" stroke-width="2" stroke-miterlimit="10" stroke-linecap="round" stroke-linejoin="round"/>
<path d="M23 23.57C23.4132 23.226 25.246 21.778 27.909 21.934C30.07 22.0599 31.519 23.167 32 23.57" stroke="black" stroke-width="2" stroke-miterlimit="10" stroke-linecap="round" stroke-linejoin="round"/>
<path d="M40.46 49.13C40.47 49.12 40.47 49.11 40.47 49.11C41.87 47.49 42.49 45.74 42.65 45.598L27 42.249C27.2275 42.721 26.4775 48.931 31.108 51.111" stroke="black" stroke-width="2" stroke-miterlimit="10" stroke-linecap="round" stroke-linejoin="round"/>
<path d="M41.5 45.68C40.207 51.616 36.882 55.93 34.074 55.32C31.266 54.71 30.037 49.4 31.33 43.46" stroke="black" stroke-width="2" stroke-miterlimit="10" stroke-linecap="round" stroke-linejoin="round"/>
<defs>
<radialGradient id="paint0_radial" cx="0" cy="0" r="1" gradientUnits="userSpaceOnUse" gradientTransform="translate(35.3035 25.1053) rotate(87.2844) scale(39.9923)">
<stop offset="0.453125" stop-color="#FFCC48"/>
<stop offset="0.874464" stop-color="#F29F23"/>
</radialGradient>
<radialGradient id="paint1_radial" cx="0" cy="0" r="1" gradientUnits="userSpaceOnUse" gradientTransform="translate(35.9351 22.4211) rotate(89.8984) scale(36.579)">
<stop offset="0.140625" stop-color="white"/>
<stop offset="0.473958" stop-color="white" stop-opacity="0"/>
</radialGradient>
</defs>
</svg>
