<svg  viewBox="0 0 72 72" fill="none" xmlns="http://www.w3.org/2000/svg">
<g filter="url(#filter0_i)">
<path d="M36 13C23.3177 13 13 23.3177 13 36C13 48.6823 23.3177 59 36 59C48.6823 59 59 48.6822 59 36C59.0001 23.3177 48.6823 13 36 13Z" fill="url(#paint0_radial)"/>
<path d="M36 13C23.3177 13 13 23.3177 13 36C13 48.6823 23.3177 59 36 59C48.6823 59 59 48.6822 59 36C59.0001 23.3177 48.6823 13 36 13Z" fill="url(#paint1_radial)" fill-opacity="0.31"/>
</g>
<path d="M36 59C48.7025 59 59 48.7025 59 36C59 23.2975 48.7025 13 36 13C23.2975 13 13 23.2975 13 36C13 48.7025 23.2975 59 36 59Z" stroke="#F5CC60" stroke-width="0.5" stroke-linecap="round" stroke-linejoin="round"/>
<path d="M23.0708 27.7432C23.484 27.3992 25.3164 25.9517 27.9799 26.1068C30.1407 26.2327 31.5899 27.3401 32.0708 27.7432" stroke="black" stroke-width="2" stroke-miterlimit="10" stroke-linecap="round" stroke-linejoin="round"/>
<path d="M48.9292 27.0952C48.516 27.4392 46.6836 28.8867 44.0201 28.7316C41.8593 28.6057 40.4101 27.4983 39.9292 27.0952" stroke="black" stroke-width="2" stroke-miterlimit="10" stroke-linecap="round" stroke-linejoin="round"/>
<path d="M30 35C30 36.6568 28.6552 38 27 38C25.3447 38 24 36.6567 24 35C24 33.3448 25.3447 32 27 32C28.6552 32 30 33.3448 30 35Z" fill="black"/>
<path d="M48 35C48 36.6568 46.6553 38 45 38C43.3447 38 42 36.6567 42 35C42 33.3448 43.3447 32 45 32C46.6553 32 48 33.3448 48 35Z" fill="black"/>
<path d="M29.1321 47.1385C33.7323 45.722 38.9605 45.6687 42.868 47.1385" stroke="black" stroke-width="2" stroke-linecap="round" stroke-linejoin="round"/>
<defs>
<filter id="filter0_i" x="13" y="13" width="46" height="48.1936" filterUnits="userSpaceOnUse" color-interpolation-filters="sRGB">
<feFlood flood-opacity="0" result="BackgroundImageFix"/>
<feBlend mode="normal" in="SourceGraphic" in2="BackgroundImageFix" result="shape"/>
<feColorMatrix in="SourceAlpha" type="matrix" values="0 0 0 0 0 0 0 0 0 0 0 0 0 0 0 0 0 0 127 0" result="hardAlpha"/>
<feOffset dy="2.19361"/>
<feGaussianBlur stdDeviation="1.09681"/>
<feComposite in2="hardAlpha" operator="arithmetic" k2="-1" k3="1"/>
<feColorMatrix type="matrix" values="0 0 0 0 0 0 0 0 0 0 0 0 0 0 0 0 0 0 0.1 0"/>
<feBlend mode="normal" in2="shape" result="effect1_innerShadow"/>
</filter>
<radialGradient id="paint0_radial" cx="0" cy="0" r="1" gradientUnits="userSpaceOnUse" gradientTransform="translate(35.3035 25.1053) rotate(87.2844) scale(39.9923)">
<stop offset="0.453125" stop-color="#FFCC48"/>
<stop offset="0.874464" stop-color="#F29F23"/>
</radialGradient>
<radialGradient id="paint1_radial" cx="0" cy="0" r="1" gradientUnits="userSpaceOnUse" gradientTransform="translate(35.9351 22.4211) rotate(89.8984) scale(36.579)">
<stop offset="0.140625" stop-color="white"/>
<stop offset="0.473958" stop-color="white" stop-opacity="0"/>
</radialGradient>
</defs>
</svg>
