<svg  viewBox="0 0 72 72" fill="none" xmlns="http://www.w3.org/2000/svg">
<path d="M13.8451 27.9329C13.8451 27.9329 11.7981 26.4647 13.2432 24.8093C13.2432 24.8093 10.9644 22.7964 12.8151 20.9054C12.8151 20.9054 11.5769 16.8322 14.9533 16.5964C14.9533 16.5964 14.5634 12.5243 19.0323 12.9979C19.0323 12.9979 21.5341 11.1964 23.3884 13.2468C23.3884 13.2468 25.9208 11.6389 27.2311 13.6494" fill="#D22F27"/>
<path d="M58.1549 27.9329C58.1549 27.9329 60.2019 26.4647 58.7568 24.8093C58.7568 24.8093 61.0356 22.7964 59.1849 20.9054C59.1849 20.9054 60.4231 16.8322 57.0467 16.5964C57.0467 16.5964 57.4366 12.5243 52.9677 12.9979C52.9677 12.9979 50.4659 11.1964 48.6116 13.2468C48.6116 13.2468 46.0792 11.6389 44.7689 13.6494" fill="#D22F27"/>
<path d="M36 59C48.7025 59 59 48.7025 59 36C59 23.2975 48.7025 13 36 13C23.2975 13 13 23.2975 13 36C13 48.7025 23.2975 59 36 59Z" fill="white"/>
<path d="M49.8069 46.5463C49.8069 46.5463 48.2269 54.9763 35.9969 55.3063C23.8169 54.8663 22.1869 46.5463 22.1869 46.5463C21.7269 44.8163 20.9468 40.7863 24.4669 42.7363C27.1669 44.2363 29.8469 47.1063 35.9969 47.2863C42.1569 47.1063 44.8269 44.2363 47.5269 42.7363C51.0469 40.7863 50.2769 44.8163 49.8069 46.5463Z" fill="#D22F27"/>
<path d="M35.9981 52.7344C29.9363 52.7344 26.0683 49.4245 25.0868 47.8197C24.1053 46.2149 25.6373 46.6645 25.9528 46.8167C28.2665 47.9331 29.994 49.5146 35.9981 49.7203V52.7344ZM35.9981 52.7344C42.0599 52.7344 45.9279 49.4245 46.9094 47.8197C47.8909 46.2149 46.3589 46.6645 46.0434 46.8167C43.7296 47.9331 42.0022 49.5146 35.9981 49.7203" fill="white"/>
<path d="M23.4432 21.1746C26.3421 19.6203 29.6367 19.5617 32.099 21.1746" stroke="black" stroke-width="2" stroke-miterlimit="10" stroke-linecap="round" stroke-linejoin="round"/>
<path d="M39.901 21.1746C42.7999 19.6203 46.0945 19.5617 48.5568 21.1746" stroke="black" stroke-width="2" stroke-miterlimit="10" stroke-linecap="round" stroke-linejoin="round"/>
<path d="M49.8078 46.5463C49.8078 46.5463 48.2278 54.9763 35.9978 55.3063C23.8178 54.8663 22.1878 46.5463 22.1878 46.5463C21.7278 44.8163 20.9477 40.7863 24.4678 42.7363C27.1678 44.2363 29.8478 47.1063 35.9978 47.2863C42.1578 47.1063 44.8278 44.2363 47.5278 42.7363C51.0478 40.7863 50.2778 44.8163 49.8078 46.5463Z" stroke="black" stroke-width="2" stroke-miterlimit="10" stroke-linecap="round" stroke-linejoin="round"/>
<path d="M13.8451 27.9329C13.8451 27.9329 11.7981 26.4647 13.2432 24.8093C13.2432 24.8093 10.9644 22.7964 12.8151 20.9054C12.8151 20.9054 11.5769 16.8322 14.9533 16.5964C14.9533 16.5964 14.5634 12.5243 19.0323 12.9979C19.0323 12.9979 21.5341 11.1964 23.3884 13.2468C23.3884 13.2468 25.9208 11.6389 27.2311 13.6494" stroke="black" stroke-width="2" stroke-miterlimit="10" stroke-linecap="round" stroke-linejoin="round"/>
<path d="M36 59C48.7025 59 59 48.7025 59 36C59 23.2975 48.7025 13 36 13C23.2975 13 13 23.2975 13 36C13 48.7025 23.2975 59 36 59Z" stroke="black" stroke-width="2" stroke-miterlimit="10" stroke-linecap="round" stroke-linejoin="round"/>
<path d="M58.1549 27.9329C58.1549 27.9329 60.2019 26.4647 58.7568 24.8093C58.7568 24.8093 61.0356 22.7964 59.1849 20.9054C59.1849 20.9054 60.4231 16.8322 57.0467 16.5964C57.0467 16.5964 57.4366 12.5243 52.9677 12.9979C52.9677 12.9979 50.4659 11.1964 48.6116 13.2468C48.6116 13.2468 46.0792 11.6389 44.7689 13.6494" stroke="black" stroke-width="2" stroke-miterlimit="10" stroke-linecap="round" stroke-linejoin="round"/>
<path d="M27.7711 37.1225C29.7041 37.1225 31.2711 34.2999 31.2711 30.818C31.2711 27.3361 29.7041 24.5135 27.7711 24.5135C25.8381 24.5135 24.2711 27.3361 24.2711 30.818C24.2711 34.2999 25.8381 37.1225 27.7711 37.1225Z" stroke="black" stroke-width="2" stroke-miterlimit="10"/>
<path d="M44.2289 37.1261C46.1619 37.1261 47.7289 34.3035 47.7289 30.8216C47.7289 27.3397 46.1619 24.5171 44.2289 24.5171C42.2959 24.5171 40.7289 27.3397 40.7289 30.8216C40.7289 34.3035 42.2959 37.1261 44.2289 37.1261Z" stroke="black" stroke-width="2" stroke-miterlimit="10"/>
<path d="M36 41.713C37.5106 41.713 38.7351 40.4885 38.7351 38.9779C38.7351 37.4673 37.5106 36.2428 36 36.2428C34.4894 36.2428 33.2649 37.4673 33.2649 38.9779C33.2649 40.4885 34.4894 41.713 36 41.713Z" fill="black"/>
<path d="M27.7711 37.1225C29.7041 37.1225 31.2711 34.2999 31.2711 30.818C31.2711 27.3361 29.7041 24.5135 27.7711 24.5135C25.8381 24.5135 24.2711 27.3361 24.2711 30.818C24.2711 34.2999 25.8381 37.1225 27.7711 37.1225Z" stroke="#92D3F5" stroke-width="2.1" stroke-miterlimit="10"/>
<path d="M44.2289 37.1261C46.1619 37.1261 47.7289 34.3035 47.7289 30.8216C47.7289 27.3397 46.1619 24.5171 44.2289 24.5171C42.2959 24.5171 40.7289 27.3397 40.7289 30.8216C40.7289 34.3035 42.2959 37.1261 44.2289 37.1261Z" stroke="#92D3F5" stroke-width="2.1" stroke-miterlimit="10"/>
<path d="M30.2676 30.816C30.2676 33.856 28.9476 36.126 27.7676 36.126C26.5876 36.126 25.2676 33.856 25.2676 30.816C25.2676 27.786 26.5876 25.516 27.7676 25.516C28.9476 25.516 30.2676 27.7861 30.2676 30.816Z" fill="black"/>
<path d="M46.7276 30.8261C46.7276 33.8561 45.4076 36.1261 44.2276 36.1261C43.0476 36.1261 41.7276 33.8561 41.7276 30.8261C41.7276 27.7861 43.0476 25.5161 44.2276 25.5161C45.4076 25.5161 46.7276 27.7861 46.7276 30.8261Z" fill="black"/>
<path d="M36.0563 41.713C37.5669 41.713 38.7914 40.4885 38.7914 38.9779C38.7914 37.4673 37.5669 36.2428 36.0563 36.2428C34.5458 36.2428 33.3212 37.4673 33.3212 38.9779C33.3212 40.4885 34.5458 41.713 36.0563 41.713Z" fill="#D22F27"/>
</svg>
