<svg  viewBox="0 0 72 72" fill="none" xmlns="http://www.w3.org/2000/svg">
<path d="M36.1 59.1C48.8026 59.1 59.1 48.8025 59.1 36.1C59.1 23.3974 48.8026 13.1 36.1 13.1C23.3975 13.1 13.1 23.3974 13.1 36.1C13.1 48.8025 23.3975 59.1 36.1 59.1Z" stroke="url(#paint0_radial)" stroke-width="1.8" stroke-miterlimit="10"/>
<path d="M36.1 59.1C48.8026 59.1 59.1 48.8025 59.1 36.1C59.1 23.3974 48.8026 13.1 36.1 13.1C23.3975 13.1 13.1 23.3974 13.1 36.1C13.1 48.8025 23.3975 59.1 36.1 59.1Z" stroke="url(#paint1_radial)" stroke-opacity="0.31" stroke-width="1.8" stroke-miterlimit="10"/>
<path d="M41.1 44.8C41.3 44.4 41.5 44 41.8 43.4C42.1 42.8 42.2 42 41.9 41.4C41.3 40.2 40.3 40.6 40.3 40.6C40.5 40.2 40.3 40.2 40.6 39.8C39.9 36.4 36.1 38.3 36.5 39.4C36.7 38.5 35 37 33.1 39.5C31 42.6 30.1 44.2 29 47.8C28.5 46.9 28.2 46.8 27.8 45.8C27.3 44.4 26.4 44 25.4 44.4C24.5 44.8 24 45.2 24.3 48C24.6 51 25.1 55.2 25.7 56.5C27.1 59.3 27.3 59.4 27.3 59.4L25.9 65.3L35.7 66C35.8 64.6 35.7 63.2 36.1 61.8C36.5 60.3 37.8 60.3 38.8 58.7C41.2 54.7 41.1 52.5 42.3 49.3C42.4 48.9 42.6 48.6 42.8 48.2C43.2 47.4 43.3 46.4 42.9 45.6C42.3 45.1 42 44.3 41.1 44.8Z" fill="url(#paint2_radial)"/>
<path d="M41.1 44.8C41.3 44.4 41.5 44 41.8 43.4C42.1 42.8 42.2 42 41.9 41.4C41.3 40.2 40.3 40.6 40.3 40.6C40.5 40.2 40.3 40.2 40.6 39.8C39.9 36.4 36.1 38.3 36.5 39.4C36.7 38.5 35 37 33.1 39.5C31 42.6 30.1 44.2 29 47.8C28.5 46.9 28.2 46.8 27.8 45.8C27.3 44.4 26.4 44 25.4 44.4C24.5 44.8 24 45.2 24.3 48C24.6 51 25.1 55.2 25.7 56.5C27.1 59.3 27.3 59.4 27.3 59.4L25.9 65.3L35.7 66C35.8 64.6 35.7 63.2 36.1 61.8C36.5 60.3 37.8 60.3 38.8 58.7C41.2 54.7 41.1 52.5 42.3 49.3C42.4 48.9 42.6 48.6 42.8 48.2C43.2 47.4 43.3 46.4 42.9 45.6C42.3 45.1 42 44.3 41.1 44.8Z" fill="url(#paint3_radial)" fill-opacity="0.31"/>
<path d="M37.2 59.5C49.3 58.8 58.7 48.8 58.7 36.7C58.7 24 48.5 13.7 35.8 13.6C23.1 13.6 12.7 23.9 12.7 36.6C12.7 45.6 17.9 53.7 26 57.5C29.6 58.9 33.4 59.6 37.2 59.5Z" fill="url(#paint4_radial)"/>
<path d="M37.2 59.5C49.3 58.8 58.7 48.8 58.7 36.7C58.7 24 48.5 13.7 35.8 13.6C23.1 13.6 12.7 23.9 12.7 36.6C12.7 45.6 17.9 53.7 26 57.5C29.6 58.9 33.4 59.6 37.2 59.5Z" fill="url(#paint5_radial)" fill-opacity="0.31"/>
<path d="M25.9 65.3C26.5 62.3 27 60.1 27.2 59.2C26.8 58.4 26.4 57.5 26 56.7C25.8 56.3 25.4 55.1 24.8 48.4C24.6 46.4 24.7 45.3 25.3 44.6C25.6 44.2 26.1 44 26.5 44C27.8 44 28.2 45.2 28.5 46.4L28.6 46.7L28.8 47.3C29.7 44.7 30.9 42.1 32.3 39.8C34.1 36.8 35.8 39.2 35.8 39.2C38 35.1 40.8 38.4 39.8 40.5C40 40.4 40.7 40.1 41.4 40.4C42 40.6 42.3 41.2 42.3 41.8C42.3 42.5 42.1 43.5 41.4 44.6C41.8 44.8 42.2 45.1 42.4 45.5C42.8 46.4 42.8 47.4 42.3 48.3L41.4 50C41.1 50.9 40.9 51.8 40.7 52.6C40.3 54.8 39.5 56.9 38.4 58.9C38 59.6 37.6 60.2 37 60.6C36.6 61 36.3 61.2 36.2 61.6C36 62.8 35.7 64.4 35.6 66" fill="url(#paint6_radial)"/>
<path d="M25.9 65.3C26.5 62.3 27 60.1 27.2 59.2C26.8 58.4 26.4 57.5 26 56.7C25.8 56.3 25.4 55.1 24.8 48.4C24.6 46.4 24.7 45.3 25.3 44.6C25.6 44.2 26.1 44 26.5 44C27.8 44 28.2 45.2 28.5 46.4L28.6 46.7L28.8 47.3C29.7 44.7 30.9 42.1 32.3 39.8C34.1 36.8 35.8 39.2 35.8 39.2C38 35.1 40.8 38.4 39.8 40.5C40 40.4 40.7 40.1 41.4 40.4C42 40.6 42.3 41.2 42.3 41.8C42.3 42.5 42.1 43.5 41.4 44.6C41.8 44.8 42.2 45.1 42.4 45.5C42.8 46.4 42.8 47.4 42.3 48.3L41.4 50C41.1 50.9 40.9 51.8 40.7 52.6C40.3 54.8 39.5 56.9 38.4 58.9C38 59.6 37.6 60.2 37 60.6C36.6 61 36.3 61.2 36.2 61.6C36 62.8 35.7 64.4 35.6 66" fill="url(#paint7_radial)" fill-opacity="0.31"/>
<path d="M25.9 65.3C26.5 62.3 27 60.1 27.2 59.2C26.8 58.4 26.4 57.5 26 56.7C25.8 56.3 25.4 55.1 24.8 48.4C24.6 46.4 24.7 45.3 25.3 44.6C25.6 44.2 26.1 44 26.5 44C27.8 44 28.2 45.2 28.5 46.4L28.6 46.7L28.8 47.3C29.7 44.7 30.9 42.1 32.3 39.8C34.1 36.8 35.8 39.2 35.8 39.2C38 35.1 40.8 38.4 39.8 40.5C40 40.4 40.7 40.1 41.4 40.4C42 40.6 42.3 41.2 42.3 41.8C42.3 42.5 42.1 43.5 41.4 44.6C41.8 44.8 42.2 45.1 42.4 45.5C42.8 46.4 42.8 47.4 42.3 48.3L41.4 50C41.1 50.9 40.9 51.8 40.7 52.6C40.3 54.8 39.5 56.9 38.4 58.9C38 59.6 37.6 60.2 37 60.6C36.6 61 36.3 61.2 36.2 61.6C36 62.8 35.7 64.4 35.6 66" stroke="black" stroke-width="2" stroke-linecap="round" stroke-linejoin="round"/>
<path d="M43.013 58.8154C55.6009 54.9978 62.617 41.7909 58.7994 29.203C54.9818 16.6152 41.7749 9.59898 29.187 13.4166C16.5991 17.2342 9.58296 30.4412 13.4006 43.029C14.7419 47.3625 17.2182 51.2833 20.7263 54.1724" stroke="#F5CC60" stroke-width="0.5" stroke-linecap="round" stroke-linejoin="round"/>
<path d="M30 31.1C30 32.8 28.7 34.1 27 34.1C25.3 34.1 24 32.8 24 31.1C24 29.4 25.3 28.1 27 28.1C28.7 28.1 30 29.4 30 31.1Z" fill="black"/>
<path d="M48 31.1C48 32.8 46.7 34.1 45 34.1C43.3 34.1 42 32.8 42 31.1C42 29.4 43.3 28.1 45 28.1C46.7 28.1 48 29.4 48 31.1Z" fill="black"/>
<defs>
<radialGradient id="paint0_radial" cx="0" cy="0" r="1" gradientUnits="userSpaceOnUse" gradientTransform="translate(35.4035 25.2053) rotate(87.2844) scale(39.9923)">
<stop offset="0.453125" stop-color="#FFCC48"/>
<stop offset="0.874464" stop-color="#F29F23"/>
</radialGradient>
<radialGradient id="paint1_radial" cx="0" cy="0" r="1" gradientUnits="userSpaceOnUse" gradientTransform="translate(36.0351 22.5211) rotate(89.8984) scale(36.579)">
<stop offset="0.140625" stop-color="white"/>
<stop offset="0.473958" stop-color="white" stop-opacity="0"/>
</radialGradient>
<radialGradient id="paint2_radial" cx="0" cy="0" r="1" gradientUnits="userSpaceOnUse" gradientTransform="translate(33.3969 45.2716) rotate(88.1708) scale(24.4423 16.4781)">
<stop offset="0.453125" stop-color="#FFCC48"/>
<stop offset="0.874464" stop-color="#F29F23"/>
</radialGradient>
<radialGradient id="paint3_radial" cx="0" cy="0" r="1" gradientUnits="userSpaceOnUse" gradientTransform="translate(33.657 43.6301) rotate(89.9316) scale(22.3699 15.0625)">
<stop offset="0.140625" stop-color="white"/>
<stop offset="0.473958" stop-color="white" stop-opacity="0"/>
</radialGradient>
<radialGradient id="paint4_radial" cx="0" cy="0" r="1" gradientUnits="userSpaceOnUse" gradientTransform="translate(35.0036 25.6814) rotate(87.2791) scale(39.9137 39.9921)">
<stop offset="0.453125" stop-color="#FFCC48"/>
<stop offset="0.874464" stop-color="#F29F23"/>
</radialGradient>
<radialGradient id="paint5_radial" cx="0" cy="0" r="1" gradientUnits="userSpaceOnUse" gradientTransform="translate(35.6351 23.0025) rotate(89.8982) scale(36.507 36.579)">
<stop offset="0.140625" stop-color="white"/>
<stop offset="0.473958" stop-color="white" stop-opacity="0"/>
</radialGradient>
<radialGradient id="paint6_radial" cx="0" cy="0" r="1" gradientUnits="userSpaceOnUse" gradientTransform="translate(33.4252 44.8126) rotate(88.301) scale(24.9819 15.6443)">
<stop offset="0.453125" stop-color="#FFCC48"/>
<stop offset="0.874464" stop-color="#F29F23"/>
</radialGradient>
<radialGradient id="paint7_radial" cx="0" cy="0" r="1" gradientUnits="userSpaceOnUse" gradientTransform="translate(33.6721 43.1347) rotate(89.9364) scale(22.8653 14.2993)">
<stop offset="0.140625" stop-color="white"/>
<stop offset="0.473958" stop-color="white" stop-opacity="0"/>
</radialGradient>
</defs>
</svg>
