<svg  viewBox="0 0 72 72" fill="none" xmlns="http://www.w3.org/2000/svg">
<path d="M36.0027 59C48.7052 59 59.0027 48.7025 59.0027 36C59.0027 23.2975 48.7052 13 36.0027 13C23.3002 13 13.0027 23.2975 13.0027 36C13.0027 48.7025 23.3002 59 36.0027 59Z" fill="#B1CC33"/>
<path d="M27.2671 22.3665C27.0288 23.9101 26.2281 25.3092 25.0175 26.2954C23.911 27.4092 22.4286 28.0678 20.8615 28.1468" stroke="black" stroke-width="2" stroke-miterlimit="10" stroke-linecap="round" stroke-linejoin="round"/>
<path d="M44.7329 22.3665C44.9712 23.9101 45.7719 25.3092 46.9825 26.2954C48.089 27.4092 49.5714 28.0678 51.1385 28.1468" stroke="black" stroke-width="2" stroke-miterlimit="10" stroke-linecap="round" stroke-linejoin="round"/>
<path d="M36.0027 59C48.7052 59 59.0027 48.7025 59.0027 36C59.0027 23.2975 48.7052 13 36.0027 13C23.3002 13 13.0027 23.2975 13.0027 36C13.0027 48.7025 23.3002 59 36.0027 59Z" stroke="#A1BD1E" stroke-width="0.5" stroke-miterlimit="10" stroke-linecap="round" stroke-linejoin="round"/>
<path d="M30.0432 46.0186C31.3264 45.1995 33.913 44.9805 36 44.9805C38.087 44.9805 40.6737 45.1995 41.9568 46.0186" stroke="black" stroke-width="2" stroke-miterlimit="10" stroke-linecap="round" stroke-linejoin="round"/>
<path d="M28.669 42.8384C30.5013 44.5078 30.5013 47.0729 28.669 48.8238" stroke="black" stroke-width="2" stroke-miterlimit="10" stroke-linecap="round" stroke-linejoin="round"/>
<path d="M43.3308 42.8384C41.4985 44.5078 41.4985 47.0729 43.3308 48.8238" stroke="black" stroke-width="2" stroke-miterlimit="10" stroke-linecap="round" stroke-linejoin="round"/>
<path d="M30 33C30 34.6568 28.6552 36 27 36C25.3447 36 24 34.6567 24 33C24 31.3448 25.3447 30 27 30C28.6552 30 30 31.3448 30 33Z" fill="black"/>
<path d="M48 33C48 34.6568 46.6553 36 45 36C43.3447 36 42 34.6567 42 33C42 31.3448 43.3447 30 45 30C46.6553 30 48 31.3448 48 33Z" fill="black"/>
</svg>
