<svg  viewBox="0 0 72 72" fill="none" xmlns="http://www.w3.org/2000/svg">
<g filter="url(#filter0_i)">
<path d="M36.0001 60C49.255 60 60.0001 49.2548 60.0001 36C60.0001 22.7452 49.255 12 36.0001 12C22.7453 12 12.0001 22.7452 12.0001 36C12.0001 49.2548 22.7453 60 36.0001 60Z" fill="url(#paint0_radial)"/>
<path d="M36.0001 60C49.255 60 60.0001 49.2548 60.0001 36C60.0001 22.7452 49.255 12 36.0001 12C22.7453 12 12.0001 22.7452 12.0001 36C12.0001 49.2548 22.7453 60 36.0001 60Z" fill="url(#paint1_radial)" fill-opacity="0.31"/>
</g>
<path d="M25.0424 21.2371L33.0285 20.0364L29.1238 27.1056L32.7335 34.3298L24.8037 32.8007L19.0485 38.4662L18.0524 30.452L10.8857 26.7292L18.1999 23.3052L19.5258 15.3389L25.0424 21.2371Z" fill="#F1B31C"/>
<path d="M46.8821 21.2371L38.896 20.0364L42.8007 27.1056L39.191 34.3298L47.1208 32.8007L52.876 38.4662L53.8721 30.452L61.0388 26.7292L53.7246 23.3052L52.3987 15.3389L46.8821 21.2371Z" fill="#F1B31C"/>
<path d="M49.7371 46.356C47.9471 50.626 43.3871 53.586 36.0371 53.586C28.6271 53.586 24.0071 50.556 22.2371 46.226C24.2671 46.686 37.2171 49.3959 49.7371 46.356Z" fill="#EA5A47"/>
<path d="M50.6071 41.866C50.6071 43.466 50.3171 44.976 49.7371 46.356C37.2171 49.396 24.2671 46.686 22.2371 46.226C21.6871 44.876 21.4071 43.406 21.4071 41.866H21.5171C21.5171 41.866 36.3271 45.456 50.4071 41.936L50.6071 41.866Z" fill="white"/>
<path d="M50.6071 41.866C50.6071 43.466 50.3171 44.976 49.7371 46.356C37.2171 49.396 24.2671 46.686 22.2371 46.226C21.6871 44.876 21.4071 43.406 21.4071 41.866H21.5171C21.5171 41.866 36.3271 45.456 50.4071 41.936L50.6071 41.866Z" stroke="black" stroke-width="2" stroke-miterlimit="10" stroke-linecap="round" stroke-linejoin="round"/>
<path d="M49.7371 46.356C47.9471 50.626 43.3871 53.586 36.0371 53.586C28.6271 53.586 24.0071 50.556 22.2371 46.226C24.2671 46.686 37.2171 49.3959 49.7371 46.356Z" stroke="black" stroke-width="2" stroke-miterlimit="10" stroke-linejoin="round"/>
<path d="M50.2271 46.236C50.0671 46.276 49.8971 46.316 49.7371 46.356" stroke="black" stroke-width="2" stroke-miterlimit="10" stroke-linejoin="round"/>
<path d="M22.2371 46.226C22.0471 46.176 21.9571 46.156 21.9571 46.156" stroke="black" stroke-width="2" stroke-miterlimit="10" stroke-linejoin="round"/>
<path d="M46.5542 15.5591C43.3932 13.9237 39.8045 13 36 13C32.0454 13 28.324 13.9979 25.0739 15.7556C25.0237 15.7827 24.9737 15.81 24.9238 15.8375" stroke="#F5CC60" stroke-width="0.5" stroke-miterlimit="10" stroke-linecap="round" stroke-linejoin="round"/>
<path d="M13.1945 32.9954C13.0662 33.9787 13.0001 34.9816 13.0001 36C13.0001 48.7022 23.297 59 36.0001 59C48.7023 59 59.0001 48.7022 59.0001 36C59.0001 34.9927 58.9353 34.0005 58.8098 33.0274" stroke="#F5CC60" stroke-width="0.5" stroke-miterlimit="10" stroke-linecap="round" stroke-linejoin="round"/>
<path d="M25.1179 21.2371L33.104 20.0364L29.1993 27.1056L32.809 34.3298L24.8792 32.8007L19.124 38.4662L18.1279 30.452L10.9612 26.7292L18.2754 23.3052L19.6013 15.3389L25.1179 21.2371Z" stroke="black" stroke-width="2" stroke-miterlimit="10" stroke-linecap="round" stroke-linejoin="round"/>
<path d="M46.8821 21.2371L38.896 20.0364L42.8007 27.1056L39.191 34.3298L47.1208 32.8007L52.876 38.4662L53.8721 30.452L61.0388 26.7292L53.7246 23.3052L52.3987 15.3389L46.8821 21.2371Z" stroke="black" stroke-width="2" stroke-miterlimit="10" stroke-linecap="round" stroke-linejoin="round"/>
<defs>
<filter id="filter0_i" x="12.0001" y="12" width="48" height="50.1936" filterUnits="userSpaceOnUse" color-interpolation-filters="sRGB">
<feFlood flood-opacity="0" result="BackgroundImageFix"/>
<feBlend mode="normal" in="SourceGraphic" in2="BackgroundImageFix" result="shape"/>
<feColorMatrix in="SourceAlpha" type="matrix" values="0 0 0 0 0 0 0 0 0 0 0 0 0 0 0 0 0 0 127 0" result="hardAlpha"/>
<feOffset dy="2.19361"/>
<feGaussianBlur stdDeviation="1.09681"/>
<feComposite in2="hardAlpha" operator="arithmetic" k2="-1" k3="1"/>
<feColorMatrix type="matrix" values="0 0 0 0 0 0 0 0 0 0 0 0 0 0 0 0 0 0 0.1 0"/>
<feBlend mode="normal" in2="shape" result="effect1_innerShadow"/>
</filter>
<radialGradient id="paint0_radial" cx="0" cy="0" r="1" gradientUnits="userSpaceOnUse" gradientTransform="translate(35.2734 24.6316) rotate(87.2844) scale(41.7311)">
<stop offset="0.453125" stop-color="#FFCC48"/>
<stop offset="0.874464" stop-color="#F29F23"/>
</radialGradient>
<radialGradient id="paint1_radial" cx="0" cy="0" r="1" gradientUnits="userSpaceOnUse" gradientTransform="translate(35.9324 21.8307) rotate(89.8984) scale(38.1694)">
<stop offset="0.140625" stop-color="white"/>
<stop offset="0.473958" stop-color="white" stop-opacity="0"/>
</radialGradient>
</defs>
</svg>
