<svg  viewBox="0 0 72 72" fill="none" xmlns="http://www.w3.org/2000/svg">
<path d="M36 59C48.7025 59 59 48.7025 59 36C59 23.2975 48.7025 13 36 13C23.2975 13 13 23.2975 13 36C13 48.7025 23.2975 59 36 59Z" fill="#EA5A47"/>
<path d="M32.47 49H28.853C26.997 48.9944 25.493 47.454 25.488 45.552C25.4935 43.65 26.997 42.11 28.853 42.104H43.153C45.009 42.1096 46.513 43.65 46.518 45.552C46.5125 47.454 45.009 48.994 43.153 49H41.368" fill="black"/>
<path d="M50.39 40.63C49.8595 40.1025 49.5622 39.384 49.5644 38.636C49.5644 36.157 51.9074 33.785 52.0074 33.686C52.2142 33.4789 52.5498 33.4787 52.7569 33.6855L52.7574 33.686C52.8574 33.786 55.2004 36.158 55.2014 38.637C55.2001 40.194 53.9364 41.455 52.3794 41.454C51.6332 41.4534 50.9174 41.1569 50.3894 40.6297L50.39 40.63Z" fill="#92D3F5"/>
<path d="M41.66 44.82C41.66 50.895 39.128 55.82 36.004 55.82C32.88 55.82 30.348 50.895 30.348 44.82C34.362 43.12 38.109 43.283 41.658 44.82H41.66Z" fill="#FFA7C0"/>
<path d="M36 59C48.7025 59 59 48.7025 59 36C59 23.2975 48.7025 13 36 13C23.2975 13 13 23.2975 13 36C13 48.7025 23.2975 59 36 59Z" stroke="#CF1C04" stroke-width="0.5" stroke-miterlimit="10"/>
<path d="M30 30.92C29.9986 32.577 28.654 33.919 26.998 33.918C25.342 33.917 23.999 32.572 24 30.916C24.001 29.26 25.346 27.917 27.002 27.918C28.659 27.92 30 29.264 30 30.92Z" fill="black"/>
<path d="M48 30.94C47.9986 32.597 46.654 33.939 44.998 33.938C43.342 33.937 41.999 32.592 42 30.936C42.001 29.28 43.346 27.937 45.002 27.938C46.659 27.9399 48 29.284 48 30.94Z" fill="black"/>
<path d="M20.88 25.89C22.594 26.3876 24.432 26.2283 26.035 25.4431C27.376 24.758 28.464 23.6631 29.14 22.3171" stroke="black" stroke-width="2" stroke-linecap="round" stroke-linejoin="round"/>
<path d="M51.14 25.89C49.426 26.3876 47.588 26.2283 45.985 25.4431C44.644 24.758 43.556 23.6631 42.88 22.3171" stroke="black" stroke-width="2" stroke-linecap="round" stroke-linejoin="round"/>
<path d="M41.66 44.82C41.66 50.895 39.128 55.82 36.004 55.82C32.88 55.82 30.348 50.895 30.348 44.82C35.489 42.841 38.546 43.8726 41.658 44.82H41.66Z" stroke="black" stroke-width="2" stroke-miterlimit="10" stroke-linecap="round" stroke-linejoin="round"/>
<path d="M50.39 40.63C49.8595 40.1025 49.5622 39.384 49.5644 38.636C49.5644 36.157 51.9074 33.785 52.0074 33.686C52.2142 33.4789 52.5498 33.4787 52.7569 33.6855L52.7574 33.686C52.8574 33.786 55.2004 36.158 55.2014 38.637C55.2001 40.194 53.9364 41.455 52.3794 41.454C51.6332 41.4534 50.9174 41.1569 50.3894 40.6297L50.39 40.63Z" stroke="black" stroke-width="2" stroke-miterlimit="10" stroke-linecap="round" stroke-linejoin="round"/>
<path d="M31.56 49.05H28.821C26.956 49.0442 25.446 47.449 25.44 45.479C25.4455 43.509 26.956 41.913 28.821 41.908H43.191C45.056 41.9138 46.566 43.509 46.572 45.479C46.5665 47.449 45.056 49.045 43.191 49.05H40.542" stroke="black" stroke-width="1.737" stroke-miterlimit="2"/>
</svg>
