<svg  viewBox="0 0 72 72" fill="none" xmlns="http://www.w3.org/2000/svg">
<path d="M36 12C22.75 12.0001 12 22.75 12 36C12 49.25 22.75 60 36 60C49.25 60 60 49.25 60 36C59.9851 22.75 49.25 12.01 36 12Z" fill="#92D3F5"/>
<path d="M11.65 36.29C10.8932 38.035 10.522 39.923 10.561 41.825C10.7255 46.573 11.821 51.243 13.785 55.565C14.0587 56.1408 14.5017 56.1402 14.775 55.565C16.739 51.238 17.835 46.568 18 41.815V41.8145C17.9991 37.5015 16.33 33.9925 14.28 33.9925C13.2875 33.99 12.354 34.804 11.651 36.2825L11.65 36.29Z" fill="white"/>
<path d="M54.65 36.29C53.8932 38.035 53.522 39.923 53.561 41.825C53.7255 46.573 54.821 51.243 56.785 55.565C57.0587 56.1408 57.5017 56.1402 57.775 55.565C59.739 51.238 60.835 46.568 61 41.815V41.8145C60.9991 37.5015 59.33 33.9925 57.28 33.9925C56.2875 33.99 55.354 34.804 54.651 36.2825L54.65 36.29Z" fill="white"/>
<path d="M21.36 52.22C20.8189 53.1048 20.5425 54.126 20.5635 55.163C20.7158 57.76 21.5269 60.275 22.9205 62.471C23.0145 62.6709 23.2528 62.7567 23.4527 62.6627C23.537 62.6231 23.6047 62.5553 23.6444 62.471C25.0384 60.274 25.8494 57.759 26.0024 55.162C26.0017 52.868 24.7814 51.002 23.2824 51.002C22.4748 51.0501 21.7484 51.51 21.3604 52.22H21.36Z" fill="white"/>
<path d="M47.36 52.22C46.8189 53.1048 46.5425 54.126 46.5635 55.163C46.7158 57.76 47.5269 60.275 48.9205 62.471C49.0145 62.6709 49.2528 62.7567 49.4527 62.6627C49.537 62.6231 49.6047 62.5553 49.6444 62.471C51.0384 60.274 51.8494 57.759 52.0024 55.162C52.0017 52.868 50.7814 51.002 49.2824 51.002C48.4748 51.0501 47.7484 51.51 47.3604 52.22H47.36Z" fill="white"/>
<path d="M44.5 49.27H27.5C25.294 49.2635 23.506 47.476 23.5 45.27C23.5065 43.064 25.294 41.276 27.5 41.27H44.5C46.706 41.2765 48.494 43.064 48.5 45.27C48.4935 47.476 46.706 49.264 44.5 49.27Z" fill="white"/>
<path d="M48.34 16.8C49.135 16.6343 49.862 15.9157 50.005 14.001C50.3037 10.012 41.005 10.001 41.005 10.001C41.005 10.001 38.005 10.001 32.005 7.00101C26.005 4.00101 20.005 14.001 20.005 14.001C20.005 14.001 17.005 20.001 15.005 19.001C13.005 18.001 10.005 21.001 12.005 25.001C12.005 25.001 13.005 32.001 18.005 27.001C23.005 22.001 21.005 19.001 28.005 20.001C35.005 21.001 39.005 20.001 39.005 18.001C39.005 16.001 44.005 14.001 46.005 16.001C46.5996 16.6428 47.477 16.943 48.34 16.8003" fill="white"/>
<path d="M44.1649 58.4743C39.2406 60.2452 33.8757 60.3674 28.8784 58.8242" stroke="#55B8EC" stroke-width="0.5" stroke-miterlimit="10" stroke-linecap="round"/>
<path d="M51.568 17.5955C55.5546 20.988 58.3226 25.5906 59.4514 30.6997" stroke="#55B8EC" stroke-width="0.5" stroke-miterlimit="10" stroke-linecap="round"/>
<path d="M12.5686 30.5744C12.7302 29.8619 12.9218 29.1637 13.1419 28.4819" stroke="#55B8EC" stroke-width="0.5" stroke-miterlimit="10" stroke-linecap="round"/>
<path d="M11.65 36.29C10.8932 38.035 10.522 39.923 10.561 41.825C10.7255 46.573 11.821 51.243 13.785 55.565C14.0587 56.1408 14.5017 56.1402 14.775 55.565C16.739 51.238 17.835 46.568 18 41.815V41.8145C17.9991 37.5015 16.33 33.9925 14.28 33.9925C13.2875 33.99 12.354 34.804 11.651 36.2825L11.65 36.29Z" stroke="black" stroke-width="2" stroke-miterlimit="10"/>
<path d="M54.65 36.29C53.8932 38.035 53.522 39.923 53.561 41.825C53.7255 46.573 54.821 51.243 56.785 55.565C57.0587 56.1408 57.5017 56.1402 57.775 55.565C59.739 51.238 60.835 46.568 61 41.815V41.8145C60.9991 37.5015 59.33 33.9925 57.28 33.9925C56.2875 33.99 55.354 34.804 54.651 36.2825L54.65 36.29Z" stroke="black" stroke-width="2" stroke-miterlimit="10"/>
<path d="M21.36 52.22C20.8189 53.1048 20.5425 54.126 20.5635 55.163C20.7158 57.76 21.5269 60.275 22.9205 62.471C23.0145 62.6709 23.2528 62.7567 23.4527 62.6627C23.537 62.6231 23.6047 62.5553 23.6444 62.471C25.0384 60.274 25.8494 57.759 26.0024 55.162C26.0017 52.868 24.7814 51.002 23.2824 51.002C22.4748 51.0501 21.7484 51.51 21.3604 52.22H21.36Z" stroke="black" stroke-width="2" stroke-miterlimit="10"/>
<path d="M47.36 52.22C46.8189 53.1048 46.5425 54.126 46.5635 55.163C46.7158 57.76 47.5269 60.275 48.9205 62.471C49.0145 62.6709 49.2528 62.7567 49.4527 62.6627C49.537 62.6231 49.6047 62.5553 49.6444 62.471C51.0384 60.274 51.8494 57.759 52.0024 55.162C52.0017 52.868 50.7814 51.002 49.2824 51.002C48.4748 51.0501 47.7484 51.51 47.3604 52.22H47.36Z" stroke="black" stroke-width="2" stroke-miterlimit="10"/>
<path d="M44.5 49.27H27.5C25.294 49.2635 23.506 47.476 23.5 45.27C23.5065 43.064 25.294 41.276 27.5 41.27H44.5C46.706 41.2765 48.494 43.064 48.5 45.27C48.4935 47.476 46.706 49.264 44.5 49.27Z" stroke="black" stroke-width="2" stroke-miterlimit="2"/>
<path d="M28 41.77V48.77" stroke="black" stroke-width="2" stroke-linecap="round" stroke-linejoin="round"/>
<path d="M33 41.77V48.77" stroke="black" stroke-width="2" stroke-linecap="round" stroke-linejoin="round"/>
<path d="M38 41.77V48.77" stroke="black" stroke-width="2" stroke-linecap="round" stroke-linejoin="round"/>
<path d="M43 41.77V48.77" stroke="black" stroke-width="2" stroke-linecap="round" stroke-linejoin="round"/>
<path d="M48.34 16.8C49.135 16.6343 49.862 15.9157 50.005 14.001C50.3037 10.012 41.005 10.001 41.005 10.001C41.005 10.001 38.005 10.001 32.005 7.00101C26.005 4.00101 20.005 14.001 20.005 14.001C20.005 14.001 17.005 20.001 15.005 19.001C13.005 18.001 10.005 21.001 12.005 25.001C12.005 25.001 13.005 32.001 18.005 27.001C23.005 22.001 21.005 19.001 28.005 20.001C35.005 21.001 39.005 20.001 39.005 18.001C39.005 16.001 44.005 14.001 46.005 16.001C46.5996 16.6428 47.477 16.943 48.34 16.8003" stroke="black" stroke-width="2" stroke-miterlimit="10"/>
<path d="M30 31C30 32.657 28.655 34 27 34C25.345 34 24 32.657 24 31C24 29.345 25.345 28 27 28C28.655 28 30 29.345 30 31Z" fill="black"/>
<path d="M48 31C48 32.657 46.655 34 45 34C43.345 34 42 32.657 42 31C42 29.345 43.345 28 45 28C46.655 28 48 29.345 48 31Z" fill="black"/>
</svg>
