<svg  viewBox="0 0 72 72" fill="none" xmlns="http://www.w3.org/2000/svg">
<g filter="url(#filter0_i)">
<path d="M36 59C48.7025 59 59 48.7025 59 36C59 23.2975 48.7025 13 36 13C23.2975 13 13 23.2975 13 36C13 48.7025 23.2975 59 36 59Z" fill="url(#paint0_radial)"/>
<path d="M36 59C48.7025 59 59 48.7025 59 36C59 23.2975 48.7025 13 36 13C23.2975 13 13 23.2975 13 36C13 48.7025 23.2975 59 36 59Z" fill="url(#paint1_radial)" fill-opacity="0.31"/>
</g>
<path d="M15.0628 6.4465L17.0628 21.4465L33.0628 15.4465L15.0628 6.4465Z" fill="#F4AA41"/>
<path d="M26.9838 12.4065L33.0628 15.4465L19.9118 20.3785" fill="#E27022"/>
<path d="M15.3958 10.8345L20.6208 8.8175L23.4538 10.5795L15.5628 13.9465L15.3958 10.8345Z" fill="#EA5A47"/>
<path d="M25.4208 12.3925L26.5628 11.9465L30.5628 12.9465L24.0628 15.7315" fill="#D22F27"/>
<path d="M24.0628 15.7315L16.5588 18.9465L16.3958 15.9125L25.4208 12.3925" fill="#EA5A47"/>
<path d="M36.4495 42.1182C36.4495 42.1182 47.0004 45.2263 36.4957 47.6818C36.4957 47.6818 46.9778 50.5831 36.5365 52.5941" stroke="black" stroke-width="2" stroke-linecap="round" stroke-linejoin="round"/>
<path d="M21.0196 27.355C21.728 25.9639 22.9272 24.8849 24.3852 24.327C25.7844 23.616 27.3985 23.4525 28.9118 23.8685" stroke="black" stroke-width="2" stroke-linecap="round" stroke-linejoin="round"/>
<path d="M50.6289 27.1092C49.0235 24.3499 45.7909 22.9795 42.6915 23.7444" stroke="black" stroke-width="2" stroke-linecap="round" stroke-linejoin="round"/>
<path d="M23.4538 34.3787C25.9613 33.0982 28.9254 33.0736 31.4538 34.3123" stroke="black" stroke-width="2" stroke-linecap="round" stroke-linejoin="round"/>
<path d="M40.7028 34.2355C43.2103 32.955 46.1744 32.9304 48.7028 34.169" stroke="black" stroke-width="2" stroke-linecap="round" stroke-linejoin="round"/>
<path d="M45.9475 15.294C57.3967 20.7967 62.2173 34.5389 56.7146 45.988C51.2119 57.4371 37.4697 62.2578 26.0206 56.7551C14.5715 51.2524 9.7508 37.5103 15.2535 26.0611C15.6384 25.2603 16.0694 24.4824 16.5442 23.7315" stroke="#F5CC60" stroke-width="0.5" stroke-linecap="round" stroke-linejoin="round"/>
<path d="M34.9564 13.0521C35.2339 13.0398 35.5127 13.0325 35.7926 13.0302C39.3064 12.9959 42.781 13.7705 45.9475 15.294" stroke="black" stroke-width="2" stroke-linecap="round" stroke-linejoin="round"/>
<path d="M17.3843 20.9801L14.5628 5.9801" stroke="black" stroke-width="2" stroke-linecap="round" stroke-linejoin="round"/>
<path d="M33.5628 15.2458L14.5628 5.9801" stroke="black" stroke-width="2" stroke-linecap="round" stroke-linejoin="round"/>
<path d="M17.3843 20.9801L33.5628 15.2458" stroke="black" stroke-width="2" stroke-linecap="round" stroke-linejoin="round"/>
<path d="M61.9463 11.6129C61.8747 12.1287 61.7208 12.6297 61.4907 13.0969C60.2021 15.6177 57.1545 16.6732 54.5828 15.4894" stroke="black" stroke-width="2" stroke-linecap="round" stroke-linejoin="round"/>
<path d="M66.4265 43.3491C65.9183 43.2355 65.4315 43.0412 64.9847 42.7737C62.5773 41.2834 61.7744 38.1593 63.1647 35.6928" stroke="black" stroke-width="2" stroke-linecap="round" stroke-linejoin="round"/>
<path d="M61.9463 62.9681C61.8747 62.4523 61.7208 61.9513 61.4907 61.4841C60.2021 58.9633 57.1545 57.9078 54.5828 59.0916" stroke="black" stroke-width="2" stroke-linecap="round" stroke-linejoin="round"/>
<path d="M24.7394 55.925C24.4112 55.5207 24.0203 55.1716 23.5816 54.8909C21.1743 53.4002 18.0196 54.0742 16.4316 56.4185" stroke="black" stroke-width="2" stroke-linecap="round" stroke-linejoin="round"/>
<path d="M62.2115 25.4594C63.0399 25.4307 63.6882 24.7359 63.6595 23.9074C63.6322 23.1193 62.9996 22.4867 62.2115 22.4594C61.3831 22.4881 60.7348 23.1829 60.7635 24.0114C60.7908 24.7995 61.4234 25.4321 62.2115 25.4594Z" fill="black"/>
<path d="M62.2115 50.4594C63.0399 50.4307 63.6882 49.7359 63.6595 48.9074C63.6322 48.1193 62.9996 47.4867 62.2115 47.4594C61.3831 47.4881 60.7348 48.1829 60.7635 49.0114C60.7908 49.7995 61.4234 50.4321 62.2115 50.4594Z" fill="black"/>
<path d="M29.2115 66.4594C30.0399 66.4307 30.6882 65.7359 30.6595 64.9074C30.6322 64.1193 29.9996 63.4867 29.2115 63.4594C28.3831 63.4881 27.7348 64.1829 27.7635 65.0114C27.7908 65.7995 28.4234 66.4321 29.2115 66.4594Z" fill="black"/>
<path d="M20.2115 48.4594C21.0399 48.4307 21.6882 47.7359 21.6595 46.9074C21.6322 46.1193 20.9996 45.4867 20.2115 45.4594C19.3831 45.4881 18.7348 46.1829 18.7635 47.0114C18.7908 47.7995 19.4234 48.4321 20.2115 48.4594Z" fill="black"/>
<path d="M44.2115 64.4594C45.0399 64.4307 45.6882 63.7359 45.6595 62.9074C45.6322 62.1193 44.9996 61.4867 44.2115 61.4594C43.3831 61.4881 42.7348 62.1829 42.7635 63.0114C42.7908 63.7995 43.4234 64.4321 44.2115 64.4594Z" fill="black"/>
<path d="M38.5628 47.9801H44.0628C44.0628 47.9801 49.5628 47.9801 49.5628 44.9801C49.5628 42.7482 48.0407 42.1768 46.1289 42.0301" stroke="black" stroke-width="2" stroke-linecap="round" stroke-linejoin="round"/>
<path d="M62.2115 25.457C63.0399 25.4283 63.6882 24.7335 63.6595 23.905C63.6322 23.1169 62.9996 22.4843 62.2115 22.457C61.3831 22.4857 60.7348 23.1805 60.7635 24.009C60.7908 24.7971 61.4234 25.4297 62.2115 25.457Z" fill="#8967AA"/>
<path d="M44.2115 64.457C45.0399 64.4283 45.6882 63.7335 45.6595 62.905C45.6322 62.1169 44.9996 61.4843 44.2115 61.457C43.3831 61.4857 42.7348 62.1805 42.7635 63.009C42.7908 63.7971 43.4234 64.4297 44.2115 64.457Z" fill="#8967AA"/>
<path d="M29.2115 66.457C30.0399 66.4283 30.6882 65.7335 30.6595 64.905C30.6322 64.1169 29.9996 63.4843 29.2115 63.457C28.3831 63.4857 27.7348 64.1805 27.7635 65.009C27.7908 65.7971 28.4234 66.4297 29.2115 66.457Z" fill="#F4AA41"/>
<path d="M20.2115 48.457C21.0399 48.4283 21.6882 47.7335 21.6595 46.905C21.6322 46.1169 20.9996 45.4843 20.2115 45.457C19.3831 45.4857 18.7348 46.1805 18.7635 47.009C18.7908 47.7971 19.4234 48.4297 20.2115 48.457Z" fill="#D22F27"/>
<path d="M62.2115 50.457C63.0399 50.4283 63.6882 49.7335 63.6595 48.905C63.6322 48.1169 62.9996 47.4843 62.2115 47.457C61.3831 47.4857 60.7348 48.1805 60.7635 49.009C60.7908 49.7971 61.4234 50.4297 62.2115 50.457Z" fill="#D22F27"/>
<defs>
<filter id="filter0_i" x="13" y="13" width="46" height="48.1936" filterUnits="userSpaceOnUse" color-interpolation-filters="sRGB">
<feFlood flood-opacity="0" result="BackgroundImageFix"/>
<feBlend mode="normal" in="SourceGraphic" in2="BackgroundImageFix" result="shape"/>
<feColorMatrix in="SourceAlpha" type="matrix" values="0 0 0 0 0 0 0 0 0 0 0 0 0 0 0 0 0 0 127 0" result="hardAlpha"/>
<feOffset dy="2.19361"/>
<feGaussianBlur stdDeviation="1.09681"/>
<feComposite in2="hardAlpha" operator="arithmetic" k2="-1" k3="1"/>
<feColorMatrix type="matrix" values="0 0 0 0 0 0 0 0 0 0 0 0 0 0 0 0 0 0 0.1 0"/>
<feBlend mode="normal" in2="shape" result="effect1_innerShadow"/>
</filter>
<radialGradient id="paint0_radial" cx="0" cy="0" r="1" gradientUnits="userSpaceOnUse" gradientTransform="translate(35.3035 25.1053) rotate(87.2844) scale(39.9923)">
<stop offset="0.453125" stop-color="#FFCC48"/>
<stop offset="0.874464" stop-color="#F29F23"/>
</radialGradient>
<radialGradient id="paint1_radial" cx="0" cy="0" r="1" gradientUnits="userSpaceOnUse" gradientTransform="translate(35.9351 22.4211) rotate(89.8984) scale(36.579)">
<stop offset="0.140625" stop-color="white"/>
<stop offset="0.473958" stop-color="white" stop-opacity="0"/>
</radialGradient>
</defs>
</svg>
