<svg  viewBox="0 0 72 72" fill="none" xmlns="http://www.w3.org/2000/svg">
<g filter="url(#filter0_i)">
<path d="M36 13C23.2975 13 13 23.2975 13 36C13 48.7025 23.2975 59 36 59C48.7025 59 59 48.7025 59 36C58.9857 23.3034 48.6966 13.0143 36 13Z" fill="url(#paint0_radial)"/>
<path d="M36 13C23.2975 13 13 23.2975 13 36C13 48.7025 23.2975 59 36 59C48.7025 59 59 48.7025 59 36C58.9857 23.3034 48.6966 13.0143 36 13Z" fill="url(#paint1_radial)" fill-opacity="0.31"/>
</g>
<path d="M36 59C48.7025 59 59 48.7025 59 36C59 23.2975 48.7025 13 36 13C23.2975 13 13 23.2975 13 36C13 48.7025 23.2975 59 36 59Z" stroke="#F5CC60" stroke-width="0.5" stroke-miterlimit="10"/>
<circle cx="27.56" cy="31.38" r="5.76316" fill="white"/>
<path d="M26.46 46.57C28.337 45.028 32.284 44.076 36.46 44.155C40.294 44.2276 43.753 45.158 45.46 46.57" stroke="black" stroke-width="2" stroke-linecap="round" stroke-linejoin="round"/>
<path d="M27.56 37.88C31.1498 37.88 34.06 34.9699 34.06 31.38C34.06 27.7901 31.1498 24.88 27.56 24.88C23.9701 24.88 21.06 27.7901 21.06 31.38C21.06 34.9699 23.9701 37.88 27.56 37.88Z" stroke="black" stroke-width="2" stroke-miterlimit="10"/>
<path d="M44.65 37.88C48.2399 37.88 51.15 34.9699 51.15 31.38C51.15 27.7901 48.2399 24.88 44.65 24.88C41.0602 24.88 38.15 27.7901 38.15 31.38C38.15 34.9699 41.0602 37.88 44.65 37.88Z" stroke="black" stroke-width="2" stroke-miterlimit="10"/>
<circle cx="44.647" cy="31.38" r="5.76316" fill="white"/>
<path fill-rule="evenodd" clip-rule="evenodd" d="M27.53 25.77C26.3097 25.7771 25.1417 26.2669 24.2813 27.1324C23.4209 27.9978 22.938 29.1686 22.938 30.389C22.938 31.614 23.4246 32.7889 24.2909 33.6551C25.1571 34.5214 26.332 35.008 27.557 35.008C28.782 35.008 29.9569 34.5214 30.8231 33.6551C31.6894 32.7889 32.176 31.614 32.176 30.389C32.176 29.164 31.6894 27.9891 30.8231 27.1229C29.9569 26.2566 28.782 25.77 27.557 25.77C27.5479 25.77 27.5388 25.77 27.5297 25.77H27.53ZM26.077 27.598C26.6074 27.598 27.1161 27.8087 27.4912 28.1838C27.8663 28.5589 28.077 29.0676 28.077 29.598C28.077 30.1284 27.8663 30.6371 27.4912 31.0122C27.1161 31.3873 26.6074 31.598 26.077 31.598C25.5466 31.598 25.0379 31.3873 24.6628 31.0122C24.2877 30.6371 24.077 30.1284 24.077 29.598C24.077 29.0676 24.2877 28.5589 24.6628 28.1838C25.0379 27.8087 25.5466 27.598 26.077 27.598Z" fill="black"/>
<path fill-rule="evenodd" clip-rule="evenodd" d="M44.62 25.77C43.3996 25.7771 42.2317 26.2669 41.3713 27.1324C40.5109 27.9978 40.028 29.1686 40.028 30.389C40.028 31.614 40.5146 32.7889 41.3809 33.6551C42.2471 34.5214 43.422 35.008 44.647 35.008C45.872 35.008 47.0469 34.5214 47.9131 33.6551C48.7794 32.7889 49.266 31.614 49.266 30.389C49.266 29.164 48.7794 27.9891 47.9131 27.1229C47.0469 26.2566 45.872 25.77 44.647 25.77C44.6379 25.77 44.6288 25.77 44.6197 25.77H44.62ZM43.167 27.598C43.6974 27.598 44.2061 27.8087 44.5812 28.1838C44.9563 28.5589 45.167 29.0676 45.167 29.598C45.167 30.1284 44.9563 30.6371 44.5812 31.0122C44.2061 31.3873 43.6974 31.598 43.167 31.598C42.6366 31.598 42.1279 31.3873 41.7528 31.0122C41.3777 30.6371 41.167 30.1284 41.167 29.598C41.167 29.0676 41.3777 28.5589 41.7528 28.1838C42.1279 27.8087 42.6366 27.598 43.167 27.598Z" fill="black"/>
<path d="M52.32 24.93C51.135 22.509 49.32 19.93 43.32 20.93" stroke="black" stroke-width="2" stroke-linecap="round" stroke-linejoin="round"/>
<path d="M19.95 24.93C21.135 22.509 22.95 19.93 28.95 20.93" stroke="black" stroke-width="2" stroke-linecap="round" stroke-linejoin="round"/>
<defs>
<filter id="filter0_i" x="13" y="13" width="46" height="48.1936" filterUnits="userSpaceOnUse" color-interpolation-filters="sRGB">
<feFlood flood-opacity="0" result="BackgroundImageFix"/>
<feBlend mode="normal" in="SourceGraphic" in2="BackgroundImageFix" result="shape"/>
<feColorMatrix in="SourceAlpha" type="matrix" values="0 0 0 0 0 0 0 0 0 0 0 0 0 0 0 0 0 0 127 0" result="hardAlpha"/>
<feOffset dy="2.19361"/>
<feGaussianBlur stdDeviation="1.09681"/>
<feComposite in2="hardAlpha" operator="arithmetic" k2="-1" k3="1"/>
<feColorMatrix type="matrix" values="0 0 0 0 0 0 0 0 0 0 0 0 0 0 0 0 0 0 0.1 0"/>
<feBlend mode="normal" in2="shape" result="effect1_innerShadow"/>
</filter>
<radialGradient id="paint0_radial" cx="0" cy="0" r="1" gradientUnits="userSpaceOnUse" gradientTransform="translate(35.3035 25.1053) rotate(87.2844) scale(39.9923)">
<stop offset="0.453125" stop-color="#FFCC48"/>
<stop offset="0.874464" stop-color="#F29F23"/>
</radialGradient>
<radialGradient id="paint1_radial" cx="0" cy="0" r="1" gradientUnits="userSpaceOnUse" gradientTransform="translate(35.9351 22.4211) rotate(89.8984) scale(36.579)">
<stop offset="0.140625" stop-color="white"/>
<stop offset="0.473958" stop-color="white" stop-opacity="0"/>
</radialGradient>
</defs>
</svg>
