<svg  viewBox="0 0 72 72" fill="none" xmlns="http://www.w3.org/2000/svg">
<g filter="url(#filter0_i)">
<path d="M36.0001 58.9999C48.7026 58.9999 59 48.7025 59 36C59 23.2975 48.7026 13.0001 36.0001 13.0001C23.2976 13.0001 13.0002 23.2975 13.0002 36C13.0002 48.7025 23.2976 58.9999 36.0001 58.9999Z" fill="url(#paint0_radial)"/>
<path d="M36.0001 58.9999C48.7026 58.9999 59 48.7025 59 36C59 23.2975 48.7026 13.0001 36.0001 13.0001C23.2976 13.0001 13.0002 23.2975 13.0002 36C13.0002 48.7025 23.2976 58.9999 36.0001 58.9999Z" fill="url(#paint1_radial)" fill-opacity="0.31"/>
</g>
<path d="M44.5416 46.2169C44.1961 45.8819 43.9205 45.4817 43.7308 45.0394C43.5411 44.5972 43.441 44.1217 43.4364 43.6405C43.3959 40.42 46.4015 37.3005 46.5293 37.1693C46.5925 37.1044 46.6678 37.0527 46.751 37.017C46.8342 36.9813 46.9236 36.9623 47.0142 36.9611C47.1047 36.96 47.1945 36.9767 47.2786 37.0103C47.3627 37.0439 47.4393 37.0938 47.5041 37.157C47.6354 37.2851 50.7184 40.3283 50.7596 43.5494C50.7683 44.2734 50.5622 44.9838 50.1673 45.5907C49.7725 46.1977 49.2065 46.674 48.5411 46.9594C47.8756 47.2448 47.1405 47.3266 46.4286 47.1944C45.7167 47.0622 45.0599 46.722 44.5413 46.2167L44.5416 46.2169Z" fill="#92D3F5"/>
<path d="M36 59C48.7025 59 59 48.7025 59 36C59 23.2975 48.7025 13 36 13C23.2975 13 13 23.2975 13 36C13 48.7025 23.2975 59 36 59Z" stroke="#F5CC60" stroke-width="0.5" stroke-linecap="round" stroke-linejoin="round"/>
<path d="M44.1521 45.7678C41.299 47.0375 38.1887 47.623 35.0693 47.4774C31.9498 47.3318 28.9075 46.4592 26.1851 44.9293" stroke="black" stroke-width="2" stroke-linecap="round" stroke-linejoin="round"/>
<path d="M30 31C30 31.5933 29.8241 32.1734 29.4944 32.6667C29.1648 33.1601 28.6962 33.5446 28.1481 33.7716C27.5999 33.9987 26.9967 34.0581 26.4147 33.9424C25.8328 33.8266 25.2982 33.5409 24.8787 33.1213C24.4591 32.7018 24.1734 32.1672 24.0576 31.5853C23.9419 31.0033 24.0013 30.4001 24.2284 29.8519C24.4554 29.3038 24.8399 28.8352 25.3333 28.5056C25.8266 28.1759 26.4067 28 27 28C27.7956 28.0003 28.5585 28.3165 29.121 28.879C29.6835 29.4415 29.9997 30.2044 30 31Z" fill="black"/>
<path d="M48 31C48 31.5933 47.8241 32.1734 47.4944 32.6667C47.1648 33.1601 46.6962 33.5446 46.148 33.7716C45.5999 33.9987 44.9967 34.0581 44.4147 33.9424C43.8328 33.8266 43.2982 33.5409 42.8787 33.1213C42.4591 32.7018 42.1734 32.1672 42.0576 31.5853C41.9419 31.0033 42.0013 30.4001 42.2284 29.8519C42.4554 29.3038 42.8399 28.8352 43.3333 28.5056C43.8266 28.1759 44.4067 28 45 28C45.7956 28.0003 46.5585 28.3164 47.121 28.879C47.6836 29.4415 47.9997 30.2044 48 31Z" fill="black"/>
<path d="M44.5416 46.2169C44.1961 45.8819 43.9205 45.4817 43.7308 45.0395C43.5411 44.5972 43.441 44.1217 43.4364 43.6405C43.3959 40.42 46.4015 37.3005 46.5293 37.1693C46.5925 37.1045 46.6678 37.0527 46.751 37.017C46.8342 36.9813 46.9236 36.9623 47.0142 36.9612C47.1047 36.96 47.1945 36.9767 47.2786 37.0103C47.3627 37.0439 47.4393 37.0938 47.5041 37.157C47.6354 37.2851 50.7184 40.3283 50.7596 43.5494C50.7683 44.2734 50.5622 44.9838 50.1673 45.5908C49.7725 46.1977 49.2065 46.674 48.5411 46.9594C47.8756 47.2449 47.1405 47.3267 46.4286 47.1945C45.7167 47.0623 45.0599 46.722 44.5413 46.2167L44.5416 46.2169Z" stroke="black" stroke-width="2" stroke-miterlimit="10"/>
<defs>
<filter id="filter0_i" x="13.0002" y="13.0001" width="45.9998" height="48.1934" filterUnits="userSpaceOnUse" color-interpolation-filters="sRGB">
<feFlood flood-opacity="0" result="BackgroundImageFix"/>
<feBlend mode="normal" in="SourceGraphic" in2="BackgroundImageFix" result="shape"/>
<feColorMatrix in="SourceAlpha" type="matrix" values="0 0 0 0 0 0 0 0 0 0 0 0 0 0 0 0 0 0 127 0" result="hardAlpha"/>
<feOffset dy="2.19361"/>
<feGaussianBlur stdDeviation="1.09681"/>
<feComposite in2="hardAlpha" operator="arithmetic" k2="-1" k3="1"/>
<feColorMatrix type="matrix" values="0 0 0 0 0 0 0 0 0 0 0 0 0 0 0 0 0 0 0.1 0"/>
<feBlend mode="normal" in2="shape" result="effect1_innerShadow"/>
</filter>
<radialGradient id="paint0_radial" cx="0" cy="0" r="1" gradientUnits="userSpaceOnUse" gradientTransform="translate(35.3036 25.1053) rotate(87.2844) scale(39.9921)">
<stop offset="0.453125" stop-color="#FFCC48"/>
<stop offset="0.874464" stop-color="#F29F23"/>
</radialGradient>
<radialGradient id="paint1_radial" cx="0" cy="0" r="1" gradientUnits="userSpaceOnUse" gradientTransform="translate(35.9352 22.4211) rotate(89.8984) scale(36.5788)">
<stop offset="0.140625" stop-color="white"/>
<stop offset="0.473958" stop-color="white" stop-opacity="0"/>
</radialGradient>
</defs>
</svg>
