<svg  viewBox="0 0 72 72" fill="none" xmlns="http://www.w3.org/2000/svg">
<path d="M39.664 37.59C40.2744 37.7355 40.8746 37.9206 41.461 38.144L41.504 38.1606C42.355 39.0046 43.4393 39.5743 44.6171 39.7964C45.7948 40.0185 47.0121 39.8828 48.1121 39.4067C49.212 38.9307 50.1442 38.1361 50.7884 37.1254C51.4327 36.1148 51.7595 34.9343 51.7267 33.7362C51.6939 32.5382 51.3031 31.3773 50.6045 30.4034C49.906 29.4295 48.9318 28.6871 47.8075 28.2719C46.6832 27.8567 45.4602 27.7877 44.2964 28.0738C43.1325 28.36 42.081 28.9882 41.2774 29.8774C36.7882 31.9106 31.6774 30.2153 30.7032 29.8559C29.8962 28.9714 28.8431 28.3486 27.6792 28.0675C26.5154 27.7864 25.2941 27.86 24.1724 28.2787C23.0507 28.6975 22.0799 29.4422 21.385 30.4171C20.69 31.3921 20.3026 32.5527 20.2726 33.7496C20.2427 34.9465 20.5715 36.1251 21.2168 37.1336C21.862 38.1421 22.7943 38.9345 23.8936 39.4089C24.993 39.8832 26.2091 40.0178 27.3855 39.7954C28.562 39.5729 29.645 39.0036 30.4952 38.1606C30.5251 38.1502 30.5545 38.1382 30.5831 38.1245C31.0451 37.9071 31.5226 37.7245 32.0117 37.5781C32.0117 37.5781 32.4382 31.8371 35.928 31.8371C39.4178 31.8371 39.664 37.59 39.664 37.59ZM26.3019 37.9C25.5108 37.9 24.7374 37.6654 24.0796 37.2259C23.4218 36.7864 22.9091 36.1616 22.6064 35.4307C22.3036 34.6998 22.2244 33.8956 22.3788 33.1196C22.5331 32.3437 22.9141 31.631 23.4735 31.0716C24.0329 30.5122 24.7456 30.1312 25.5215 29.9769C26.2975 29.8225 27.1017 29.9017 27.8326 30.2045C28.5635 30.5072 29.1882 31.0199 29.6278 31.6777C30.0673 32.3355 30.3019 33.1089 30.3019 33.9C30.3019 34.4253 30.1984 34.9454 29.9974 35.4307C29.7964 35.916 29.5018 36.357 29.1303 36.7284C28.7589 37.0999 28.3179 37.3945 27.8326 37.5955C27.3473 37.7965 26.8272 37.9 26.3019 37.9ZM45.6983 37.9C44.9072 37.9 44.1338 37.6654 43.476 37.2259C42.8182 36.7864 42.3055 36.1616 42.0028 35.4307C41.7 34.6998 41.6208 33.8956 41.7752 33.1196C41.9295 32.3437 42.3105 31.631 42.8699 31.0716C43.4293 30.5122 44.142 30.1312 44.9179 29.9769C45.6939 29.8225 46.4981 29.9017 47.229 30.2045C47.9599 30.5072 48.5846 31.0199 49.0242 31.6777C49.4637 32.3355 49.6983 33.1089 49.6983 33.9C49.6983 34.9609 49.2769 35.9783 48.5267 36.7284C47.7766 37.4786 46.7592 37.9 45.6983 37.9Z" fill="black"/>
<g filter="url(#filter0_i)">
<path d="M36.0001 58.9999C48.7026 58.9999 59 48.7025 59 36C59 23.2975 48.7026 13.0001 36.0001 13.0001C23.2976 13.0001 13.0002 23.2975 13.0002 36C13.0002 48.7025 23.2976 58.9999 36.0001 58.9999Z" fill="url(#paint0_radial)"/>
<path d="M36.0001 58.9999C48.7026 58.9999 59 48.7025 59 36C59 23.2975 48.7026 13.0001 36.0001 13.0001C23.2976 13.0001 13.0002 23.2975 13.0002 36C13.0002 48.7025 23.2976 58.9999 36.0001 58.9999Z" fill="url(#paint1_radial)" fill-opacity="0.31"/>
</g>
<path d="M26.3384 38.8997C29.0998 38.8997 31.3384 36.6611 31.3384 33.8997C31.3384 31.1383 29.0998 28.8997 26.3384 28.8997C23.577 28.8997 21.3384 31.1383 21.3384 33.8997C21.3384 36.6611 23.577 38.8997 26.3384 38.8997Z" fill="#92D3F5"/>
<path d="M45.7341 38.8997C48.4955 38.8997 50.7341 36.6611 50.7341 33.8997C50.7341 31.1383 48.4955 28.8997 45.7341 28.8997C42.9727 28.8997 40.7341 31.1383 40.7341 33.8997C40.7341 36.6611 42.9727 38.8997 45.7341 38.8997Z" fill="#92D3F5"/>
<path d="M31.874 31.1923C31.874 31.1923 31.874 23.7629 23.6824 23.7629C23.7777 24.1326 23.9445 24.48 24.1733 24.7856C24.1733 24.7856 19.8369 24.2947 19.0596 26.0947L19.8369 27.1175C19.3458 27.2489 18.9185 27.5527 18.633 27.9734C18.3475 28.3941 18.223 28.9035 18.2823 29.4084C18.2689 29.6454 18.303 29.8826 18.3825 30.1063C18.4621 30.3299 18.5855 30.5354 18.7455 30.7107C18.9056 30.886 19.0991 31.0275 19.3146 31.127C19.5301 31.2265 19.7633 31.2819 20.0005 31.29H22.0754C22.0754 31.29 26.4162 25.7345 31.874 31.1923Z" fill="#3F3F3F"/>
<path d="M40.7341 31.1923C40.7341 31.1923 40.7341 23.7629 48.9258 23.7629C48.8305 24.1326 48.6638 24.48 48.4349 24.7856C48.4349 24.7856 52.7712 24.2947 53.5485 26.0947L52.7712 27.1175C53.2623 27.2489 53.6897 27.5527 53.9751 27.9734C54.2606 28.3941 54.3851 28.9035 54.3258 29.4084C54.3392 29.6454 54.3052 29.8826 54.2256 30.1063C54.1461 30.3299 54.0226 30.5354 53.8626 30.7107C53.7025 30.886 53.5091 31.0275 53.2935 31.127C53.078 31.2265 52.8448 31.2819 52.6076 31.29H50.5327C50.5327 31.29 46.1793 26.2065 40.7341 31.1923Z" fill="#3F3F3F"/>
<path d="M39.664 37.59C40.2744 37.7355 40.8747 37.9206 41.461 38.144L41.504 38.1606C42.355 39.0046 43.4393 39.5743 44.6171 39.7964C45.7949 40.0185 47.0122 39.8828 48.1121 39.4067C49.2121 38.9307 50.1442 38.1361 50.7885 37.1254C51.4327 36.1148 51.7595 34.9343 51.7267 33.7362C51.6939 32.5382 51.3031 31.3773 50.6046 30.4034C49.906 29.4295 48.9318 28.6871 47.8075 28.2719C46.6832 27.8567 45.4603 27.7877 44.2964 28.0738C43.1325 28.36 42.081 28.9882 41.2774 29.8774C36.7882 31.9106 31.6774 30.2153 30.7032 29.8559C29.8963 28.9714 28.8431 28.3486 27.6793 28.0675C26.5154 27.7864 25.2941 27.86 24.1724 28.2787C23.0507 28.6975 22.08 29.4422 21.385 30.4171C20.69 31.3921 20.3026 32.5527 20.2727 33.7496C20.2427 34.9465 20.5715 36.1251 21.2168 37.1336C21.8621 38.1421 22.7943 38.9345 23.8937 39.4089C24.993 39.8832 26.2091 40.0178 27.3855 39.7954C28.562 39.5729 29.645 39.0036 30.4952 38.1606C30.5252 38.1502 30.5545 38.1382 30.5831 38.1245C31.0451 37.9071 31.5226 37.7245 32.0117 37.5781C32.0117 37.5781 32.4382 31.8371 35.928 31.8371C39.4178 31.8371 39.664 37.59 39.664 37.59ZM26.3019 37.9C25.5108 37.9 24.7374 37.6654 24.0796 37.2259C23.4218 36.7864 22.9092 36.1616 22.6064 35.4307C22.3037 34.6998 22.2244 33.8956 22.3788 33.1196C22.5331 32.3437 22.9141 31.631 23.4735 31.0716C24.0329 30.5122 24.7456 30.1312 25.5216 29.9769C26.2975 29.8225 27.1018 29.9017 27.8327 30.2045C28.5636 30.5072 29.1883 31.0199 29.6278 31.6777C30.0673 32.3355 30.3019 33.1089 30.3019 33.9C30.3019 34.4253 30.1985 34.9454 29.9974 35.4307C29.7964 35.916 29.5018 36.357 29.1304 36.7284C28.7589 37.0999 28.318 37.3945 27.8327 37.5955C27.3474 37.7965 26.8272 37.9 26.3019 37.9ZM45.6983 37.9C44.9072 37.9 44.1338 37.6654 43.476 37.2259C42.8183 36.7864 42.3056 36.1616 42.0028 35.4307C41.7001 34.6998 41.6208 33.8956 41.7752 33.1196C41.9295 32.3437 42.3105 31.631 42.8699 31.0716C43.4293 30.5122 44.142 30.1312 44.918 29.9769C45.6939 29.8225 46.4982 29.9017 47.2291 30.2045C47.96 30.5072 48.5847 31.0199 49.0242 31.6777C49.4637 32.3355 49.6983 33.1089 49.6983 33.9C49.6983 34.9609 49.2769 35.9783 48.5268 36.7284C47.7766 37.4786 46.7592 37.9 45.6983 37.9Z" fill="black"/>
<path d="M39.9351 45.6612C40.164 45.3952 40.445 45.179 40.7609 45.026C41.0767 44.873 41.4206 44.7865 41.7712 44.7719C41.9917 44.7791 42.211 44.7381 42.4139 44.6517C42.6169 44.5652 42.7984 44.4355 42.946 44.2716C43.0935 44.1076 43.2034 43.9134 43.268 43.7025C43.3326 43.4916 43.3504 43.2692 43.32 43.0507C43.2852 42.4547 43.1049 41.8764 42.7948 41.3663C42.4848 40.8562 42.0544 40.4298 41.5414 40.1245C40.3526 39.1428 39.5661 37.7583 39.3314 36.2345C38.9168 31.798 36.2171 31.5377 35.9493 31.5228H35.9102C35.6649 31.5355 32.941 31.7768 32.5244 36.2347C32.2898 37.7585 31.5032 39.143 30.3144 40.1247C29.8014 40.43 29.3711 40.8564 29.061 41.3665C28.7509 41.8766 28.5706 42.4549 28.5358 43.0509C28.5054 43.2694 28.5232 43.4919 28.5878 43.7028C28.6524 43.9137 28.7624 44.1079 28.9099 44.2719C29.0575 44.4358 29.2391 44.5656 29.4421 44.652C29.6451 44.7384 29.8644 44.7794 30.0849 44.7721C30.4355 44.7867 30.7794 44.8732 31.0952 45.0262C31.4111 45.1792 31.6921 45.3954 31.921 45.6614C31.921 45.6614 35.4716 51.4214 39.8182 46.0269L39.9351 45.6612Z" fill="#F1B31C"/>
<path d="M42.817 44.4015C42.817 44.4015 47.8997 44.4715 45.3505 48.7487C44.8153 48.3428 44.1958 48.0621 43.5377 47.9273C43.5377 47.9273 43.7643 50.8447 40.0255 51.1563V49.74C40.0255 49.74 39.4214 51.836 35.928 51.836H35.9112C32.4179 51.836 31.8137 49.74 31.8137 49.74V51.1562C28.0749 50.8446 28.3015 47.9272 28.3015 47.9272C27.6435 48.0621 27.0241 48.3427 26.4888 48.7486C23.9396 44.4717 29.0223 44.4014 29.0223 44.4014L31.6212 45.3326C31.9166 46.2464 32.5066 47.0366 33.2989 47.5793C34.0913 48.122 35.0412 48.3867 36 48.332C36.9776 48.3651 37.9391 48.0762 38.7366 47.5097C39.534 46.9433 40.1234 46.1306 40.4141 45.1966L42.817 44.4015Z" fill="#3F3F3F"/>
<path d="M36 59C48.7025 59 59 48.7025 59 36C59 23.2975 48.7025 13 36 13C23.2975 13 13 23.2975 13 36C13 48.7025 23.2975 59 36 59Z" stroke="#F5CC60" stroke-width="0.5" stroke-linecap="round" stroke-linejoin="round"/>
<path d="M31.874 31.1923C31.874 31.1923 31.874 23.7629 23.6824 23.7629C23.7777 24.1326 23.9444 24.48 24.1733 24.7856C24.1733 24.7856 19.8369 24.2947 19.0596 26.0947L19.8369 27.1175C19.3458 27.2489 18.9184 27.5528 18.633 27.9734C18.3475 28.3941 18.223 28.9035 18.2823 29.4084C18.2689 29.6454 18.3029 29.8827 18.3825 30.1063C18.462 30.3299 18.5855 30.5354 18.7455 30.7107C18.9056 30.886 19.099 31.0275 19.3145 31.127C19.5301 31.2265 19.7633 31.2819 20.0005 31.29H22.0754" stroke="black" stroke-width="2" stroke-linecap="round" stroke-linejoin="round"/>
<path d="M40.7341 31.1923C40.7341 31.1923 40.7341 23.7629 48.9258 23.7629C48.8305 24.1326 48.6638 24.48 48.4349 24.7856C48.4349 24.7856 52.7712 24.2947 53.5485 26.0947L52.7712 27.1175C53.2623 27.2489 53.6897 27.5528 53.9751 27.9734C54.2606 28.3941 54.3851 28.9035 54.3258 29.4084C54.3392 29.6454 54.3052 29.8827 54.2256 30.1063C54.1461 30.3299 54.0226 30.5354 53.8626 30.7107C53.7025 30.886 53.5091 31.0275 53.2935 31.127C53.078 31.2265 52.8448 31.2819 52.6076 31.29H50.5327" stroke="black" stroke-width="2" stroke-linecap="round" stroke-linejoin="round"/>
<path d="M31.9209 45.6612C31.692 45.3952 31.411 45.179 31.0951 45.026C30.7793 44.8731 30.4354 44.7866 30.0848 44.7719C29.8643 44.7792 29.6449 44.7382 29.442 44.6518C29.239 44.5654 29.0574 44.4356 28.9098 44.2717C28.7623 44.1077 28.6523 43.9135 28.5877 43.7026C28.5231 43.4917 28.5053 43.2692 28.5357 43.0507C28.5705 42.4548 28.7508 41.8764 29.0609 41.3663C29.3709 40.8562 29.8013 40.4298 30.3143 40.1245C31.5031 39.1428 32.2896 37.7583 32.5243 36.2345C32.9409 31.7766 35.6643 31.5353 35.9101 31.5226H35.9492C36.217 31.5375 38.9167 31.7978 39.3313 36.2343C39.5659 37.7581 40.3525 39.1426 41.5413 40.1243C42.0543 40.4296 42.4847 40.856 42.7948 41.3662C43.1049 41.8763 43.2852 42.4547 43.32 43.0507C43.3504 43.2692 43.3326 43.4917 43.268 43.7026C43.2034 43.9135 43.0934 44.1077 42.9459 44.2717C42.7983 44.4356 42.6167 44.5654 42.4137 44.6518C42.2107 44.7382 41.9914 44.7792 41.7709 44.7719C41.4203 44.7866 41.0764 44.8731 40.7606 45.026C40.4447 45.179 40.1637 45.3952 39.9348 45.6612" stroke="black" stroke-width="2" stroke-linecap="round" stroke-linejoin="round"/>
<path d="M31.6627 43.3662C31.6627 43.3662 30.8985 48.1284 35.928 48.1284C40.9575 48.1284 40.1543 43.3662 40.1543 43.3662" stroke="black" stroke-width="2" stroke-linecap="round" stroke-linejoin="round"/>
<path d="M42.817 44.4015C42.817 44.4015 47.8997 44.4715 45.3505 48.7487C44.8152 48.3428 44.1958 48.0621 43.5377 47.9273C43.5377 47.9273 43.7643 50.8447 40.0255 51.1563V49.74C40.0255 49.74 39.4214 51.836 35.928 51.836H35.9112C32.4179 51.836 31.8137 49.74 31.8137 49.74V51.1562C28.0749 50.8446 28.3015 47.9272 28.3015 47.9272C27.6435 48.0621 27.024 48.3427 26.4888 48.7486C23.9396 44.4717 29.0223 44.4014 29.0223 44.4014" stroke="black" stroke-width="2" stroke-linecap="round" stroke-linejoin="round"/>
<defs>
<filter id="filter0_i" x="13.0002" y="13.0001" width="45.9998" height="48.1934" filterUnits="userSpaceOnUse" color-interpolation-filters="sRGB">
<feFlood flood-opacity="0" result="BackgroundImageFix"/>
<feBlend mode="normal" in="SourceGraphic" in2="BackgroundImageFix" result="shape"/>
<feColorMatrix in="SourceAlpha" type="matrix" values="0 0 0 0 0 0 0 0 0 0 0 0 0 0 0 0 0 0 127 0" result="hardAlpha"/>
<feOffset dy="2.19361"/>
<feGaussianBlur stdDeviation="1.09681"/>
<feComposite in2="hardAlpha" operator="arithmetic" k2="-1" k3="1"/>
<feColorMatrix type="matrix" values="0 0 0 0 0 0 0 0 0 0 0 0 0 0 0 0 0 0 0.1 0"/>
<feBlend mode="normal" in2="shape" result="effect1_innerShadow"/>
</filter>
<radialGradient id="paint0_radial" cx="0" cy="0" r="1" gradientUnits="userSpaceOnUse" gradientTransform="translate(35.3037 25.1053) rotate(87.2844) scale(39.9921)">
<stop offset="0.453125" stop-color="#FFCC48"/>
<stop offset="0.874464" stop-color="#F29F23"/>
</radialGradient>
<radialGradient id="paint1_radial" cx="0" cy="0" r="1" gradientUnits="userSpaceOnUse" gradientTransform="translate(35.9352 22.4211) rotate(89.8984) scale(36.5788)">
<stop offset="0.140625" stop-color="white"/>
<stop offset="0.473958" stop-color="white" stop-opacity="0"/>
</radialGradient>
</defs>
</svg>
