<svg  viewBox="0 0 72 72" fill="none" xmlns="http://www.w3.org/2000/svg">
<path d="M59 35.9C59 23.2 48.8 12.9 36.1 12.8C23.4 12.8 13.1 23 13 35.7C13 44.7 18.2 52.8 26.3 56.6C26.6 57.2 36.6 59.7 37.6 58.7C49.6 58 59 48 59 35.9Z" fill="url(#paint0_radial)"/>
<path d="M59 35.9C59 23.2 48.8 12.9 36.1 12.8C23.4 12.8 13.1 23 13 35.7C13 44.7 18.2 52.8 26.3 56.6C26.6 57.2 36.6 59.7 37.6 58.7C49.6 58 59 48 59 35.9Z" fill="url(#paint1_radial)" fill-opacity="0.31"/>
<g filter="url(#filter0_i)">
<path d="M36 58.9C48.7025 58.9 59 48.6025 59 35.9C59 23.1974 48.7025 12.9 36 12.9C23.2975 12.9 13 23.1974 13 35.9C13 48.6025 23.2975 58.9 36 58.9Z" fill="url(#paint2_radial)"/>
<path d="M36 58.9C48.7025 58.9 59 48.6025 59 35.9C59 23.1974 48.7025 12.9 36 12.9C23.2975 12.9 13 23.1974 13 35.9C13 48.6025 23.2975 58.9 36 58.9Z" fill="url(#paint3_radial)" fill-opacity="0.31"/>
</g>
<path d="M36 58.9C48.7025 58.9 59 48.6025 59 35.9C59 23.1974 48.7025 12.9 36 12.9C23.2975 12.9 13 23.1974 13 35.9C13 48.6025 23.2975 58.9 36 58.9Z" stroke="#FAB838" stroke-width="1.8" stroke-miterlimit="10"/>
<path d="M41.1 44.8C41.3 44.4 41.5 44 41.8 43.4C42.1 42.8 42.2 42 41.9 41.4C41.3 40.2 40.3 40.6 40.3 40.6C40.5 40.2 40.3 40.2 40.6 39.8C39.9 36.4 36.1 38.3 36.5 39.4C36.7 38.5 35 37 33.1 39.5C31 42.6 30.1 44.2 29 47.8C28.5 46.9 28.2 46.8 27.8 45.8C27.3 44.4 26.4 44 25.4 44.4C24.5 44.8 24 45.2 24.3 48C24.6 51 25.1 55.2 25.7 56.5C27.1 59.3 27.3 59.4 27.3 59.4L25.9 65.3L35.7 66C35.8 64.6 35.7 63.2 36.1 61.8C36.5 60.3 37.8 60.3 38.8 58.7C41.2 54.7 41.1 52.5 42.3 49.3C42.4 48.9 42.6 48.6 42.8 48.2C43.2 47.4 43.3 46.4 42.9 45.6C42.3 45.1 42 44.3 41.1 44.8Z" fill="url(#paint4_radial)"/>
<path d="M41.1 44.8C41.3 44.4 41.5 44 41.8 43.4C42.1 42.8 42.2 42 41.9 41.4C41.3 40.2 40.3 40.6 40.3 40.6C40.5 40.2 40.3 40.2 40.6 39.8C39.9 36.4 36.1 38.3 36.5 39.4C36.7 38.5 35 37 33.1 39.5C31 42.6 30.1 44.2 29 47.8C28.5 46.9 28.2 46.8 27.8 45.8C27.3 44.4 26.4 44 25.4 44.4C24.5 44.8 24 45.2 24.3 48C24.6 51 25.1 55.2 25.7 56.5C27.1 59.3 27.3 59.4 27.3 59.4L25.9 65.3L35.7 66C35.8 64.6 35.7 63.2 36.1 61.8C36.5 60.3 37.8 60.3 38.8 58.7C41.2 54.7 41.1 52.5 42.3 49.3C42.4 48.9 42.6 48.6 42.8 48.2C43.2 47.4 43.3 46.4 42.9 45.6C42.3 45.1 42 44.3 41.1 44.8Z" fill="url(#paint5_radial)" fill-opacity="0.31"/>
<path d="M42.8 57.9C54.9 54.1 61.7 41.2 57.9 29.1C54.2 17 41.3 10.2 29.2 14C17.1 17.7 10.3 30.6 14 42.7C15.3 46.9 17.8 50.6 21.1 53.5" stroke="#F5CC60" stroke-width="0.5" stroke-linecap="round" stroke-linejoin="round"/>
<path d="M31.7 32.3C30.7 29.9 27.9 28.8 25.5 29.9C24.4 30.4 23.6 31.2 23.1 32.3" stroke="black" stroke-width="2" stroke-miterlimit="10" stroke-linecap="round"/>
<path d="M48.9 32.3C47.9 29.9 45.1 28.8 42.7 29.9C41.6 30.4 40.8 31.2 40.3 32.3" stroke="black" stroke-width="2" stroke-miterlimit="10" stroke-linecap="round"/>
<path d="M23.1 25.1C27.5 25 31 23.7 31.9 22" stroke="black" stroke-width="2" stroke-linecap="round" stroke-linejoin="round"/>
<path d="M48.9 25.1C44.5 25 41 23.7 40.1 22" stroke="black" stroke-width="2" stroke-linecap="round" stroke-linejoin="round"/>
<path d="M25.9 65.3C26.5 62.3 27 60.1 27.2 59.2C26.8 58.4 26.4 57.5 26 56.7C25.8 56.3 25.4 55.1 24.8 48.4C24.6 46.4 24.7 45.3 25.3 44.6C25.6 44.2 26.1 44 26.5 44C27.8 44 28.2 45.2 28.5 46.4L28.6 46.7L28.8 47.3C29.7 44.7 30.9 42.1 32.3 39.8C34.1 36.8 35.8 39.2 35.8 39.2C38 35.1 40.8 38.4 39.8 40.5C40 40.4 40.7 40.1 41.4 40.4C42 40.6 42.3 41.2 42.3 41.8C42.3 42.5 42.1 43.5 41.4 44.6C41.8 44.8 42.2 45.1 42.4 45.5C42.8 46.4 42.8 47.4 42.3 48.3L41.4 50C41.1 50.9 40.9 51.8 40.7 52.6C40.3 54.8 39.5 56.9 38.4 58.9C38 59.6 37.6 60.2 37 60.6C36.6 61 36.3 61.2 36.2 61.6C36 62.8 35.7 64.4 35.6 66" fill="url(#paint6_radial)"/>
<path d="M25.9 65.3C26.5 62.3 27 60.1 27.2 59.2C26.8 58.4 26.4 57.5 26 56.7C25.8 56.3 25.4 55.1 24.8 48.4C24.6 46.4 24.7 45.3 25.3 44.6C25.6 44.2 26.1 44 26.5 44C27.8 44 28.2 45.2 28.5 46.4L28.6 46.7L28.8 47.3C29.7 44.7 30.9 42.1 32.3 39.8C34.1 36.8 35.8 39.2 35.8 39.2C38 35.1 40.8 38.4 39.8 40.5C40 40.4 40.7 40.1 41.4 40.4C42 40.6 42.3 41.2 42.3 41.8C42.3 42.5 42.1 43.5 41.4 44.6C41.8 44.8 42.2 45.1 42.4 45.5C42.8 46.4 42.8 47.4 42.3 48.3L41.4 50C41.1 50.9 40.9 51.8 40.7 52.6C40.3 54.8 39.5 56.9 38.4 58.9C38 59.6 37.6 60.2 37 60.6C36.6 61 36.3 61.2 36.2 61.6C36 62.8 35.7 64.4 35.6 66" fill="url(#paint7_radial)" fill-opacity="0.31"/>
<path d="M25.9 65.3C26.5 62.3 27 60.1 27.2 59.2C26.8 58.4 26.4 57.5 26 56.7C25.8 56.3 25.4 55.1 24.8 48.4C24.6 46.4 24.7 45.3 25.3 44.6C25.6 44.2 26.1 44 26.5 44C27.8 44 28.2 45.2 28.5 46.4L28.6 46.7L28.8 47.3C29.7 44.7 30.9 42.1 32.3 39.8C34.1 36.8 35.8 39.2 35.8 39.2C38 35.1 40.8 38.4 39.8 40.5C40 40.4 40.7 40.1 41.4 40.4C42 40.6 42.3 41.2 42.3 41.8C42.3 42.5 42.1 43.5 41.4 44.6C41.8 44.8 42.2 45.1 42.4 45.5C42.8 46.4 42.8 47.4 42.3 48.3L41.4 50C41.1 50.9 40.9 51.8 40.7 52.6C40.3 54.8 39.5 56.9 38.4 58.9C38 59.6 37.6 60.2 37 60.6C36.6 61 36.3 61.2 36.2 61.6C36 62.8 35.7 64.4 35.6 66" stroke="black" stroke-width="2" stroke-linecap="round" stroke-linejoin="round"/>
<defs>
<filter id="filter0_i" x="12.1" y="12" width="47.8" height="49.9936" filterUnits="userSpaceOnUse" color-interpolation-filters="sRGB">
<feFlood flood-opacity="0" result="BackgroundImageFix"/>
<feBlend mode="normal" in="SourceGraphic" in2="BackgroundImageFix" result="shape"/>
<feColorMatrix in="SourceAlpha" type="matrix" values="0 0 0 0 0 0 0 0 0 0 0 0 0 0 0 0 0 0 127 0" result="hardAlpha"/>
<feOffset dy="2.19361"/>
<feGaussianBlur stdDeviation="1.09681"/>
<feComposite in2="hardAlpha" operator="arithmetic" k2="-1" k3="1"/>
<feColorMatrix type="matrix" values="0 0 0 0 0 0 0 0 0 0 0 0 0 0 0 0 0 0 0.1 0"/>
<feBlend mode="normal" in2="shape" result="effect1_innerShadow"/>
</filter>
<radialGradient id="paint0_radial" cx="0" cy="0" r="1" gradientUnits="userSpaceOnUse" gradientTransform="translate(35.3035 24.9404) rotate(87.2923) scale(40.108 39.9925)">
<stop offset="0.453125" stop-color="#FFCC48"/>
<stop offset="0.874464" stop-color="#F29F23"/>
</radialGradient>
<radialGradient id="paint1_radial" cx="0" cy="0" r="1" gradientUnits="userSpaceOnUse" gradientTransform="translate(35.9351 22.2484) rotate(89.8987) scale(36.6851 36.579)">
<stop offset="0.140625" stop-color="white"/>
<stop offset="0.473958" stop-color="white" stop-opacity="0"/>
</radialGradient>
<radialGradient id="paint2_radial" cx="0" cy="0" r="1" gradientUnits="userSpaceOnUse" gradientTransform="translate(35.3035 25.0053) rotate(87.2844) scale(39.9923)">
<stop offset="0.453125" stop-color="#FFCC48"/>
<stop offset="0.874464" stop-color="#F29F23"/>
</radialGradient>
<radialGradient id="paint3_radial" cx="0" cy="0" r="1" gradientUnits="userSpaceOnUse" gradientTransform="translate(35.9351 22.3211) rotate(89.8984) scale(36.579)">
<stop offset="0.140625" stop-color="white"/>
<stop offset="0.473958" stop-color="white" stop-opacity="0"/>
</radialGradient>
<radialGradient id="paint4_radial" cx="0" cy="0" r="1" gradientUnits="userSpaceOnUse" gradientTransform="translate(33.3969 45.2716) rotate(88.1708) scale(24.4423 16.4781)">
<stop offset="0.453125" stop-color="#FFCC48"/>
<stop offset="0.874464" stop-color="#F29F23"/>
</radialGradient>
<radialGradient id="paint5_radial" cx="0" cy="0" r="1" gradientUnits="userSpaceOnUse" gradientTransform="translate(33.657 43.6301) rotate(89.9316) scale(22.3699 15.0625)">
<stop offset="0.140625" stop-color="white"/>
<stop offset="0.473958" stop-color="white" stop-opacity="0"/>
</radialGradient>
<radialGradient id="paint6_radial" cx="0" cy="0" r="1" gradientUnits="userSpaceOnUse" gradientTransform="translate(33.4252 44.8126) rotate(88.301) scale(24.9819 15.6443)">
<stop offset="0.453125" stop-color="#FFCC48"/>
<stop offset="0.874464" stop-color="#F29F23"/>
</radialGradient>
<radialGradient id="paint7_radial" cx="0" cy="0" r="1" gradientUnits="userSpaceOnUse" gradientTransform="translate(33.6721 43.1347) rotate(89.9364) scale(22.8653 14.2993)">
<stop offset="0.140625" stop-color="white"/>
<stop offset="0.473958" stop-color="white" stop-opacity="0"/>
</radialGradient>
</defs>
</svg>
