<svg  viewBox="0 0 72 72" fill="none" xmlns="http://www.w3.org/2000/svg">
<g filter="url(#filter0_i)">
<path d="M36 60C49.2548 60 60 49.2548 60 36C60 22.7452 49.2548 12 36 12C22.7452 12 12 22.7452 12 36C12 49.2548 22.7452 60 36 60Z" fill="url(#paint0_radial)"/>
<path d="M36 60C49.2548 60 60 49.2548 60 36C60 22.7452 49.2548 12 36 12C22.7452 12 12 22.7452 12 36C12 49.2548 22.7452 60 36 60Z" fill="url(#paint1_radial)" fill-opacity="0.31"/>
</g>
<path d="M11.3186 34.66C11.2343 34.8347 11.0243 34.9081 10.8495 34.8237C10.778 34.7892 10.7203 34.7315 10.6858 34.66C9.71551 32.6459 7.29621 31.7998 5.28221 32.7701C3.26811 33.7404 2.42201 36.1597 3.39231 38.1737C3.49861 38.3943 3.62461 38.6048 3.76891 38.8026L11.0022 48.0774L18.1933 38.8594L18.4253 38.5172C19.5872 36.6072 18.9807 34.117 17.0708 32.9552C15.1609 31.7934 12.6706 32.3998 11.5088 34.3097C11.4396 34.4233 11.3762 34.5402 11.3186 34.66Z" fill="#FFA7C0"/>
<path d="M48.3186 7.66C48.2343 7.8347 48.0243 7.9081 47.8495 7.8237C47.778 7.7892 47.7203 7.7315 47.6858 7.66C46.7155 5.6459 44.2962 4.7998 42.2822 5.7701C40.2682 6.7404 39.422 9.1597 40.3923 11.1737C40.4986 11.3943 40.6246 11.6048 40.7689 11.8026L48.0022 21.0774L55.1933 11.8594L55.4253 11.5172C56.5872 9.6072 55.9807 7.117 54.0708 5.9552C52.1608 4.7933 49.6706 5.3998 48.5088 7.3097C48.4396 7.4233 48.3762 7.5402 48.3186 7.66Z" fill="#FFA7C0"/>
<path d="M56.3186 52.66C56.2343 52.8347 56.0243 52.9081 55.8495 52.8237C55.778 52.7892 55.7203 52.7315 55.6858 52.66C54.7155 50.6459 52.2962 49.7998 50.2822 50.7701C48.2681 51.7404 47.422 54.1597 48.3923 56.1737C48.4986 56.3943 48.6246 56.6048 48.7689 56.8026L56.0022 66.0774L63.1933 56.8594L63.4253 56.5172C64.5872 54.6072 63.9807 52.117 62.0708 50.9552C60.1608 49.7933 57.6706 50.3998 56.5088 52.3097C56.4396 52.4233 56.3762 52.5402 56.3186 52.66Z" fill="#FFA7C0"/>
<path d="M45.815 44.8043C40.1152 49.5031 31.8848 49.5031 26.185 44.8043" stroke="black" stroke-width="2" stroke-linecap="round" stroke-linejoin="round"/>
<path d="M52.04 50.3656C49.8032 50.3657 47.9901 52.1791 47.9902 54.4158C47.9902 55.1567 48.1935 55.8835 48.578 56.5169L48.81 56.8591L56.0011 66.0771L63.2344 56.8023C64.5548 54.9981 64.1625 52.4651 62.3583 51.1447C60.5541 49.8243 58.0211 50.2166 56.7007 52.0208C56.5537 52.2216 56.4256 52.4356 56.3179 52.66C56.2336 52.8347 56.0236 52.9081 55.8488 52.8237C55.7773 52.7892 55.7196 52.7315 55.6851 52.66C55.0167 51.2541 53.5967 50.3603 52.04 50.3656Z" stroke="black" stroke-width="2" stroke-linecap="round" stroke-linejoin="round"/>
<path d="M7.04 32.3656C4.8032 32.3657 2.9901 34.1791 2.9902 36.4158C2.9902 37.1567 3.1935 37.8835 3.578 38.5169L3.81 38.8591L11.0011 48.0771L18.2344 38.8023C19.5548 36.9981 19.1625 34.4651 17.3583 33.1447C15.5541 31.8243 13.0211 32.2166 11.7007 34.0208C11.5537 34.2216 11.4256 34.4356 11.3179 34.6599C11.2336 34.8346 11.0236 34.908 10.8488 34.8236C10.7773 34.7891 10.7196 34.7314 10.6851 34.6599C10.0167 33.2541 8.5967 32.3603 7.04 32.3656Z" stroke="black" stroke-width="2" stroke-linecap="round" stroke-linejoin="round"/>
<path d="M44.04 5.3656C41.8032 5.3657 39.9901 7.1791 39.9902 9.4158C39.9902 10.1567 40.1935 10.8835 40.578 11.5169L40.81 11.8591L48.0011 21.0771L55.2344 11.8023C56.5548 9.9981 56.1625 7.4651 54.3583 6.1447C52.5541 4.8243 50.0211 5.2166 48.7007 7.0208C48.5537 7.2216 48.4256 7.4356 48.3179 7.66C48.2336 7.8347 48.0236 7.9081 47.8488 7.8237C47.7773 7.7892 47.7196 7.7315 47.6851 7.66C47.0167 6.2541 45.5967 5.3603 44.04 5.3656Z" stroke="black" stroke-width="2" stroke-linecap="round" stroke-linejoin="round"/>
<path d="M43.076 58.9686C40.8275 59.6644 38.4379 60.0391 35.9609 60.0391C27.6631 60.0391 20.3473 55.835 16.0272 49.4405" stroke="#F5CC60" stroke-width="0.5" stroke-linecap="round" stroke-linejoin="round"/>
<path d="M54.5106 20.7089C57.94 24.8642 60 30.1915 60 36C60 39.7663 59.1339 43.3303 57.5899 46.5037" stroke="#F5CC60" stroke-width="0.5" stroke-linecap="round" stroke-linejoin="round"/>
<path d="M13.7323 26.831C17.3364 18.103 25.9313 11.9609 35.9609 11.9609" stroke="#F5CC60" stroke-width="0.5" stroke-linecap="round" stroke-linejoin="round"/>
<path d="M31.6941 32.4036C30.6343 30.0182 27.8414 28.9436 25.4561 30.0034C24.3864 30.4786 23.5312 31.3339 23.0559 32.4036" stroke="black" stroke-width="2" stroke-miterlimit="10" stroke-linecap="round"/>
<path d="M48.9441 32.4036C47.8843 30.0182 45.0914 28.9436 42.7061 30.0034C41.6364 30.4786 40.7812 31.3339 40.3059 32.4036" stroke="black" stroke-width="2" stroke-miterlimit="10" stroke-linecap="round"/>
<defs>
<filter id="filter0_i" x="12" y="12" width="48" height="50.1936" filterUnits="userSpaceOnUse" color-interpolation-filters="sRGB">
<feFlood flood-opacity="0" result="BackgroundImageFix"/>
<feBlend mode="normal" in="SourceGraphic" in2="BackgroundImageFix" result="shape"/>
<feColorMatrix in="SourceAlpha" type="matrix" values="0 0 0 0 0 0 0 0 0 0 0 0 0 0 0 0 0 0 127 0" result="hardAlpha"/>
<feOffset dy="2.19361"/>
<feGaussianBlur stdDeviation="1.09681"/>
<feComposite in2="hardAlpha" operator="arithmetic" k2="-1" k3="1"/>
<feColorMatrix type="matrix" values="0 0 0 0 0 0 0 0 0 0 0 0 0 0 0 0 0 0 0.1 0"/>
<feBlend mode="normal" in2="shape" result="effect1_innerShadow"/>
</filter>
<radialGradient id="paint0_radial" cx="0" cy="0" r="1" gradientUnits="userSpaceOnUse" gradientTransform="translate(35.2733 24.6316) rotate(87.2844) scale(41.7311)">
<stop offset="0.453125" stop-color="#FFCC48"/>
<stop offset="0.874464" stop-color="#F29F23"/>
</radialGradient>
<radialGradient id="paint1_radial" cx="0" cy="0" r="1" gradientUnits="userSpaceOnUse" gradientTransform="translate(35.9323 21.8307) rotate(89.8984) scale(38.1694)">
<stop offset="0.140625" stop-color="white"/>
<stop offset="0.473958" stop-color="white" stop-opacity="0"/>
</radialGradient>
</defs>
</svg>
