<svg  viewBox="0 0 72 72" fill="none" xmlns="http://www.w3.org/2000/svg">
<path d="M35.9797 11.2269L27.7913 27.3699L9.43939 30.0436L22.7245 42.9838L19.5962 61.2637L37 52L35.9797 11.2269Z" fill="url(#paint0_radial)"/>
<path d="M35.9797 11.2269L27.7913 27.3699L9.43939 30.0436L22.7245 42.9838L19.5962 61.2637L37 52L35.9797 11.2269Z" fill="url(#paint1_radial)" fill-opacity="0.31"/>
<path d="M36.0147 11.0522L44.1562 27.2812L62.0625 30.1562L49.0625 42.875L52.0938 60.9062L35 52.5L36.0147 11.0522Z" fill="#D0CFCE"/>
<path d="M35.9928 10.7363L27.7913 27.3699L9.43939 30.0436L22.7245 42.9838L19.5962 61.2637L36.0084 52.6276L52.427 61.2515L49.2851 42.9739L62.5606 30.0239L44.2067 27.3638L35.9928 10.7363Z" stroke="#F5CC60" stroke-width="0.5" stroke-miterlimit="10" stroke-linecap="round" stroke-linejoin="round"/>
<defs>
<radialGradient id="paint0_radial" cx="0" cy="0" r="1" gradientUnits="userSpaceOnUse" gradientTransform="translate(22.8024 24.3945) rotate(88.5035) scale(43.4679 23.9799)">
<stop offset="0.453125" stop-color="#FFCC48"/>
<stop offset="0.874464" stop-color="#F29F23"/>
</radialGradient>
<radialGradient id="paint1_radial" cx="0" cy="0" r="1" gradientUnits="userSpaceOnUse" gradientTransform="translate(23.1808 21.4747) rotate(89.944) scale(39.789 21.9161)">
<stop offset="0.140625" stop-color="white"/>
<stop offset="0.473958" stop-color="white" stop-opacity="0"/>
</radialGradient>
</defs>
</svg>
