<svg  viewBox="0 0 72 72" fill="none" xmlns="http://www.w3.org/2000/svg">
<g clip-path="url(#clip0)">
<g filter="url(#filter0_i)">
<path d="M36.2 13.32C23.63 13.32 13.4 23.55 13.4 36.12C13.4 48.69 23.63 58.92 36.2 58.92C48.77 58.92 59 48.69 59 36.12C59 23.55 48.77 13.32 36.2 13.32Z" fill="url(#paint0_radial)"/>
<path d="M36.2 13.32C23.63 13.32 13.4 23.55 13.4 36.12C13.4 48.69 23.63 58.92 36.2 58.92C48.77 58.92 59 48.69 59 36.12C59 23.55 48.77 13.32 36.2 13.32Z" fill="url(#paint1_radial)" fill-opacity="0.31"/>
</g>
<path d="M36 59C48.7025 59 59 48.7025 59 36C59 23.2975 48.7025 13 36 13C23.2975 13 13 23.2975 13 36C13 48.7025 23.2975 59 36 59Z" stroke="#F5CC60" stroke-width="0.5" stroke-miterlimit="10"/>
<path d="M28.99 51H43.01" stroke="black" stroke-width="2" stroke-miterlimit="10" stroke-linecap="round" stroke-linejoin="round"/>
<path d="M29.2 42C29.2 43.657 27.855 45 26.2 45C24.545 45 23.2 43.657 23.2 42C23.2 40.345 24.545 39 26.2 39C27.855 39 29.2 40.345 29.2 42Z" fill="black"/>
<path d="M48.8 42C48.8 43.657 47.455 45 45.8 45C44.145 45 42.8 43.657 42.8 42C42.8 40.345 44.145 39 45.8 39C47.455 39 48.8 40.345 48.8 42Z" fill="black"/>
</g>
<defs>
<filter id="filter0_i" x="13.4" y="13.32" width="45.6" height="47.7936" filterUnits="userSpaceOnUse" color-interpolation-filters="sRGB">
<feFlood flood-opacity="0" result="BackgroundImageFix"/>
<feBlend mode="normal" in="SourceGraphic" in2="BackgroundImageFix" result="shape"/>
<feColorMatrix in="SourceAlpha" type="matrix" values="0 0 0 0 0 0 0 0 0 0 0 0 0 0 0 0 0 0 127 0" result="hardAlpha"/>
<feOffset dy="2.19361"/>
<feGaussianBlur stdDeviation="1.09681"/>
<feComposite in2="hardAlpha" operator="arithmetic" k2="-1" k3="1"/>
<feColorMatrix type="matrix" values="0 0 0 0 0 0 0 0 0 0 0 0 0 0 0 0 0 0 0.1 0"/>
<feBlend mode="normal" in2="shape" result="effect1_innerShadow"/>
</filter>
<radialGradient id="paint0_radial" cx="0" cy="0" r="1" gradientUnits="userSpaceOnUse" gradientTransform="translate(35.5096 25.32) rotate(87.2844) scale(39.6445)">
<stop offset="0.453125" stop-color="#FFCC48"/>
<stop offset="0.874464" stop-color="#F29F23"/>
</radialGradient>
<radialGradient id="paint1_radial" cx="0" cy="0" r="1" gradientUnits="userSpaceOnUse" gradientTransform="translate(36.1357 22.6591) rotate(89.8984) scale(36.2609)">
<stop offset="0.140625" stop-color="white"/>
<stop offset="0.473958" stop-color="white" stop-opacity="0"/>
</radialGradient>
<clipPath id="clip0">
<rect width="72" height="72" fill="white"/>
</clipPath>
</defs>
</svg>
